<?xml version="1.0" encoding="utf-8" standalone="no"?>
<!DOCTYPE svg PUBLIC "-//W3C//DTD SVG 1.1//EN"
  "http://www.w3.org/Graphics/SVG/1.1/DTD/svg11.dtd">
<svg xmlns:xlink="http://www.w3.org/1999/xlink" width="864pt" height="360pt" viewBox="0 0 864 360" xmlns="http://www.w3.org/2000/svg" version="1.1">
 <metadata>
  <rdf:RDF xmlns:dc="http://purl.org/dc/elements/1.1/" xmlns:cc="http://creativecommons.org/ns#" xmlns:rdf="http://www.w3.org/1999/02/22-rdf-syntax-ns#">
   <cc:Work>
    <dc:type rdf:resource="http://purl.org/dc/dcmitype/StillImage"/>
    <dc:date>2026-02-16T20:13:59.366992</dc:date>
    <dc:format>image/svg+xml</dc:format>
    <dc:creator>
     <cc:Agent>
      <dc:title>Matplotlib v3.10.8, https://matplotlib.org/</dc:title>
     </cc:Agent>
    </dc:creator>
   </cc:Work>
  </rdf:RDF>
 </metadata>
 <defs>
  <style type="text/css">*{stroke-linejoin: round; stroke-linecap: butt}</style>
 </defs>
 <g id="figure_1">
  <g id="patch_1">
   <path d="M 0 360 
L 864 360 
L 864 0 
L 0 0 
L 0 360 
z
" style="fill: none; opacity: 0"/>
  </g>
  <g id="axes_1">
   <g id="patch_2">
    <path d="M 108 320.4 
L 777.6 320.4 
L 777.6 43.2 
L 108 43.2 
L 108 320.4 
z
" style="fill: none; opacity: 0"/>
   </g>
   <g id="matplotlib.axis_1">
    <g id="xtick_1">
     <g id="line2d_1">
      <path d="M 197.192413 320.4 
L 197.192413 43.2 
" clip-path="url(#pa173278b1d)" style="fill: none; stroke-dasharray: 5.12,1.28,0.8,1.28; stroke-dashoffset: 0; stroke: #b0b0b0; stroke-width: 0.8"/>
     </g>
     <g id="line2d_2">
      <defs>
       <path id="m89d3f289fa" d="M 0 0 
L 0 3.5 
" style="stroke: #a9a9a9; stroke-width: 0.8"/>
      </defs>
      <g>
       <use xlink:href="#m89d3f289fa" x="197.192413" y="320.4" style="fill: #a9a9a9; stroke: #a9a9a9; stroke-width: 0.8"/>
      </g>
     </g>
     <g id="text_1">
      <!-- 2022 -->
      <g style="fill: #a9a9a9" transform="translate(184.467413 334.998438) scale(0.1 -0.1)">
       <defs>
        <path id="DejaVuSans-32" d="M 1228 531 
L 3431 531 
L 3431 0 
L 469 0 
L 469 531 
Q 828 903 1448 1529 
Q 2069 2156 2228 2338 
Q 2531 2678 2651 2914 
Q 2772 3150 2772 3378 
Q 2772 3750 2511 3984 
Q 2250 4219 1831 4219 
Q 1534 4219 1204 4116 
Q 875 4013 500 3803 
L 500 4441 
Q 881 4594 1212 4672 
Q 1544 4750 1819 4750 
Q 2544 4750 2975 4387 
Q 3406 4025 3406 3419 
Q 3406 3131 3298 2873 
Q 3191 2616 2906 2266 
Q 2828 2175 2409 1742 
Q 1991 1309 1228 531 
z
" transform="scale(0.015625)"/>
        <path id="DejaVuSans-30" d="M 2034 4250 
Q 1547 4250 1301 3770 
Q 1056 3291 1056 2328 
Q 1056 1369 1301 889 
Q 1547 409 2034 409 
Q 2525 409 2770 889 
Q 3016 1369 3016 2328 
Q 3016 3291 2770 3770 
Q 2525 4250 2034 4250 
z
M 2034 4750 
Q 2819 4750 3233 4129 
Q 3647 3509 3647 2328 
Q 3647 1150 3233 529 
Q 2819 -91 2034 -91 
Q 1250 -91 836 529 
Q 422 1150 422 2328 
Q 422 3509 836 4129 
Q 1250 4750 2034 4750 
z
" transform="scale(0.015625)"/>
       </defs>
       <use xlink:href="#DejaVuSans-32"/>
       <use xlink:href="#DejaVuSans-30" transform="translate(63.623047 0)"/>
       <use xlink:href="#DejaVuSans-32" transform="translate(127.246094 0)"/>
       <use xlink:href="#DejaVuSans-32" transform="translate(190.869141 0)"/>
      </g>
     </g>
    </g>
    <g id="xtick_2">
     <g id="line2d_3">
      <path d="M 330.397122 320.4 
L 330.397122 43.2 
" clip-path="url(#pa173278b1d)" style="fill: none; stroke-dasharray: 5.12,1.28,0.8,1.28; stroke-dashoffset: 0; stroke: #b0b0b0; stroke-width: 0.8"/>
     </g>
     <g id="line2d_4">
      <g>
       <use xlink:href="#m89d3f289fa" x="330.397122" y="320.4" style="fill: #a9a9a9; stroke: #a9a9a9; stroke-width: 0.8"/>
      </g>
     </g>
     <g id="text_2">
      <!-- 2023 -->
      <g style="fill: #a9a9a9" transform="translate(317.672122 334.998438) scale(0.1 -0.1)">
       <defs>
        <path id="DejaVuSans-33" d="M 2597 2516 
Q 3050 2419 3304 2112 
Q 3559 1806 3559 1356 
Q 3559 666 3084 287 
Q 2609 -91 1734 -91 
Q 1441 -91 1130 -33 
Q 819 25 488 141 
L 488 750 
Q 750 597 1062 519 
Q 1375 441 1716 441 
Q 2309 441 2620 675 
Q 2931 909 2931 1356 
Q 2931 1769 2642 2001 
Q 2353 2234 1838 2234 
L 1294 2234 
L 1294 2753 
L 1863 2753 
Q 2328 2753 2575 2939 
Q 2822 3125 2822 3475 
Q 2822 3834 2567 4026 
Q 2313 4219 1838 4219 
Q 1578 4219 1281 4162 
Q 984 4106 628 3988 
L 628 4550 
Q 988 4650 1302 4700 
Q 1616 4750 1894 4750 
Q 2613 4750 3031 4423 
Q 3450 4097 3450 3541 
Q 3450 3153 3228 2886 
Q 3006 2619 2597 2516 
z
" transform="scale(0.015625)"/>
       </defs>
       <use xlink:href="#DejaVuSans-32"/>
       <use xlink:href="#DejaVuSans-30" transform="translate(63.623047 0)"/>
       <use xlink:href="#DejaVuSans-32" transform="translate(127.246094 0)"/>
       <use xlink:href="#DejaVuSans-33" transform="translate(190.869141 0)"/>
      </g>
     </g>
    </g>
    <g id="xtick_3">
     <g id="line2d_5">
      <path d="M 463.601831 320.4 
L 463.601831 43.2 
" clip-path="url(#pa173278b1d)" style="fill: none; stroke-dasharray: 5.12,1.28,0.8,1.28; stroke-dashoffset: 0; stroke: #b0b0b0; stroke-width: 0.8"/>
     </g>
     <g id="line2d_6">
      <g>
       <use xlink:href="#m89d3f289fa" x="463.601831" y="320.4" style="fill: #a9a9a9; stroke: #a9a9a9; stroke-width: 0.8"/>
      </g>
     </g>
     <g id="text_3">
      <!-- 2024 -->
      <g style="fill: #a9a9a9" transform="translate(450.876831 334.998438) scale(0.1 -0.1)">
       <defs>
        <path id="DejaVuSans-34" d="M 2419 4116 
L 825 1625 
L 2419 1625 
L 2419 4116 
z
M 2253 4666 
L 3047 4666 
L 3047 1625 
L 3713 1625 
L 3713 1100 
L 3047 1100 
L 3047 0 
L 2419 0 
L 2419 1100 
L 313 1100 
L 313 1709 
L 2253 4666 
z
" transform="scale(0.015625)"/>
       </defs>
       <use xlink:href="#DejaVuSans-32"/>
       <use xlink:href="#DejaVuSans-30" transform="translate(63.623047 0)"/>
       <use xlink:href="#DejaVuSans-32" transform="translate(127.246094 0)"/>
       <use xlink:href="#DejaVuSans-34" transform="translate(190.869141 0)"/>
      </g>
     </g>
    </g>
    <g id="xtick_4">
     <g id="line2d_7">
      <path d="M 597.171485 320.4 
L 597.171485 43.2 
" clip-path="url(#pa173278b1d)" style="fill: none; stroke-dasharray: 5.12,1.28,0.8,1.28; stroke-dashoffset: 0; stroke: #b0b0b0; stroke-width: 0.8"/>
     </g>
     <g id="line2d_8">
      <g>
       <use xlink:href="#m89d3f289fa" x="597.171485" y="320.4" style="fill: #a9a9a9; stroke: #a9a9a9; stroke-width: 0.8"/>
      </g>
     </g>
     <g id="text_4">
      <!-- 2025 -->
      <g style="fill: #a9a9a9" transform="translate(584.446485 334.998438) scale(0.1 -0.1)">
       <defs>
        <path id="DejaVuSans-35" d="M 691 4666 
L 3169 4666 
L 3169 4134 
L 1269 4134 
L 1269 2991 
Q 1406 3038 1543 3061 
Q 1681 3084 1819 3084 
Q 2600 3084 3056 2656 
Q 3513 2228 3513 1497 
Q 3513 744 3044 326 
Q 2575 -91 1722 -91 
Q 1428 -91 1123 -41 
Q 819 9 494 109 
L 494 744 
Q 775 591 1075 516 
Q 1375 441 1709 441 
Q 2250 441 2565 725 
Q 2881 1009 2881 1497 
Q 2881 1984 2565 2268 
Q 2250 2553 1709 2553 
Q 1456 2553 1204 2497 
Q 953 2441 691 2322 
L 691 4666 
z
" transform="scale(0.015625)"/>
       </defs>
       <use xlink:href="#DejaVuSans-32"/>
       <use xlink:href="#DejaVuSans-30" transform="translate(63.623047 0)"/>
       <use xlink:href="#DejaVuSans-32" transform="translate(127.246094 0)"/>
       <use xlink:href="#DejaVuSans-35" transform="translate(190.869141 0)"/>
      </g>
     </g>
    </g>
    <g id="xtick_5">
     <g id="line2d_9">
      <path d="M 730.376194 320.4 
L 730.376194 43.2 
" clip-path="url(#pa173278b1d)" style="fill: none; stroke-dasharray: 5.12,1.28,0.8,1.28; stroke-dashoffset: 0; stroke: #b0b0b0; stroke-width: 0.8"/>
     </g>
     <g id="line2d_10">
      <g>
       <use xlink:href="#m89d3f289fa" x="730.376194" y="320.4" style="fill: #a9a9a9; stroke: #a9a9a9; stroke-width: 0.8"/>
      </g>
     </g>
     <g id="text_5">
      <!-- 2026 -->
      <g style="fill: #a9a9a9" transform="translate(717.651194 334.998438) scale(0.1 -0.1)">
       <defs>
        <path id="DejaVuSans-36" d="M 2113 2584 
Q 1688 2584 1439 2293 
Q 1191 2003 1191 1497 
Q 1191 994 1439 701 
Q 1688 409 2113 409 
Q 2538 409 2786 701 
Q 3034 994 3034 1497 
Q 3034 2003 2786 2293 
Q 2538 2584 2113 2584 
z
M 3366 4563 
L 3366 3988 
Q 3128 4100 2886 4159 
Q 2644 4219 2406 4219 
Q 1781 4219 1451 3797 
Q 1122 3375 1075 2522 
Q 1259 2794 1537 2939 
Q 1816 3084 2150 3084 
Q 2853 3084 3261 2657 
Q 3669 2231 3669 1497 
Q 3669 778 3244 343 
Q 2819 -91 2113 -91 
Q 1303 -91 875 529 
Q 447 1150 447 2328 
Q 447 3434 972 4092 
Q 1497 4750 2381 4750 
Q 2619 4750 2861 4703 
Q 3103 4656 3366 4563 
z
" transform="scale(0.015625)"/>
       </defs>
       <use xlink:href="#DejaVuSans-32"/>
       <use xlink:href="#DejaVuSans-30" transform="translate(63.623047 0)"/>
       <use xlink:href="#DejaVuSans-32" transform="translate(127.246094 0)"/>
       <use xlink:href="#DejaVuSans-36" transform="translate(190.869141 0)"/>
      </g>
     </g>
    </g>
   </g>
   <g id="matplotlib.axis_2">
    <g id="ytick_1">
     <g id="line2d_11">
      <path d="M 108 307.829072 
L 777.6 307.829072 
" clip-path="url(#pa173278b1d)" style="fill: none; stroke-dasharray: 5.12,1.28,0.8,1.28; stroke-dashoffset: 0; stroke: #b0b0b0; stroke-width: 0.8"/>
     </g>
     <g id="line2d_12">
      <defs>
       <path id="m23a9abbce2" d="M 0 0 
L -3.5 0 
" style="stroke: #a9a9a9; stroke-width: 0.8"/>
      </defs>
      <g>
       <use xlink:href="#m23a9abbce2" x="108" y="307.829072" style="fill: #a9a9a9; stroke: #a9a9a9; stroke-width: 0.8"/>
      </g>
     </g>
     <g id="text_6">
      <!-- 0 -->
      <g style="fill: #a9a9a9" transform="translate(94.6375 311.628291) scale(0.1 -0.1)">
       <use xlink:href="#DejaVuSans-30"/>
      </g>
     </g>
    </g>
    <g id="ytick_2">
     <g id="line2d_13">
      <path d="M 108 278.756622 
L 777.6 278.756622 
" clip-path="url(#pa173278b1d)" style="fill: none; stroke-dasharray: 5.12,1.28,0.8,1.28; stroke-dashoffset: 0; stroke: #b0b0b0; stroke-width: 0.8"/>
     </g>
     <g id="line2d_14">
      <g>
       <use xlink:href="#m23a9abbce2" x="108" y="278.756622" style="fill: #a9a9a9; stroke: #a9a9a9; stroke-width: 0.8"/>
      </g>
     </g>
     <g id="text_7">
      <!-- 1000 -->
      <g style="fill: #a9a9a9" transform="translate(75.55 282.555841) scale(0.1 -0.1)">
       <defs>
        <path id="DejaVuSans-31" d="M 794 531 
L 1825 531 
L 1825 4091 
L 703 3866 
L 703 4441 
L 1819 4666 
L 2450 4666 
L 2450 531 
L 3481 531 
L 3481 0 
L 794 0 
L 794 531 
z
" transform="scale(0.015625)"/>
       </defs>
       <use xlink:href="#DejaVuSans-31"/>
       <use xlink:href="#DejaVuSans-30" transform="translate(63.623047 0)"/>
       <use xlink:href="#DejaVuSans-30" transform="translate(127.246094 0)"/>
       <use xlink:href="#DejaVuSans-30" transform="translate(190.869141 0)"/>
      </g>
     </g>
    </g>
    <g id="ytick_3">
     <g id="line2d_15">
      <path d="M 108 249.684172 
L 777.6 249.684172 
" clip-path="url(#pa173278b1d)" style="fill: none; stroke-dasharray: 5.12,1.28,0.8,1.28; stroke-dashoffset: 0; stroke: #b0b0b0; stroke-width: 0.8"/>
     </g>
     <g id="line2d_16">
      <g>
       <use xlink:href="#m23a9abbce2" x="108" y="249.684172" style="fill: #a9a9a9; stroke: #a9a9a9; stroke-width: 0.8"/>
      </g>
     </g>
     <g id="text_8">
      <!-- 2000 -->
      <g style="fill: #a9a9a9" transform="translate(75.55 253.48339) scale(0.1 -0.1)">
       <use xlink:href="#DejaVuSans-32"/>
       <use xlink:href="#DejaVuSans-30" transform="translate(63.623047 0)"/>
       <use xlink:href="#DejaVuSans-30" transform="translate(127.246094 0)"/>
       <use xlink:href="#DejaVuSans-30" transform="translate(190.869141 0)"/>
      </g>
     </g>
    </g>
    <g id="ytick_4">
     <g id="line2d_17">
      <path d="M 108 220.611721 
L 777.6 220.611721 
" clip-path="url(#pa173278b1d)" style="fill: none; stroke-dasharray: 5.12,1.28,0.8,1.28; stroke-dashoffset: 0; stroke: #b0b0b0; stroke-width: 0.8"/>
     </g>
     <g id="line2d_18">
      <g>
       <use xlink:href="#m23a9abbce2" x="108" y="220.611721" style="fill: #a9a9a9; stroke: #a9a9a9; stroke-width: 0.8"/>
      </g>
     </g>
     <g id="text_9">
      <!-- 3000 -->
      <g style="fill: #a9a9a9" transform="translate(75.55 224.41094) scale(0.1 -0.1)">
       <use xlink:href="#DejaVuSans-33"/>
       <use xlink:href="#DejaVuSans-30" transform="translate(63.623047 0)"/>
       <use xlink:href="#DejaVuSans-30" transform="translate(127.246094 0)"/>
       <use xlink:href="#DejaVuSans-30" transform="translate(190.869141 0)"/>
      </g>
     </g>
    </g>
    <g id="ytick_5">
     <g id="line2d_19">
      <path d="M 108 191.539271 
L 777.6 191.539271 
" clip-path="url(#pa173278b1d)" style="fill: none; stroke-dasharray: 5.12,1.28,0.8,1.28; stroke-dashoffset: 0; stroke: #b0b0b0; stroke-width: 0.8"/>
     </g>
     <g id="line2d_20">
      <g>
       <use xlink:href="#m23a9abbce2" x="108" y="191.539271" style="fill: #a9a9a9; stroke: #a9a9a9; stroke-width: 0.8"/>
      </g>
     </g>
     <g id="text_10">
      <!-- 4000 -->
      <g style="fill: #a9a9a9" transform="translate(75.55 195.33849) scale(0.1 -0.1)">
       <use xlink:href="#DejaVuSans-34"/>
       <use xlink:href="#DejaVuSans-30" transform="translate(63.623047 0)"/>
       <use xlink:href="#DejaVuSans-30" transform="translate(127.246094 0)"/>
       <use xlink:href="#DejaVuSans-30" transform="translate(190.869141 0)"/>
      </g>
     </g>
    </g>
    <g id="ytick_6">
     <g id="line2d_21">
      <path d="M 108 162.46682 
L 777.6 162.46682 
" clip-path="url(#pa173278b1d)" style="fill: none; stroke-dasharray: 5.12,1.28,0.8,1.28; stroke-dashoffset: 0; stroke: #b0b0b0; stroke-width: 0.8"/>
     </g>
     <g id="line2d_22">
      <g>
       <use xlink:href="#m23a9abbce2" x="108" y="162.46682" style="fill: #a9a9a9; stroke: #a9a9a9; stroke-width: 0.8"/>
      </g>
     </g>
     <g id="text_11">
      <!-- 5000 -->
      <g style="fill: #a9a9a9" transform="translate(75.55 166.266039) scale(0.1 -0.1)">
       <use xlink:href="#DejaVuSans-35"/>
       <use xlink:href="#DejaVuSans-30" transform="translate(63.623047 0)"/>
       <use xlink:href="#DejaVuSans-30" transform="translate(127.246094 0)"/>
       <use xlink:href="#DejaVuSans-30" transform="translate(190.869141 0)"/>
      </g>
     </g>
    </g>
    <g id="ytick_7">
     <g id="line2d_23">
      <path d="M 108 133.39437 
L 777.6 133.39437 
" clip-path="url(#pa173278b1d)" style="fill: none; stroke-dasharray: 5.12,1.28,0.8,1.28; stroke-dashoffset: 0; stroke: #b0b0b0; stroke-width: 0.8"/>
     </g>
     <g id="line2d_24">
      <g>
       <use xlink:href="#m23a9abbce2" x="108" y="133.39437" style="fill: #a9a9a9; stroke: #a9a9a9; stroke-width: 0.8"/>
      </g>
     </g>
     <g id="text_12">
      <!-- 6000 -->
      <g style="fill: #a9a9a9" transform="translate(75.55 137.193589) scale(0.1 -0.1)">
       <use xlink:href="#DejaVuSans-36"/>
       <use xlink:href="#DejaVuSans-30" transform="translate(63.623047 0)"/>
       <use xlink:href="#DejaVuSans-30" transform="translate(127.246094 0)"/>
       <use xlink:href="#DejaVuSans-30" transform="translate(190.869141 0)"/>
      </g>
     </g>
    </g>
    <g id="ytick_8">
     <g id="line2d_25">
      <path d="M 108 104.32192 
L 777.6 104.32192 
" clip-path="url(#pa173278b1d)" style="fill: none; stroke-dasharray: 5.12,1.28,0.8,1.28; stroke-dashoffset: 0; stroke: #b0b0b0; stroke-width: 0.8"/>
     </g>
     <g id="line2d_26">
      <g>
       <use xlink:href="#m23a9abbce2" x="108" y="104.32192" style="fill: #a9a9a9; stroke: #a9a9a9; stroke-width: 0.8"/>
      </g>
     </g>
     <g id="text_13">
      <!-- 7000 -->
      <g style="fill: #a9a9a9" transform="translate(75.55 108.121138) scale(0.1 -0.1)">
       <defs>
        <path id="DejaVuSans-37" d="M 525 4666 
L 3525 4666 
L 3525 4397 
L 1831 0 
L 1172 0 
L 2766 4134 
L 525 4134 
L 525 4666 
z
" transform="scale(0.015625)"/>
       </defs>
       <use xlink:href="#DejaVuSans-37"/>
       <use xlink:href="#DejaVuSans-30" transform="translate(63.623047 0)"/>
       <use xlink:href="#DejaVuSans-30" transform="translate(127.246094 0)"/>
       <use xlink:href="#DejaVuSans-30" transform="translate(190.869141 0)"/>
      </g>
     </g>
    </g>
    <g id="ytick_9">
     <g id="line2d_27">
      <path d="M 108 75.249469 
L 777.6 75.249469 
" clip-path="url(#pa173278b1d)" style="fill: none; stroke-dasharray: 5.12,1.28,0.8,1.28; stroke-dashoffset: 0; stroke: #b0b0b0; stroke-width: 0.8"/>
     </g>
     <g id="line2d_28">
      <g>
       <use xlink:href="#m23a9abbce2" x="108" y="75.249469" style="fill: #a9a9a9; stroke: #a9a9a9; stroke-width: 0.8"/>
      </g>
     </g>
     <g id="text_14">
      <!-- 8000 -->
      <g style="fill: #a9a9a9" transform="translate(75.55 79.048688) scale(0.1 -0.1)">
       <defs>
        <path id="DejaVuSans-38" d="M 2034 2216 
Q 1584 2216 1326 1975 
Q 1069 1734 1069 1313 
Q 1069 891 1326 650 
Q 1584 409 2034 409 
Q 2484 409 2743 651 
Q 3003 894 3003 1313 
Q 3003 1734 2745 1975 
Q 2488 2216 2034 2216 
z
M 1403 2484 
Q 997 2584 770 2862 
Q 544 3141 544 3541 
Q 544 4100 942 4425 
Q 1341 4750 2034 4750 
Q 2731 4750 3128 4425 
Q 3525 4100 3525 3541 
Q 3525 3141 3298 2862 
Q 3072 2584 2669 2484 
Q 3125 2378 3379 2068 
Q 3634 1759 3634 1313 
Q 3634 634 3220 271 
Q 2806 -91 2034 -91 
Q 1263 -91 848 271 
Q 434 634 434 1313 
Q 434 1759 690 2068 
Q 947 2378 1403 2484 
z
M 1172 3481 
Q 1172 3119 1398 2916 
Q 1625 2713 2034 2713 
Q 2441 2713 2670 2916 
Q 2900 3119 2900 3481 
Q 2900 3844 2670 4047 
Q 2441 4250 2034 4250 
Q 1625 4250 1398 4047 
Q 1172 3844 1172 3481 
z
" transform="scale(0.015625)"/>
       </defs>
       <use xlink:href="#DejaVuSans-38"/>
       <use xlink:href="#DejaVuSans-30" transform="translate(63.623047 0)"/>
       <use xlink:href="#DejaVuSans-30" transform="translate(127.246094 0)"/>
       <use xlink:href="#DejaVuSans-30" transform="translate(190.869141 0)"/>
      </g>
     </g>
    </g>
    <g id="ytick_10">
     <g id="line2d_29">
      <path d="M 108 46.177019 
L 777.6 46.177019 
" clip-path="url(#pa173278b1d)" style="fill: none; stroke-dasharray: 5.12,1.28,0.8,1.28; stroke-dashoffset: 0; stroke: #b0b0b0; stroke-width: 0.8"/>
     </g>
     <g id="line2d_30">
      <g>
       <use xlink:href="#m23a9abbce2" x="108" y="46.177019" style="fill: #a9a9a9; stroke: #a9a9a9; stroke-width: 0.8"/>
      </g>
     </g>
     <g id="text_15">
      <!-- 9000 -->
      <g style="fill: #a9a9a9" transform="translate(75.55 49.976238) scale(0.1 -0.1)">
       <defs>
        <path id="DejaVuSans-39" d="M 703 97 
L 703 672 
Q 941 559 1184 500 
Q 1428 441 1663 441 
Q 2288 441 2617 861 
Q 2947 1281 2994 2138 
Q 2813 1869 2534 1725 
Q 2256 1581 1919 1581 
Q 1219 1581 811 2004 
Q 403 2428 403 3163 
Q 403 3881 828 4315 
Q 1253 4750 1959 4750 
Q 2769 4750 3195 4129 
Q 3622 3509 3622 2328 
Q 3622 1225 3098 567 
Q 2575 -91 1691 -91 
Q 1453 -91 1209 -44 
Q 966 3 703 97 
z
M 1959 2075 
Q 2384 2075 2632 2365 
Q 2881 2656 2881 3163 
Q 2881 3666 2632 3958 
Q 2384 4250 1959 4250 
Q 1534 4250 1286 3958 
Q 1038 3666 1038 3163 
Q 1038 2656 1286 2365 
Q 1534 2075 1959 2075 
z
" transform="scale(0.015625)"/>
       </defs>
       <use xlink:href="#DejaVuSans-39"/>
       <use xlink:href="#DejaVuSans-30" transform="translate(63.623047 0)"/>
       <use xlink:href="#DejaVuSans-30" transform="translate(127.246094 0)"/>
       <use xlink:href="#DejaVuSans-30" transform="translate(190.869141 0)"/>
      </g>
     </g>
    </g>
   </g>
   <g id="line2d_31">
    <path d="M 138.436364 307.741855 
L 140.62603 307.538348 
L 140.990974 307.363913 
L 142.450752 307.160406 
L 143.91053 306.840609 
L 144.640419 306.724319 
L 146.465141 306.549885 
L 147.195029 306.25916 
L 147.559974 305.735856 
L 147.924918 305.474204 
L 148.289863 304.60203 
L 148.654807 304.543886 
L 149.384696 304.078726 
L 150.114585 303.52635 
L 151.574362 302.421597 
L 151.939307 302.276234 
L 152.669196 301.811075 
L 153.764029 301.258699 
L 154.128973 300.619105 
L 154.858862 300.037656 
L 155.588751 299.805076 
L 156.683584 299.630641 
L 158.87325 299.281772 
L 159.238195 299.107337 
L 161.792806 298.874758 
L 163.252583 298.496816 
L 166.172139 298.060729 
L 166.537083 297.857222 
L 166.902027 297.799077 
L 167.631916 297.537425 
L 170.186527 297.072266 
L 170.916416 296.839686 
L 174.200916 296.258237 
L 174.930804 296.083802 
L 176.390582 295.880295 
L 177.120471 295.647716 
L 177.485415 295.095339 
L 178.580249 294.63018 
L 179.675082 294.310383 
L 180.040026 294.106876 
L 180.769915 293.961514 
L 182.594637 293.496354 
L 183.68947 293.234702 
L 185.149248 292.85676 
L 185.514192 292.827688 
L 186.244081 292.449746 
L 186.609026 292.391601 
L 186.97397 292.188094 
L 190.988358 291.490355 
L 192.448136 291.025196 
L 192.81308 290.763544 
L 194.637802 290.12395 
L 195.367691 289.571574 
L 196.462525 289.338994 
L 204.491302 286.838763 
L 204.856246 286.809691 
L 205.951079 286.460821 
L 206.316024 286.460821 
L 206.680968 286.286387 
L 207.410857 286.199169 
L 207.775801 286.053807 
L 209.600523 285.96659 
L 209.965468 285.879372 
L 210.695356 285.472358 
L 211.79019 285.065344 
L 212.520078 284.658329 
L 213.614912 284.164098 
L 215.074689 283.408214 
L 215.439634 283.0012 
L 216.169523 281.780157 
L 217.264356 281.431287 
L 217.6293 281.140563 
L 218.724133 280.733549 
L 219.089078 280.355607 
L 220.183911 279.890448 
L 220.548855 279.68694 
L 222.738522 277.041347 
L 223.468411 276.692478 
L 224.928188 275.64587 
L 225.658077 275.122566 
L 226.023022 274.570189 
L 226.387966 273.668943 
L 226.75291 273.087494 
L 230.402354 269.744162 
L 231.132243 269.017351 
L 232.592021 268.028888 
L 232.956965 267.680018 
L 233.686854 267.447439 
L 234.781687 266.778772 
L 235.876521 265.993816 
L 237.336298 264.569266 
L 238.066187 264.249469 
L 238.796076 263.726165 
L 239.16102 263.493586 
L 239.525965 263.435441 
L 240.620798 262.766774 
L 240.985742 262.330688 
L 242.810464 261.255007 
L 243.175409 261.109645 
L 244.270242 260.295616 
L 249.744408 258.2024 
L 250.474297 257.475588 
L 251.56913 256.894139 
L 252.299019 256.399908 
L 253.028908 256.167328 
L 253.393852 255.905676 
L 253.758797 255.789386 
L 254.85363 255.00443 
L 256.678352 254.568343 
L 257.773185 253.870605 
L 258.868018 253.608952 
L 259.232963 253.521735 
L 260.327796 252.707707 
L 261.787574 252.27162 
L 262.152518 251.980895 
L 264.342184 251.166867 
L 265.072073 251.021504 
L 265.801962 250.701707 
L 268.356573 249.713244 
L 269.086462 249.626027 
L 270.546239 249.044578 
L 274.560628 246.922289 
L 275.290517 246.573419 
L 276.020405 246.22455 
L 276.750294 246.079188 
L 277.480183 245.614029 
L 278.210072 245.410521 
L 279.304905 244.945362 
L 280.764683 244.741855 
L 281.494572 244.334841 
L 281.859516 243.985971 
L 282.22446 243.288233 
L 283.684238 242.852146 
L 285.144016 242.154407 
L 288.428515 240.613567 
L 289.158404 240.439132 
L 290.253237 239.857683 
L 290.618182 239.799539 
L 292.442904 238.840148 
L 293.172793 238.345916 
L 294.267626 238.113336 
L 297.552126 236.950438 
L 299.011903 236.310844 
L 299.376848 236.02012 
L 300.106736 235.613106 
L 300.836625 235.322381 
L 301.20157 235.235164 
L 302.661347 234.450208 
L 303.026292 234.043193 
L 303.391236 233.810614 
L 303.756181 233.723396 
L 304.486069 233.083802 
L 304.851014 233.025658 
L 305.215958 232.386064 
L 305.580903 232.240701 
L 305.945847 231.920904 
L 306.310791 231.86276 
L 307.04068 231.368528 
L 307.770569 231.106876 
L 308.135513 230.816151 
L 308.865402 230.409137 
L 310.32518 229.478819 
L 312.514846 228.461283 
L 312.879791 227.792617 
L 313.60968 227.211168 
L 313.974624 227.12395 
L 316.16429 226.019197 
L 316.894179 225.6994 
L 317.624068 225.147024 
L 318.353957 224.362067 
L 320.178679 222.937517 
L 320.908568 222.326996 
L 321.273512 222.152561 
L 322.003401 221.367605 
L 323.098234 220.844301 
L 323.828123 220.408214 
L 324.193067 220.291924 
L 324.558012 220.0012 
L 324.922956 219.943055 
L 328.207456 218.198708 
L 328.937345 217.995201 
L 330.397122 217.471897 
L 331.127011 216.977665 
L 332.586789 216.425288 
L 333.316678 215.931057 
L 334.046566 215.640332 
L 334.776455 215.087956 
L 335.506344 213.547116 
L 336.236233 212.674942 
L 337.331066 212.064421 
L 338.060955 211.744624 
L 338.425899 211.686479 
L 339.155788 211.33761 
L 340.98051 210.668943 
L 341.710399 210.174712 
L 342.805232 209.709552 
L 344.26501 208.808306 
L 344.629954 208.546654 
L 344.994899 208.110568 
L 346.089732 207.441901 
L 346.454676 207.296539 
L 347.184565 206.83138 
L 348.644343 205.988279 
L 349.009287 205.901061 
L 349.374232 205.610337 
L 351.928842 204.738163 
L 352.293787 204.476511 
L 353.023676 204.243932 
L 355.943231 202.790309 
L 356.67312 202.383295 
L 357.038064 202.20886 
L 357.767953 201.598339 
L 358.497842 201.394832 
L 358.862786 201.045962 
L 359.227731 200.987817 
L 359.957619 200.406368 
L 361.782341 199.272543 
L 362.51223 199.039963 
L 362.877175 198.807383 
L 363.242119 198.749239 
L 365.431785 197.789848 
L 369.811118 196.39437 
L 370.905952 195.609414 
L 371.63584 195.2024 
L 373.095618 194.475588 
L 374.190451 193.719705 
L 374.92034 193.54527 
L 376.015173 192.847531 
L 379.299673 191.684633 
L 380.029562 191.422981 
L 381.489339 191.103184 
L 382.219228 190.870605 
L 384.04395 190.231011 
L 385.138784 189.882141 
L 385.868672 189.707707 
L 388.058339 189.300692 
L 388.788228 189.15533 
L 389.883061 188.893678 
L 390.248005 188.719243 
L 390.977894 188.573881 
L 391.707783 188.370374 
L 392.437672 188.021504 
L 392.802616 187.876142 
L 393.16756 187.876142 
L 398.641727 186.07365 
L 399.006671 185.666636 
L 401.196337 184.707245 
L 402.656115 184.183941 
L 403.02106 183.951361 
L 404.115893 183.602492 
L 405.57567 183.050115 
L 405.940615 182.730318 
L 407.035448 182.497739 
L 407.765337 182.148869 
L 408.130281 181.68371 
L 412.14467 180.753392 
L 412.509614 180.753392 
L 413.239503 180.520812 
L 416.524003 179.677711 
L 417.253891 179.503276 
L 423.822891 177.322843 
L 424.187835 177.061191 
L 424.917724 176.828611 
L 427.837279 175.782003 
L 428.567168 175.723858 
L 430.026946 175.287771 
L 430.39189 175.055192 
L 431.121779 174.822612 
L 433.311445 173.892293 
L 437.690778 172.264236 
L 440.975278 171.188556 
L 442.435056 169.93844 
L 444.989666 168.804615 
L 447.544277 167.670789 
L 448.274166 167.467282 
L 451.558666 165.810152 
L 452.288555 165.374066 
L 455.573054 163.746008 
L 455.937999 163.455284 
L 457.762721 162.757545 
L 460.317332 161.798154 
L 461.04722 161.710937 
L 461.412165 161.449285 
L 462.871942 161.15856 
L 463.601831 160.838763 
L 465.426553 159.937517 
L 470.170831 157.757084 
L 471.265664 157.379142 
L 471.630608 157.11749 
L 472.360497 157.030272 
L 472.725441 156.76862 
L 473.45533 156.65233 
L 478.199608 154.878911 
L 479.294441 154.617259 
L 480.754218 153.977665 
L 481.484107 153.570651 
L 482.943885 152.785695 
L 483.673774 152.61126 
L 484.038718 152.37868 
L 484.403663 152.291463 
L 486.228385 151.361144 
L 490.972662 149.52958 
L 491.337606 149.471435 
L 492.797384 148.744624 
L 493.527273 148.599262 
L 494.257162 148.163175 
L 495.716939 147.436364 
L 502.285939 144.848916 
L 503.745716 143.569728 
L 504.840549 143.133641 
L 507.39516 141.854453 
L 507.760105 141.592801 
L 508.489993 141.389294 
L 509.219882 140.98228 
L 510.314716 140.720628 
L 516.153826 138.278542 
L 517.978548 137.522658 
L 519.80327 136.941209 
L 520.898103 136.214398 
L 521.263048 136.12718 
L 521.992937 135.749239 
L 522.722825 135.516659 
L 523.08777 135.16779 
L 524.182603 134.731703 
L 524.547547 134.673558 
L 526.007325 133.975819 
L 527.102158 133.62695 
L 528.196991 133.219935 
L 529.291825 132.900138 
L 529.656769 132.841994 
L 530.386658 132.434979 
L 530.751602 132.289617 
L 531.116547 131.998892 
L 532.21138 131.708168 
L 532.941269 131.417443 
L 533.671158 131.097647 
L 535.130935 130.487125 
L 537.685546 129.847531 
L 538.415435 129.556807 
L 539.875213 129.266082 
L 540.605101 129.12072 
L 541.699935 128.684633 
L 542.794768 128.452054 
L 544.984434 127.114721 
L 546.079267 126.446054 
L 548.268934 125.748316 
L 548.633878 125.457591 
L 551.553434 124.410983 
L 552.648267 124.062114 
L 553.378156 123.655099 
L 554.108044 123.451592 
L 554.472989 123.248085 
L 555.202878 123.102723 
L 557.0276 122.259622 
L 557.757489 121.968897 
L 559.217266 121.387448 
L 559.582211 121.038579 
L 559.947155 120.980434 
L 561.406933 120.369912 
L 562.86671 119.99197 
L 563.231655 119.962898 
L 563.596599 119.788463 
L 564.326488 119.643101 
L 567.610988 118.625565 
L 568.340876 118.044116 
L 569.800654 117.201015 
L 570.165598 117.113798 
L 570.530543 116.910291 
L 570.895487 116.852146 
L 574.179987 115.224089 
L 574.544931 114.904292 
L 576.369653 114.468205 
L 577.464487 113.973973 
L 578.194375 113.770466 
L 578.55932 113.596031 
L 578.924264 113.276234 
L 581.478875 112.345916 
L 582.573708 111.851684 
L 582.938653 111.822612 
L 583.668542 111.531887 
L 585.128319 110.892293 
L 587.317986 110.339917 
L 588.412819 109.845685 
L 591.697319 108.770005 
L 592.427207 108.36299 
L 604.835317 104.525427 
L 605.565206 104.32192 
L 606.660039 103.914905 
L 607.024984 103.914905 
L 608.119817 103.653253 
L 608.849706 103.507891 
L 609.579595 103.304384 
L 610.674428 102.722935 
L 611.769261 102.374066 
L 614.323872 101.501892 
L 615.783649 100.746008 
L 618.33826 99.873835 
L 618.703205 99.554038 
L 619.433094 99.321458 
L 619.798038 99.088879 
L 620.527927 99.001661 
L 623.082538 98.27485 
L 624.177371 98.04227 
L 627.096926 96.995662 
L 631.841203 95.164098 
L 632.571092 95.047808 
L 633.300981 94.902446 
L 633.665925 94.902446 
L 634.760759 94.553576 
L 635.855592 94.204707 
L 639.140092 93.274389 
L 639.505036 93.245316 
L 641.329758 92.634795 
L 642.789536 92.34407 
L 643.884369 91.820766 
L 644.979202 91.559114 
L 645.709091 91.239317 
L 647.898757 90.454361 
L 648.263702 90.396216 
L 648.993591 90.134564 
L 653.372923 89.000738 
L 655.56259 88.244855 
L 656.292479 88.18671 
L 658.482145 87.634333 
L 659.212034 87.314536 
L 659.576978 87.256391 
L 659.941923 87.081957 
L 660.671812 86.442363 
L 664.321256 85.10503 
L 666.510922 84.523581 
L 667.240811 84.116567 
L 667.605755 84.029349 
L 668.700589 83.418828 
L 669.065533 83.331611 
L 669.430477 83.040886 
L 670.525311 82.721089 
L 675.999477 80.191786 
L 677.824199 79.552192 
L 678.189143 79.232395 
L 678.554088 79.145178 
L 679.283976 78.680018 
L 680.37881 78.360222 
L 681.838587 77.7497 
L 682.203532 77.720628 
L 684.028254 77.022889 
L 684.758143 76.877527 
L 685.488031 76.354222 
L 685.852976 76.354222 
L 687.312753 75.830918 
L 688.772531 75.540194 
L 690.232309 74.9006 
L 690.597253 74.9006 
L 691.692086 74.522658 
L 692.421975 74.406368 
L 693.516808 73.766774 
L 694.246697 73.388832 
L 697.166252 72.342224 
L 697.896141 72.109645 
L 699.720863 71.760775 
L 705.559974 69.987356 
L 705.924918 69.929211 
L 706.654807 69.638486 
L 708.114585 69.318689 
L 711.03414 68.243009 
L 711.764029 68.097647 
L 713.223806 67.835994 
L 713.953695 67.719705 
L 715.413473 67.138256 
L 716.143362 66.934749 
L 716.87325 66.818459 
L 718.333028 66.353299 
L 718.697973 66.353299 
L 719.062917 66.062575 
L 719.792806 65.829995 
L 720.15775 65.829995 
L 723.807194 64.550808 
L 724.902027 64.085648 
L 725.266972 64.027503 
L 725.996861 63.678634 
L 726.72675 63.358837 
L 727.456638 63.03904 
L 728.186527 62.748316 
L 728.551472 62.544808 
L 728.916416 62.486664 
L 729.646305 62.137794 
L 730.741138 61.672635 
L 732.56586 60.887679 
L 732.930804 60.655099 
L 733.295749 60.567882 
L 733.660693 60.335302 
L 734.025638 60.277157 
L 734.755526 59.811998 
L 736.945193 59.288694 
L 737.675082 58.88168 
L 738.040026 58.823535 
L 739.499804 58.242086 
L 744.97397 56.177942 
L 746.433748 55.829072 
L 747.163636 55.8 
L 747.163636 55.8 
" clip-path="url(#pa173278b1d)" style="fill: none; stroke: #1f77b4; stroke-width: 1.5; stroke-linecap: square"/>
   </g>
   <g id="line2d_32">
    <path d="M 138.801308 307.8 
L 142.085808 307.712783 
L 145.005363 307.56742 
L 146.465141 307.56742 
L 147.195029 307.451131 
L 156.31864 306.811537 
L 158.87325 306.724319 
L 160.697973 306.666174 
L 165.44225 306.578957 
L 167.266972 306.520812 
L 170.551472 306.433595 
L 172.011249 306.404522 
L 175.660693 306.317305 
L 177.120471 306.171943 
L 178.580249 306.14287 
L 180.769915 306.055653 
L 182.229693 306.026581 
L 184.054415 305.968436 
L 185.514192 305.823073 
L 188.798692 305.735856 
L 189.528581 305.677711 
L 190.988358 305.590494 
L 193.178025 305.503276 
L 194.637802 305.416059 
L 201.206802 304.979972 
L 203.761413 304.892755 
L 204.856246 304.776465 
L 206.680968 304.689248 
L 210.330412 304.485741 
L 213.979856 304.427596 
L 215.439634 304.253161 
L 217.264356 304.165944 
L 220.9138 303.788002 
L 223.103466 303.497277 
L 224.563244 303.439132 
L 227.482799 303.032118 
L 229.672466 302.973973 
L 230.767299 302.857683 
L 231.862132 302.770466 
L 250.839241 301.345916 
L 253.393852 301.258699 
L 254.85363 301.084264 
L 256.678352 300.997047 
L 258.868018 300.909829 
L 260.69274 300.822612 
L 262.152518 300.793539 
L 263.97724 300.735395 
L 264.707129 300.648177 
L 269.816351 300.56096 
L 270.546239 300.473743 
L 274.925572 300.386525 
L 278.210072 300.21209 
L 280.764683 300.124873 
L 282.22446 299.950438 
L 284.779071 299.863221 
L 285.50896 299.746931 
L 287.333682 299.688786 
L 290.983126 299.630641 
L 292.442904 299.485279 
L 293.902681 299.456207 
L 294.997515 299.368989 
L 296.457292 299.223627 
L 300.106736 299.02012 
L 303.756181 298.932903 
L 307.04068 298.758468 
L 308.135513 298.729395 
L 308.865402 298.613106 
L 310.690124 298.525888 
L 311.420013 298.467743 
L 313.244735 298.380526 
L 314.704513 298.351454 
L 317.259124 298.264236 
L 326.747678 297.59557 
L 328.937345 297.508353 
L 330.762067 297.450208 
L 335.871288 297.36299 
L 336.601177 297.275773 
L 341.710399 297.188556 
L 345.359843 296.985048 
L 346.089732 296.955976 
L 346.819621 296.868759 
L 348.644343 296.781541 
L 350.469065 296.723396 
L 352.293787 296.636179 
L 354.118509 296.578034 
L 357.403009 296.490817 
L 359.592675 296.403599 
L 364.701897 296.316382 
L 368.716285 296.083802 
L 370.176063 296.025658 
L 371.270896 295.93844 
L 376.380118 295.851223 
L 378.569784 295.764006 
L 385.138784 295.676788 
L 386.598561 295.647716 
L 390.977894 295.589571 
L 391.707783 295.531426 
L 396.817005 295.444209 
L 398.276782 295.415136 
L 407.765337 295.327919 
L 409.955003 295.240701 
L 425.282668 295.153484 
L 427.10739 295.095339 
L 437.690778 295.008122 
L 441.705167 294.775542 
L 443.894833 294.688325 
L 446.0845 294.601108 
L 449.733944 294.51389 
L 452.288555 294.3976 
L 455.20811 294.310383 
L 458.127665 294.165021 
L 465.061609 294.077803 
L 467.251275 293.990586 
L 471.265664 293.903369 
L 473.820275 293.787079 
L 476.374886 293.728934 
L 477.104774 293.670789 
L 485.86344 293.583572 
L 489.512884 293.380065 
L 492.067495 293.292847 
L 496.081884 293.060268 
L 500.461216 292.97305 
L 501.920994 292.943978 
L 502.650883 292.885833 
L 504.475605 292.682326 
L 508.125049 292.595108 
L 508.854938 292.507891 
L 512.504382 292.420674 
L 514.329104 292.362529 
L 518.343492 292.333456 
L 519.073381 292.246239 
L 523.08777 292.159022 
L 523.817659 292.100877 
L 531.846436 292.013659 
L 534.036102 291.926442 
L 539.510268 291.839225 
L 540.970046 291.810152 
L 544.254545 291.752007 
L 544.984434 291.66479 
L 549.728712 291.577573 
L 551.553434 291.519428 
L 558.122433 291.43221 
L 559.217266 291.344993 
L 560.312099 291.257776 
L 561.406933 291.170558 
L 566.881099 291.083341 
L 569.070765 290.996124 
L 579.654153 290.908906 
L 582.938653 290.734472 
L 588.047874 290.647254 
L 589.507652 290.618182 
L 593.886985 290.530964 
L 595.711707 290.47282 
L 604.105428 290.385602 
L 606.295095 290.298385 
L 612.49915 290.211168 
L 613.958927 290.182095 
L 617.608371 290.094878 
L 620.162982 289.978588 
L 624.177371 289.891371 
L 626.731982 289.775081 
L 630.016481 289.716936 
L 630.74637 289.658791 
L 638.775147 289.571574 
L 640.964814 289.484356 
L 643.519424 289.397139 
L 645.344147 289.338994 
L 655.927534 289.251777 
L 658.117201 289.164559 
L 664.321256 289.077342 
L 666.145978 289.019197 
L 670.890255 288.93198 
L 673.079922 288.844762 
L 675.999477 288.757545 
L 678.189143 288.670328 
L 692.78692 288.58311 
L 695.706475 288.437748 
L 704.100196 288.350531 
L 705.559974 288.321458 
L 714.31864 288.234241 
L 716.143362 288.176096 
L 727.821583 288.088879 
L 729.28136 288.059806 
L 740.229693 287.972589 
L 740.959581 287.914444 
L 747.163636 287.885371 
L 747.163636 287.885371 
" clip-path="url(#pa173278b1d)" style="fill: none; stroke: #ff7f0e; stroke-width: 1.5; stroke-linecap: square"/>
   </g>
   <g id="patch_3">
    <path d="M 108 320.4 
L 108 43.2 
" style="fill: none; stroke: #a9a9a9; stroke-width: 0.8; stroke-linejoin: miter; stroke-linecap: square"/>
   </g>
   <g id="patch_4">
    <path d="M 777.6 320.4 
L 777.6 43.2 
" style="fill: none"/>
   </g>
   <g id="patch_5">
    <path d="M 108 320.4 
L 777.6 320.4 
" style="fill: none; stroke: #a9a9a9; stroke-width: 0.8; stroke-linejoin: miter; stroke-linecap: square"/>
   </g>
   <g id="patch_6">
    <path d="M 108 43.2 
L 777.6 43.2 
" style="fill: none"/>
   </g>
   <g id="text_16">
    <!-- get_subscribe history -->
    <g style="fill: #a9a9a9" transform="translate(378.6075 37.2) scale(0.12 -0.12)">
     <defs>
      <path id="DejaVuSans-67" d="M 2906 1791 
Q 2906 2416 2648 2759 
Q 2391 3103 1925 3103 
Q 1463 3103 1205 2759 
Q 947 2416 947 1791 
Q 947 1169 1205 825 
Q 1463 481 1925 481 
Q 2391 481 2648 825 
Q 2906 1169 2906 1791 
z
M 3481 434 
Q 3481 -459 3084 -895 
Q 2688 -1331 1869 -1331 
Q 1566 -1331 1297 -1286 
Q 1028 -1241 775 -1147 
L 775 -588 
Q 1028 -725 1275 -790 
Q 1522 -856 1778 -856 
Q 2344 -856 2625 -561 
Q 2906 -266 2906 331 
L 2906 616 
Q 2728 306 2450 153 
Q 2172 0 1784 0 
Q 1141 0 747 490 
Q 353 981 353 1791 
Q 353 2603 747 3093 
Q 1141 3584 1784 3584 
Q 2172 3584 2450 3431 
Q 2728 3278 2906 2969 
L 2906 3500 
L 3481 3500 
L 3481 434 
z
" transform="scale(0.015625)"/>
      <path id="DejaVuSans-65" d="M 3597 1894 
L 3597 1613 
L 953 1613 
Q 991 1019 1311 708 
Q 1631 397 2203 397 
Q 2534 397 2845 478 
Q 3156 559 3463 722 
L 3463 178 
Q 3153 47 2828 -22 
Q 2503 -91 2169 -91 
Q 1331 -91 842 396 
Q 353 884 353 1716 
Q 353 2575 817 3079 
Q 1281 3584 2069 3584 
Q 2775 3584 3186 3129 
Q 3597 2675 3597 1894 
z
M 3022 2063 
Q 3016 2534 2758 2815 
Q 2500 3097 2075 3097 
Q 1594 3097 1305 2825 
Q 1016 2553 972 2059 
L 3022 2063 
z
" transform="scale(0.015625)"/>
      <path id="DejaVuSans-74" d="M 1172 4494 
L 1172 3500 
L 2356 3500 
L 2356 3053 
L 1172 3053 
L 1172 1153 
Q 1172 725 1289 603 
Q 1406 481 1766 481 
L 2356 481 
L 2356 0 
L 1766 0 
Q 1100 0 847 248 
Q 594 497 594 1153 
L 594 3053 
L 172 3053 
L 172 3500 
L 594 3500 
L 594 4494 
L 1172 4494 
z
" transform="scale(0.015625)"/>
      <path id="DejaVuSans-5f" d="M 3263 -1063 
L 3263 -1509 
L -63 -1509 
L -63 -1063 
L 3263 -1063 
z
" transform="scale(0.015625)"/>
      <path id="DejaVuSans-73" d="M 2834 3397 
L 2834 2853 
Q 2591 2978 2328 3040 
Q 2066 3103 1784 3103 
Q 1356 3103 1142 2972 
Q 928 2841 928 2578 
Q 928 2378 1081 2264 
Q 1234 2150 1697 2047 
L 1894 2003 
Q 2506 1872 2764 1633 
Q 3022 1394 3022 966 
Q 3022 478 2636 193 
Q 2250 -91 1575 -91 
Q 1294 -91 989 -36 
Q 684 19 347 128 
L 347 722 
Q 666 556 975 473 
Q 1284 391 1588 391 
Q 1994 391 2212 530 
Q 2431 669 2431 922 
Q 2431 1156 2273 1281 
Q 2116 1406 1581 1522 
L 1381 1569 
Q 847 1681 609 1914 
Q 372 2147 372 2553 
Q 372 3047 722 3315 
Q 1072 3584 1716 3584 
Q 2034 3584 2315 3537 
Q 2597 3491 2834 3397 
z
" transform="scale(0.015625)"/>
      <path id="DejaVuSans-75" d="M 544 1381 
L 544 3500 
L 1119 3500 
L 1119 1403 
Q 1119 906 1312 657 
Q 1506 409 1894 409 
Q 2359 409 2629 706 
Q 2900 1003 2900 1516 
L 2900 3500 
L 3475 3500 
L 3475 0 
L 2900 0 
L 2900 538 
Q 2691 219 2414 64 
Q 2138 -91 1772 -91 
Q 1169 -91 856 284 
Q 544 659 544 1381 
z
M 1991 3584 
L 1991 3584 
z
" transform="scale(0.015625)"/>
      <path id="DejaVuSans-62" d="M 3116 1747 
Q 3116 2381 2855 2742 
Q 2594 3103 2138 3103 
Q 1681 3103 1420 2742 
Q 1159 2381 1159 1747 
Q 1159 1113 1420 752 
Q 1681 391 2138 391 
Q 2594 391 2855 752 
Q 3116 1113 3116 1747 
z
M 1159 2969 
Q 1341 3281 1617 3432 
Q 1894 3584 2278 3584 
Q 2916 3584 3314 3078 
Q 3713 2572 3713 1747 
Q 3713 922 3314 415 
Q 2916 -91 2278 -91 
Q 1894 -91 1617 61 
Q 1341 213 1159 525 
L 1159 0 
L 581 0 
L 581 4863 
L 1159 4863 
L 1159 2969 
z
" transform="scale(0.015625)"/>
      <path id="DejaVuSans-63" d="M 3122 3366 
L 3122 2828 
Q 2878 2963 2633 3030 
Q 2388 3097 2138 3097 
Q 1578 3097 1268 2742 
Q 959 2388 959 1747 
Q 959 1106 1268 751 
Q 1578 397 2138 397 
Q 2388 397 2633 464 
Q 2878 531 3122 666 
L 3122 134 
Q 2881 22 2623 -34 
Q 2366 -91 2075 -91 
Q 1284 -91 818 406 
Q 353 903 353 1747 
Q 353 2603 823 3093 
Q 1294 3584 2113 3584 
Q 2378 3584 2631 3529 
Q 2884 3475 3122 3366 
z
" transform="scale(0.015625)"/>
      <path id="DejaVuSans-72" d="M 2631 2963 
Q 2534 3019 2420 3045 
Q 2306 3072 2169 3072 
Q 1681 3072 1420 2755 
Q 1159 2438 1159 1844 
L 1159 0 
L 581 0 
L 581 3500 
L 1159 3500 
L 1159 2956 
Q 1341 3275 1631 3429 
Q 1922 3584 2338 3584 
Q 2397 3584 2469 3576 
Q 2541 3569 2628 3553 
L 2631 2963 
z
" transform="scale(0.015625)"/>
      <path id="DejaVuSans-69" d="M 603 3500 
L 1178 3500 
L 1178 0 
L 603 0 
L 603 3500 
z
M 603 4863 
L 1178 4863 
L 1178 4134 
L 603 4134 
L 603 4863 
z
" transform="scale(0.015625)"/>
      <path id="DejaVuSans-20" transform="scale(0.015625)"/>
      <path id="DejaVuSans-68" d="M 3513 2113 
L 3513 0 
L 2938 0 
L 2938 2094 
Q 2938 2591 2744 2837 
Q 2550 3084 2163 3084 
Q 1697 3084 1428 2787 
Q 1159 2491 1159 1978 
L 1159 0 
L 581 0 
L 581 4863 
L 1159 4863 
L 1159 2956 
Q 1366 3272 1645 3428 
Q 1925 3584 2291 3584 
Q 2894 3584 3203 3211 
Q 3513 2838 3513 2113 
z
" transform="scale(0.015625)"/>
      <path id="DejaVuSans-6f" d="M 1959 3097 
Q 1497 3097 1228 2736 
Q 959 2375 959 1747 
Q 959 1119 1226 758 
Q 1494 397 1959 397 
Q 2419 397 2687 759 
Q 2956 1122 2956 1747 
Q 2956 2369 2687 2733 
Q 2419 3097 1959 3097 
z
M 1959 3584 
Q 2709 3584 3137 3096 
Q 3566 2609 3566 1747 
Q 3566 888 3137 398 
Q 2709 -91 1959 -91 
Q 1206 -91 779 398 
Q 353 888 353 1747 
Q 353 2609 779 3096 
Q 1206 3584 1959 3584 
z
" transform="scale(0.015625)"/>
      <path id="DejaVuSans-79" d="M 2059 -325 
Q 1816 -950 1584 -1140 
Q 1353 -1331 966 -1331 
L 506 -1331 
L 506 -850 
L 844 -850 
Q 1081 -850 1212 -737 
Q 1344 -625 1503 -206 
L 1606 56 
L 191 3500 
L 800 3500 
L 1894 763 
L 2988 3500 
L 3597 3500 
L 2059 -325 
z
" transform="scale(0.015625)"/>
     </defs>
     <use xlink:href="#DejaVuSans-67"/>
     <use xlink:href="#DejaVuSans-65" transform="translate(63.476562 0)"/>
     <use xlink:href="#DejaVuSans-74" transform="translate(125 0)"/>
     <use xlink:href="#DejaVuSans-5f" transform="translate(164.208984 0)"/>
     <use xlink:href="#DejaVuSans-73" transform="translate(214.208984 0)"/>
     <use xlink:href="#DejaVuSans-75" transform="translate(266.308594 0)"/>
     <use xlink:href="#DejaVuSans-62" transform="translate(329.6875 0)"/>
     <use xlink:href="#DejaVuSans-73" transform="translate(393.164062 0)"/>
     <use xlink:href="#DejaVuSans-63" transform="translate(445.263672 0)"/>
     <use xlink:href="#DejaVuSans-72" transform="translate(500.244141 0)"/>
     <use xlink:href="#DejaVuSans-69" transform="translate(541.357422 0)"/>
     <use xlink:href="#DejaVuSans-62" transform="translate(569.140625 0)"/>
     <use xlink:href="#DejaVuSans-65" transform="translate(632.617188 0)"/>
     <use xlink:href="#DejaVuSans-20" transform="translate(694.140625 0)"/>
     <use xlink:href="#DejaVuSans-68" transform="translate(725.927734 0)"/>
     <use xlink:href="#DejaVuSans-69" transform="translate(789.306641 0)"/>
     <use xlink:href="#DejaVuSans-73" transform="translate(817.089844 0)"/>
     <use xlink:href="#DejaVuSans-74" transform="translate(869.189453 0)"/>
     <use xlink:href="#DejaVuSans-6f" transform="translate(908.398438 0)"/>
     <use xlink:href="#DejaVuSans-72" transform="translate(969.580078 0)"/>
     <use xlink:href="#DejaVuSans-79" transform="translate(1010.693359 0)"/>
    </g>
   </g>
   <g id="legend_1">
    <g id="line2d_33">
     <path d="M 815.08 328.498438 
L 825.08 328.498438 
L 835.08 328.498438 
" style="fill: none; stroke: #1f77b4; stroke-width: 1.5; stroke-linecap: square"/>
    </g>
    <g id="text_17">
     <!-- star -->
     <g style="fill: #a9a9a9" transform="translate(843.08 331.998438) scale(0.1 -0.1)">
      <defs>
       <path id="DejaVuSans-61" d="M 2194 1759 
Q 1497 1759 1228 1600 
Q 959 1441 959 1056 
Q 959 750 1161 570 
Q 1363 391 1709 391 
Q 2188 391 2477 730 
Q 2766 1069 2766 1631 
L 2766 1759 
L 2194 1759 
z
M 3341 1997 
L 3341 0 
L 2766 0 
L 2766 531 
Q 2569 213 2275 61 
Q 1981 -91 1556 -91 
Q 1019 -91 701 211 
Q 384 513 384 1019 
Q 384 1609 779 1909 
Q 1175 2209 1959 2209 
L 2766 2209 
L 2766 2266 
Q 2766 2663 2505 2880 
Q 2244 3097 1772 3097 
Q 1472 3097 1187 3025 
Q 903 2953 641 2809 
L 641 3341 
Q 956 3463 1253 3523 
Q 1550 3584 1831 3584 
Q 2591 3584 2966 3190 
Q 3341 2797 3341 1997 
z
" transform="scale(0.015625)"/>
      </defs>
      <use xlink:href="#DejaVuSans-73"/>
      <use xlink:href="#DejaVuSans-74" transform="translate(52.099609 0)"/>
      <use xlink:href="#DejaVuSans-61" transform="translate(91.308594 0)"/>
      <use xlink:href="#DejaVuSans-72" transform="translate(152.587891 0)"/>
     </g>
    </g>
    <g id="line2d_34">
     <path d="M 815.08 343.176562 
L 825.08 343.176562 
L 835.08 343.176562 
" style="fill: none; stroke: #ff7f0e; stroke-width: 1.5; stroke-linecap: square"/>
    </g>
    <g id="text_18">
     <!-- fork -->
     <g style="fill: #a9a9a9" transform="translate(843.08 346.676562) scale(0.1 -0.1)">
      <defs>
       <path id="DejaVuSans-66" d="M 2375 4863 
L 2375 4384 
L 1825 4384 
Q 1516 4384 1395 4259 
Q 1275 4134 1275 3809 
L 1275 3500 
L 2222 3500 
L 2222 3053 
L 1275 3053 
L 1275 0 
L 697 0 
L 697 3053 
L 147 3053 
L 147 3500 
L 697 3500 
L 697 3744 
Q 697 4328 969 4595 
Q 1241 4863 1831 4863 
L 2375 4863 
z
" transform="scale(0.015625)"/>
       <path id="DejaVuSans-6b" d="M 581 4863 
L 1159 4863 
L 1159 1991 
L 2875 3500 
L 3609 3500 
L 1753 1863 
L 3688 0 
L 2938 0 
L 1159 1709 
L 1159 0 
L 581 0 
L 581 4863 
z
" transform="scale(0.015625)"/>
      </defs>
      <use xlink:href="#DejaVuSans-66"/>
      <use xlink:href="#DejaVuSans-6f" transform="translate(35.205078 0)"/>
      <use xlink:href="#DejaVuSans-72" transform="translate(96.386719 0)"/>
      <use xlink:href="#DejaVuSans-6b" transform="translate(137.5 0)"/>
     </g>
    </g>
   </g>
  </g>
 </g>
 <defs>
  <clipPath id="pa173278b1d">
   <rect x="108" y="43.2" width="669.6" height="277.2"/>
  </clipPath>
 </defs>
</svg>
