<?xml version="1.0" encoding="utf-8" standalone="no"?>
<!DOCTYPE svg PUBLIC "-//W3C//DTD SVG 1.1//EN"
  "http://www.w3.org/Graphics/SVG/1.1/DTD/svg11.dtd">
<svg xmlns:xlink="http://www.w3.org/1999/xlink" width="864pt" height="360pt" viewBox="0 0 864 360" xmlns="http://www.w3.org/2000/svg" version="1.1">
 <metadata>
  <rdf:RDF xmlns:dc="http://purl.org/dc/elements/1.1/" xmlns:cc="http://creativecommons.org/ns#" xmlns:rdf="http://www.w3.org/1999/02/22-rdf-syntax-ns#">
   <cc:Work>
    <dc:type rdf:resource="http://purl.org/dc/dcmitype/StillImage"/>
    <dc:date>2026-02-18T20:14:00.075621</dc:date>
    <dc:format>image/svg+xml</dc:format>
    <dc:creator>
     <cc:Agent>
      <dc:title>Matplotlib v3.10.8, https://matplotlib.org/</dc:title>
     </cc:Agent>
    </dc:creator>
   </cc:Work>
  </rdf:RDF>
 </metadata>
 <defs>
  <style type="text/css">*{stroke-linejoin: round; stroke-linecap: butt}</style>
 </defs>
 <g id="figure_1">
  <g id="patch_1">
   <path d="M 0 360 
L 864 360 
L 864 0 
L 0 0 
L 0 360 
z
" style="fill: none; opacity: 0"/>
  </g>
  <g id="axes_1">
   <g id="patch_2">
    <path d="M 108 320.4 
L 777.6 320.4 
L 777.6 43.2 
L 108 43.2 
L 108 320.4 
z
" style="fill: none; opacity: 0"/>
   </g>
   <g id="matplotlib.axis_1">
    <g id="xtick_1">
     <g id="line2d_1">
      <path d="M 197.122047 320.4 
L 197.122047 43.2 
" clip-path="url(#pcba756dbf9)" style="fill: none; stroke-dasharray: 5.12,1.28,0.8,1.28; stroke-dashoffset: 0; stroke: #b0b0b0; stroke-width: 0.8"/>
     </g>
     <g id="line2d_2">
      <defs>
       <path id="md56367896f" d="M 0 0 
L 0 3.5 
" style="stroke: #a9a9a9; stroke-width: 0.8"/>
      </defs>
      <g>
       <use xlink:href="#md56367896f" x="197.122047" y="320.4" style="fill: #a9a9a9; stroke: #a9a9a9; stroke-width: 0.8"/>
      </g>
     </g>
     <g id="text_1">
      <!-- 2022 -->
      <g style="fill: #a9a9a9" transform="translate(184.397047 334.998438) scale(0.1 -0.1)">
       <defs>
        <path id="DejaVuSans-32" d="M 1228 531 
L 3431 531 
L 3431 0 
L 469 0 
L 469 531 
Q 828 903 1448 1529 
Q 2069 2156 2228 2338 
Q 2531 2678 2651 2914 
Q 2772 3150 2772 3378 
Q 2772 3750 2511 3984 
Q 2250 4219 1831 4219 
Q 1534 4219 1204 4116 
Q 875 4013 500 3803 
L 500 4441 
Q 881 4594 1212 4672 
Q 1544 4750 1819 4750 
Q 2544 4750 2975 4387 
Q 3406 4025 3406 3419 
Q 3406 3131 3298 2873 
Q 3191 2616 2906 2266 
Q 2828 2175 2409 1742 
Q 1991 1309 1228 531 
z
" transform="scale(0.015625)"/>
        <path id="DejaVuSans-30" d="M 2034 4250 
Q 1547 4250 1301 3770 
Q 1056 3291 1056 2328 
Q 1056 1369 1301 889 
Q 1547 409 2034 409 
Q 2525 409 2770 889 
Q 3016 1369 3016 2328 
Q 3016 3291 2770 3770 
Q 2525 4250 2034 4250 
z
M 2034 4750 
Q 2819 4750 3233 4129 
Q 3647 3509 3647 2328 
Q 3647 1150 3233 529 
Q 2819 -91 2034 -91 
Q 1250 -91 836 529 
Q 422 1150 422 2328 
Q 422 3509 836 4129 
Q 1250 4750 2034 4750 
z
" transform="scale(0.015625)"/>
       </defs>
       <use xlink:href="#DejaVuSans-32"/>
       <use xlink:href="#DejaVuSans-30" transform="translate(63.623047 0)"/>
       <use xlink:href="#DejaVuSans-32" transform="translate(127.246094 0)"/>
       <use xlink:href="#DejaVuSans-32" transform="translate(190.869141 0)"/>
      </g>
     </g>
    </g>
    <g id="xtick_2">
     <g id="line2d_3">
      <path d="M 330.167229 320.4 
L 330.167229 43.2 
" clip-path="url(#pcba756dbf9)" style="fill: none; stroke-dasharray: 5.12,1.28,0.8,1.28; stroke-dashoffset: 0; stroke: #b0b0b0; stroke-width: 0.8"/>
     </g>
     <g id="line2d_4">
      <g>
       <use xlink:href="#md56367896f" x="330.167229" y="320.4" style="fill: #a9a9a9; stroke: #a9a9a9; stroke-width: 0.8"/>
      </g>
     </g>
     <g id="text_2">
      <!-- 2023 -->
      <g style="fill: #a9a9a9" transform="translate(317.442229 334.998438) scale(0.1 -0.1)">
       <defs>
        <path id="DejaVuSans-33" d="M 2597 2516 
Q 3050 2419 3304 2112 
Q 3559 1806 3559 1356 
Q 3559 666 3084 287 
Q 2609 -91 1734 -91 
Q 1441 -91 1130 -33 
Q 819 25 488 141 
L 488 750 
Q 750 597 1062 519 
Q 1375 441 1716 441 
Q 2309 441 2620 675 
Q 2931 909 2931 1356 
Q 2931 1769 2642 2001 
Q 2353 2234 1838 2234 
L 1294 2234 
L 1294 2753 
L 1863 2753 
Q 2328 2753 2575 2939 
Q 2822 3125 2822 3475 
Q 2822 3834 2567 4026 
Q 2313 4219 1838 4219 
Q 1578 4219 1281 4162 
Q 984 4106 628 3988 
L 628 4550 
Q 988 4650 1302 4700 
Q 1616 4750 1894 4750 
Q 2613 4750 3031 4423 
Q 3450 4097 3450 3541 
Q 3450 3153 3228 2886 
Q 3006 2619 2597 2516 
z
" transform="scale(0.015625)"/>
       </defs>
       <use xlink:href="#DejaVuSans-32"/>
       <use xlink:href="#DejaVuSans-30" transform="translate(63.623047 0)"/>
       <use xlink:href="#DejaVuSans-32" transform="translate(127.246094 0)"/>
       <use xlink:href="#DejaVuSans-33" transform="translate(190.869141 0)"/>
      </g>
     </g>
    </g>
    <g id="xtick_3">
     <g id="line2d_5">
      <path d="M 463.212412 320.4 
L 463.212412 43.2 
" clip-path="url(#pcba756dbf9)" style="fill: none; stroke-dasharray: 5.12,1.28,0.8,1.28; stroke-dashoffset: 0; stroke: #b0b0b0; stroke-width: 0.8"/>
     </g>
     <g id="line2d_6">
      <g>
       <use xlink:href="#md56367896f" x="463.212412" y="320.4" style="fill: #a9a9a9; stroke: #a9a9a9; stroke-width: 0.8"/>
      </g>
     </g>
     <g id="text_3">
      <!-- 2024 -->
      <g style="fill: #a9a9a9" transform="translate(450.487412 334.998438) scale(0.1 -0.1)">
       <defs>
        <path id="DejaVuSans-34" d="M 2419 4116 
L 825 1625 
L 2419 1625 
L 2419 4116 
z
M 2253 4666 
L 3047 4666 
L 3047 1625 
L 3713 1625 
L 3713 1100 
L 3047 1100 
L 3047 0 
L 2419 0 
L 2419 1100 
L 313 1100 
L 313 1709 
L 2253 4666 
z
" transform="scale(0.015625)"/>
       </defs>
       <use xlink:href="#DejaVuSans-32"/>
       <use xlink:href="#DejaVuSans-30" transform="translate(63.623047 0)"/>
       <use xlink:href="#DejaVuSans-32" transform="translate(127.246094 0)"/>
       <use xlink:href="#DejaVuSans-34" transform="translate(190.869141 0)"/>
      </g>
     </g>
    </g>
    <g id="xtick_4">
     <g id="line2d_7">
      <path d="M 596.622101 320.4 
L 596.622101 43.2 
" clip-path="url(#pcba756dbf9)" style="fill: none; stroke-dasharray: 5.12,1.28,0.8,1.28; stroke-dashoffset: 0; stroke: #b0b0b0; stroke-width: 0.8"/>
     </g>
     <g id="line2d_8">
      <g>
       <use xlink:href="#md56367896f" x="596.622101" y="320.4" style="fill: #a9a9a9; stroke: #a9a9a9; stroke-width: 0.8"/>
      </g>
     </g>
     <g id="text_4">
      <!-- 2025 -->
      <g style="fill: #a9a9a9" transform="translate(583.897101 334.998438) scale(0.1 -0.1)">
       <defs>
        <path id="DejaVuSans-35" d="M 691 4666 
L 3169 4666 
L 3169 4134 
L 1269 4134 
L 1269 2991 
Q 1406 3038 1543 3061 
Q 1681 3084 1819 3084 
Q 2600 3084 3056 2656 
Q 3513 2228 3513 1497 
Q 3513 744 3044 326 
Q 2575 -91 1722 -91 
Q 1428 -91 1123 -41 
Q 819 9 494 109 
L 494 744 
Q 775 591 1075 516 
Q 1375 441 1709 441 
Q 2250 441 2565 725 
Q 2881 1009 2881 1497 
Q 2881 1984 2565 2268 
Q 2250 2553 1709 2553 
Q 1456 2553 1204 2497 
Q 953 2441 691 2322 
L 691 4666 
z
" transform="scale(0.015625)"/>
       </defs>
       <use xlink:href="#DejaVuSans-32"/>
       <use xlink:href="#DejaVuSans-30" transform="translate(63.623047 0)"/>
       <use xlink:href="#DejaVuSans-32" transform="translate(127.246094 0)"/>
       <use xlink:href="#DejaVuSans-35" transform="translate(190.869141 0)"/>
      </g>
     </g>
    </g>
    <g id="xtick_5">
     <g id="line2d_9">
      <path d="M 729.667284 320.4 
L 729.667284 43.2 
" clip-path="url(#pcba756dbf9)" style="fill: none; stroke-dasharray: 5.12,1.28,0.8,1.28; stroke-dashoffset: 0; stroke: #b0b0b0; stroke-width: 0.8"/>
     </g>
     <g id="line2d_10">
      <g>
       <use xlink:href="#md56367896f" x="729.667284" y="320.4" style="fill: #a9a9a9; stroke: #a9a9a9; stroke-width: 0.8"/>
      </g>
     </g>
     <g id="text_5">
      <!-- 2026 -->
      <g style="fill: #a9a9a9" transform="translate(716.942284 334.998438) scale(0.1 -0.1)">
       <defs>
        <path id="DejaVuSans-36" d="M 2113 2584 
Q 1688 2584 1439 2293 
Q 1191 2003 1191 1497 
Q 1191 994 1439 701 
Q 1688 409 2113 409 
Q 2538 409 2786 701 
Q 3034 994 3034 1497 
Q 3034 2003 2786 2293 
Q 2538 2584 2113 2584 
z
M 3366 4563 
L 3366 3988 
Q 3128 4100 2886 4159 
Q 2644 4219 2406 4219 
Q 1781 4219 1451 3797 
Q 1122 3375 1075 2522 
Q 1259 2794 1537 2939 
Q 1816 3084 2150 3084 
Q 2853 3084 3261 2657 
Q 3669 2231 3669 1497 
Q 3669 778 3244 343 
Q 2819 -91 2113 -91 
Q 1303 -91 875 529 
Q 447 1150 447 2328 
Q 447 3434 972 4092 
Q 1497 4750 2381 4750 
Q 2619 4750 2861 4703 
Q 3103 4656 3366 4563 
z
" transform="scale(0.015625)"/>
       </defs>
       <use xlink:href="#DejaVuSans-32"/>
       <use xlink:href="#DejaVuSans-30" transform="translate(63.623047 0)"/>
       <use xlink:href="#DejaVuSans-32" transform="translate(127.246094 0)"/>
       <use xlink:href="#DejaVuSans-36" transform="translate(190.869141 0)"/>
      </g>
     </g>
    </g>
   </g>
   <g id="matplotlib.axis_2">
    <g id="ytick_1">
     <g id="line2d_11">
      <path d="M 108 307.829062 
L 777.6 307.829062 
" clip-path="url(#pcba756dbf9)" style="fill: none; stroke-dasharray: 5.12,1.28,0.8,1.28; stroke-dashoffset: 0; stroke: #b0b0b0; stroke-width: 0.8"/>
     </g>
     <g id="line2d_12">
      <defs>
       <path id="mf717b17cd2" d="M 0 0 
L -3.5 0 
" style="stroke: #a9a9a9; stroke-width: 0.8"/>
      </defs>
      <g>
       <use xlink:href="#mf717b17cd2" x="108" y="307.829062" style="fill: #a9a9a9; stroke: #a9a9a9; stroke-width: 0.8"/>
      </g>
     </g>
     <g id="text_6">
      <!-- 0 -->
      <g style="fill: #a9a9a9" transform="translate(94.6375 311.628281) scale(0.1 -0.1)">
       <use xlink:href="#DejaVuSans-30"/>
      </g>
     </g>
    </g>
    <g id="ytick_2">
     <g id="line2d_13">
      <path d="M 108 278.766671 
L 777.6 278.766671 
" clip-path="url(#pcba756dbf9)" style="fill: none; stroke-dasharray: 5.12,1.28,0.8,1.28; stroke-dashoffset: 0; stroke: #b0b0b0; stroke-width: 0.8"/>
     </g>
     <g id="line2d_14">
      <g>
       <use xlink:href="#mf717b17cd2" x="108" y="278.766671" style="fill: #a9a9a9; stroke: #a9a9a9; stroke-width: 0.8"/>
      </g>
     </g>
     <g id="text_7">
      <!-- 1000 -->
      <g style="fill: #a9a9a9" transform="translate(75.55 282.565889) scale(0.1 -0.1)">
       <defs>
        <path id="DejaVuSans-31" d="M 794 531 
L 1825 531 
L 1825 4091 
L 703 3866 
L 703 4441 
L 1819 4666 
L 2450 4666 
L 2450 531 
L 3481 531 
L 3481 0 
L 794 0 
L 794 531 
z
" transform="scale(0.015625)"/>
       </defs>
       <use xlink:href="#DejaVuSans-31"/>
       <use xlink:href="#DejaVuSans-30" transform="translate(63.623047 0)"/>
       <use xlink:href="#DejaVuSans-30" transform="translate(127.246094 0)"/>
       <use xlink:href="#DejaVuSans-30" transform="translate(190.869141 0)"/>
      </g>
     </g>
    </g>
    <g id="ytick_3">
     <g id="line2d_15">
      <path d="M 108 249.704279 
L 777.6 249.704279 
" clip-path="url(#pcba756dbf9)" style="fill: none; stroke-dasharray: 5.12,1.28,0.8,1.28; stroke-dashoffset: 0; stroke: #b0b0b0; stroke-width: 0.8"/>
     </g>
     <g id="line2d_16">
      <g>
       <use xlink:href="#mf717b17cd2" x="108" y="249.704279" style="fill: #a9a9a9; stroke: #a9a9a9; stroke-width: 0.8"/>
      </g>
     </g>
     <g id="text_8">
      <!-- 2000 -->
      <g style="fill: #a9a9a9" transform="translate(75.55 253.503497) scale(0.1 -0.1)">
       <use xlink:href="#DejaVuSans-32"/>
       <use xlink:href="#DejaVuSans-30" transform="translate(63.623047 0)"/>
       <use xlink:href="#DejaVuSans-30" transform="translate(127.246094 0)"/>
       <use xlink:href="#DejaVuSans-30" transform="translate(190.869141 0)"/>
      </g>
     </g>
    </g>
    <g id="ytick_4">
     <g id="line2d_17">
      <path d="M 108 220.641887 
L 777.6 220.641887 
" clip-path="url(#pcba756dbf9)" style="fill: none; stroke-dasharray: 5.12,1.28,0.8,1.28; stroke-dashoffset: 0; stroke: #b0b0b0; stroke-width: 0.8"/>
     </g>
     <g id="line2d_18">
      <g>
       <use xlink:href="#mf717b17cd2" x="108" y="220.641887" style="fill: #a9a9a9; stroke: #a9a9a9; stroke-width: 0.8"/>
      </g>
     </g>
     <g id="text_9">
      <!-- 3000 -->
      <g style="fill: #a9a9a9" transform="translate(75.55 224.441105) scale(0.1 -0.1)">
       <use xlink:href="#DejaVuSans-33"/>
       <use xlink:href="#DejaVuSans-30" transform="translate(63.623047 0)"/>
       <use xlink:href="#DejaVuSans-30" transform="translate(127.246094 0)"/>
       <use xlink:href="#DejaVuSans-30" transform="translate(190.869141 0)"/>
      </g>
     </g>
    </g>
    <g id="ytick_5">
     <g id="line2d_19">
      <path d="M 108 191.579495 
L 777.6 191.579495 
" clip-path="url(#pcba756dbf9)" style="fill: none; stroke-dasharray: 5.12,1.28,0.8,1.28; stroke-dashoffset: 0; stroke: #b0b0b0; stroke-width: 0.8"/>
     </g>
     <g id="line2d_20">
      <g>
       <use xlink:href="#mf717b17cd2" x="108" y="191.579495" style="fill: #a9a9a9; stroke: #a9a9a9; stroke-width: 0.8"/>
      </g>
     </g>
     <g id="text_10">
      <!-- 4000 -->
      <g style="fill: #a9a9a9" transform="translate(75.55 195.378714) scale(0.1 -0.1)">
       <use xlink:href="#DejaVuSans-34"/>
       <use xlink:href="#DejaVuSans-30" transform="translate(63.623047 0)"/>
       <use xlink:href="#DejaVuSans-30" transform="translate(127.246094 0)"/>
       <use xlink:href="#DejaVuSans-30" transform="translate(190.869141 0)"/>
      </g>
     </g>
    </g>
    <g id="ytick_6">
     <g id="line2d_21">
      <path d="M 108 162.517103 
L 777.6 162.517103 
" clip-path="url(#pcba756dbf9)" style="fill: none; stroke-dasharray: 5.12,1.28,0.8,1.28; stroke-dashoffset: 0; stroke: #b0b0b0; stroke-width: 0.8"/>
     </g>
     <g id="line2d_22">
      <g>
       <use xlink:href="#mf717b17cd2" x="108" y="162.517103" style="fill: #a9a9a9; stroke: #a9a9a9; stroke-width: 0.8"/>
      </g>
     </g>
     <g id="text_11">
      <!-- 5000 -->
      <g style="fill: #a9a9a9" transform="translate(75.55 166.316322) scale(0.1 -0.1)">
       <use xlink:href="#DejaVuSans-35"/>
       <use xlink:href="#DejaVuSans-30" transform="translate(63.623047 0)"/>
       <use xlink:href="#DejaVuSans-30" transform="translate(127.246094 0)"/>
       <use xlink:href="#DejaVuSans-30" transform="translate(190.869141 0)"/>
      </g>
     </g>
    </g>
    <g id="ytick_7">
     <g id="line2d_23">
      <path d="M 108 133.454711 
L 777.6 133.454711 
" clip-path="url(#pcba756dbf9)" style="fill: none; stroke-dasharray: 5.12,1.28,0.8,1.28; stroke-dashoffset: 0; stroke: #b0b0b0; stroke-width: 0.8"/>
     </g>
     <g id="line2d_24">
      <g>
       <use xlink:href="#mf717b17cd2" x="108" y="133.454711" style="fill: #a9a9a9; stroke: #a9a9a9; stroke-width: 0.8"/>
      </g>
     </g>
     <g id="text_12">
      <!-- 6000 -->
      <g style="fill: #a9a9a9" transform="translate(75.55 137.25393) scale(0.1 -0.1)">
       <use xlink:href="#DejaVuSans-36"/>
       <use xlink:href="#DejaVuSans-30" transform="translate(63.623047 0)"/>
       <use xlink:href="#DejaVuSans-30" transform="translate(127.246094 0)"/>
       <use xlink:href="#DejaVuSans-30" transform="translate(190.869141 0)"/>
      </g>
     </g>
    </g>
    <g id="ytick_8">
     <g id="line2d_25">
      <path d="M 108 104.392319 
L 777.6 104.392319 
" clip-path="url(#pcba756dbf9)" style="fill: none; stroke-dasharray: 5.12,1.28,0.8,1.28; stroke-dashoffset: 0; stroke: #b0b0b0; stroke-width: 0.8"/>
     </g>
     <g id="line2d_26">
      <g>
       <use xlink:href="#mf717b17cd2" x="108" y="104.392319" style="fill: #a9a9a9; stroke: #a9a9a9; stroke-width: 0.8"/>
      </g>
     </g>
     <g id="text_13">
      <!-- 7000 -->
      <g style="fill: #a9a9a9" transform="translate(75.55 108.191538) scale(0.1 -0.1)">
       <defs>
        <path id="DejaVuSans-37" d="M 525 4666 
L 3525 4666 
L 3525 4397 
L 1831 0 
L 1172 0 
L 2766 4134 
L 525 4134 
L 525 4666 
z
" transform="scale(0.015625)"/>
       </defs>
       <use xlink:href="#DejaVuSans-37"/>
       <use xlink:href="#DejaVuSans-30" transform="translate(63.623047 0)"/>
       <use xlink:href="#DejaVuSans-30" transform="translate(127.246094 0)"/>
       <use xlink:href="#DejaVuSans-30" transform="translate(190.869141 0)"/>
      </g>
     </g>
    </g>
    <g id="ytick_9">
     <g id="line2d_27">
      <path d="M 108 75.329927 
L 777.6 75.329927 
" clip-path="url(#pcba756dbf9)" style="fill: none; stroke-dasharray: 5.12,1.28,0.8,1.28; stroke-dashoffset: 0; stroke: #b0b0b0; stroke-width: 0.8"/>
     </g>
     <g id="line2d_28">
      <g>
       <use xlink:href="#mf717b17cd2" x="108" y="75.329927" style="fill: #a9a9a9; stroke: #a9a9a9; stroke-width: 0.8"/>
      </g>
     </g>
     <g id="text_14">
      <!-- 8000 -->
      <g style="fill: #a9a9a9" transform="translate(75.55 79.129146) scale(0.1 -0.1)">
       <defs>
        <path id="DejaVuSans-38" d="M 2034 2216 
Q 1584 2216 1326 1975 
Q 1069 1734 1069 1313 
Q 1069 891 1326 650 
Q 1584 409 2034 409 
Q 2484 409 2743 651 
Q 3003 894 3003 1313 
Q 3003 1734 2745 1975 
Q 2488 2216 2034 2216 
z
M 1403 2484 
Q 997 2584 770 2862 
Q 544 3141 544 3541 
Q 544 4100 942 4425 
Q 1341 4750 2034 4750 
Q 2731 4750 3128 4425 
Q 3525 4100 3525 3541 
Q 3525 3141 3298 2862 
Q 3072 2584 2669 2484 
Q 3125 2378 3379 2068 
Q 3634 1759 3634 1313 
Q 3634 634 3220 271 
Q 2806 -91 2034 -91 
Q 1263 -91 848 271 
Q 434 634 434 1313 
Q 434 1759 690 2068 
Q 947 2378 1403 2484 
z
M 1172 3481 
Q 1172 3119 1398 2916 
Q 1625 2713 2034 2713 
Q 2441 2713 2670 2916 
Q 2900 3119 2900 3481 
Q 2900 3844 2670 4047 
Q 2441 4250 2034 4250 
Q 1625 4250 1398 4047 
Q 1172 3844 1172 3481 
z
" transform="scale(0.015625)"/>
       </defs>
       <use xlink:href="#DejaVuSans-38"/>
       <use xlink:href="#DejaVuSans-30" transform="translate(63.623047 0)"/>
       <use xlink:href="#DejaVuSans-30" transform="translate(127.246094 0)"/>
       <use xlink:href="#DejaVuSans-30" transform="translate(190.869141 0)"/>
      </g>
     </g>
    </g>
    <g id="ytick_10">
     <g id="line2d_29">
      <path d="M 108 46.267535 
L 777.6 46.267535 
" clip-path="url(#pcba756dbf9)" style="fill: none; stroke-dasharray: 5.12,1.28,0.8,1.28; stroke-dashoffset: 0; stroke: #b0b0b0; stroke-width: 0.8"/>
     </g>
     <g id="line2d_30">
      <g>
       <use xlink:href="#mf717b17cd2" x="108" y="46.267535" style="fill: #a9a9a9; stroke: #a9a9a9; stroke-width: 0.8"/>
      </g>
     </g>
     <g id="text_15">
      <!-- 9000 -->
      <g style="fill: #a9a9a9" transform="translate(75.55 50.066754) scale(0.1 -0.1)">
       <defs>
        <path id="DejaVuSans-39" d="M 703 97 
L 703 672 
Q 941 559 1184 500 
Q 1428 441 1663 441 
Q 2288 441 2617 861 
Q 2947 1281 2994 2138 
Q 2813 1869 2534 1725 
Q 2256 1581 1919 1581 
Q 1219 1581 811 2004 
Q 403 2428 403 3163 
Q 403 3881 828 4315 
Q 1253 4750 1959 4750 
Q 2769 4750 3195 4129 
Q 3622 3509 3622 2328 
Q 3622 1225 3098 567 
Q 2575 -91 1691 -91 
Q 1453 -91 1209 -44 
Q 966 3 703 97 
z
M 1959 2075 
Q 2384 2075 2632 2365 
Q 2881 2656 2881 3163 
Q 2881 3666 2632 3958 
Q 2384 4250 1959 4250 
Q 1534 4250 1286 3958 
Q 1038 3666 1038 3163 
Q 1038 2656 1286 2365 
Q 1534 2075 1959 2075 
z
" transform="scale(0.015625)"/>
       </defs>
       <use xlink:href="#DejaVuSans-39"/>
       <use xlink:href="#DejaVuSans-30" transform="translate(63.623047 0)"/>
       <use xlink:href="#DejaVuSans-30" transform="translate(127.246094 0)"/>
       <use xlink:href="#DejaVuSans-30" transform="translate(190.869141 0)"/>
      </g>
     </g>
    </g>
   </g>
   <g id="line2d_31">
    <path d="M 138.436364 307.741875 
L 140.623408 307.538438 
L 140.987915 307.364064 
L 142.445944 307.160627 
L 143.903974 306.840941 
L 144.632989 306.724692 
L 146.455525 306.550317 
L 147.18454 306.259693 
L 147.549047 305.73657 
L 147.913555 305.475009 
L 148.278062 304.603137 
L 148.642569 304.545012 
L 149.371584 304.080014 
L 150.100599 303.527828 
L 151.558628 302.423458 
L 151.923136 302.278146 
L 152.65215 301.813147 
L 153.745672 301.260962 
L 154.11018 300.621589 
L 154.839194 300.040341 
L 155.568209 299.807842 
L 156.661731 299.633468 
L 158.848775 299.284719 
L 159.213283 299.110345 
L 161.764834 298.877846 
L 163.222863 298.500035 
L 166.138922 298.064099 
L 166.50343 297.860662 
L 166.867937 297.802537 
L 167.596952 297.540976 
L 170.148503 297.075977 
L 170.877518 296.843478 
L 174.158084 296.26223 
L 174.887099 296.087856 
L 176.345128 295.884419 
L 177.074143 295.65192 
L 177.43865 295.099735 
L 178.532172 294.634736 
L 179.625694 294.31505 
L 179.990201 294.111613 
L 180.719216 293.966301 
L 182.541753 293.501303 
L 183.635275 293.239742 
L 185.093304 292.861931 
L 185.457812 292.832868 
L 186.186826 292.455057 
L 186.551334 292.396932 
L 186.915841 292.193496 
L 190.925422 291.495998 
L 192.383451 291.031 
L 192.747959 290.769438 
L 194.570495 290.130066 
L 195.29951 289.57788 
L 196.393032 289.345381 
L 204.412194 286.846015 
L 204.776701 286.816953 
L 205.870223 286.468204 
L 206.234731 286.468204 
L 206.599238 286.29383 
L 207.328253 286.206643 
L 207.69276 286.061331 
L 209.515297 285.974144 
L 209.879804 285.886957 
L 210.608819 285.480083 
L 211.702341 285.07321 
L 212.431355 284.666336 
L 213.524878 284.172275 
L 214.982907 283.416653 
L 215.347414 283.00978 
L 216.076429 281.789159 
L 217.169951 281.440411 
L 217.534458 281.149787 
L 218.62798 280.742913 
L 218.992488 280.365102 
L 220.08601 279.900104 
L 220.450517 279.696667 
L 222.637561 277.051989 
L 223.366576 276.703241 
L 224.824605 275.656995 
L 225.55362 275.133872 
L 225.918127 274.581686 
L 226.282635 273.680752 
L 226.647142 273.099504 
L 230.292216 269.757329 
L 231.02123 269.030769 
L 232.47926 268.042648 
L 232.843767 267.693899 
L 233.572782 267.4614 
L 234.666304 266.792965 
L 235.759826 266.00828 
L 237.217855 264.584223 
L 237.94687 264.264537 
L 238.675885 263.741414 
L 239.040392 263.508915 
L 239.404899 263.45079 
L 240.498421 262.782355 
L 240.862929 262.346419 
L 242.685465 261.271111 
L 243.049973 261.125799 
L 244.143495 260.312052 
L 249.611105 258.219559 
L 250.34012 257.493 
L 251.433642 256.911752 
L 252.162657 256.417691 
L 252.891671 256.185192 
L 253.256179 255.92363 
L 253.620686 255.807381 
L 254.714208 255.022696 
L 256.536745 254.58676 
L 257.630267 253.889263 
L 258.723789 253.627702 
L 259.088296 253.540514 
L 260.181818 252.726767 
L 261.639848 252.290832 
L 262.004355 252.000208 
L 264.191399 251.186461 
L 264.920414 251.041149 
L 265.649428 250.721462 
L 268.20098 249.733341 
L 268.929995 249.646154 
L 270.388024 249.064906 
L 274.397605 246.943351 
L 275.126619 246.594603 
L 275.855634 246.245854 
L 276.584649 246.100542 
L 277.313664 245.635544 
L 278.042678 245.432107 
L 279.1362 244.967109 
L 280.59423 244.763672 
L 281.323244 244.356799 
L 281.687752 244.00805 
L 282.052259 243.310552 
L 283.510289 242.874617 
L 284.968318 242.177119 
L 288.248884 240.636812 
L 288.977899 240.462438 
L 290.071421 239.88119 
L 290.435928 239.823065 
L 292.258465 238.864006 
L 292.98748 238.369946 
L 294.081002 238.137447 
L 297.361568 236.974951 
L 298.819597 236.335578 
L 299.184105 236.044954 
L 299.913119 235.638081 
L 300.642134 235.347457 
L 301.006641 235.26027 
L 302.464671 234.475585 
L 302.829178 234.068712 
L 303.193685 233.836213 
L 303.558193 233.749025 
L 304.287207 233.109653 
L 304.651715 233.051528 
L 305.016222 232.412155 
L 305.380729 232.266844 
L 305.745237 231.947157 
L 306.109744 231.889032 
L 306.838759 231.394972 
L 307.567774 231.13341 
L 307.932281 230.842786 
L 308.661296 230.435913 
L 310.119325 229.505916 
L 312.306369 228.488733 
L 312.670876 227.820298 
L 313.399891 227.23905 
L 313.764398 227.151863 
L 315.951443 226.047492 
L 316.680457 225.727805 
L 317.409472 225.17562 
L 318.138487 224.390935 
L 319.961023 222.966878 
L 320.690038 222.356568 
L 321.054545 222.182194 
L 321.78356 221.397509 
L 322.877082 220.874386 
L 323.606097 220.43845 
L 323.970604 220.3222 
L 324.335112 220.031577 
L 324.699619 219.973452 
L 327.980185 218.229708 
L 328.7092 218.026271 
L 330.167229 217.503148 
L 330.896244 217.009088 
L 332.354273 216.456902 
L 333.083288 215.962842 
L 333.812303 215.672218 
L 334.541317 215.120032 
L 335.270332 213.579726 
L 335.999347 212.707854 
L 337.092869 212.097544 
L 337.821884 211.777857 
L 338.186391 211.719732 
L 338.915406 211.370984 
L 340.737942 210.702549 
L 341.466957 210.208488 
L 342.560479 209.74349 
L 344.018508 208.842556 
L 344.383016 208.580994 
L 344.747523 208.145058 
L 345.841045 207.476623 
L 346.205553 207.331311 
L 346.934567 206.866313 
L 348.392597 206.023504 
L 348.757104 205.936316 
L 349.121611 205.645693 
L 351.673163 204.773821 
L 352.03767 204.512259 
L 352.766685 204.27976 
L 355.682744 202.826641 
L 356.411758 202.419767 
L 356.776266 202.245393 
L 357.50528 201.635082 
L 358.234295 201.431646 
L 358.598802 201.082897 
L 358.96331 201.024772 
L 359.692324 200.443524 
L 361.514861 199.310091 
L 362.243876 199.077592 
L 362.608383 198.845093 
L 362.972891 198.786968 
L 365.159935 197.827909 
L 369.534023 196.432914 
L 370.627545 195.64823 
L 371.35656 195.241356 
L 372.814589 194.514796 
L 373.908111 193.759174 
L 374.637126 193.5848 
L 375.730648 192.887303 
L 379.011214 191.724807 
L 379.740229 191.463245 
L 381.198258 191.143559 
L 381.927273 190.91106 
L 383.749809 190.271687 
L 384.843332 189.922939 
L 385.572346 189.748564 
L 387.75939 189.341691 
L 388.488405 189.196379 
L 389.581927 188.934817 
L 389.946434 188.760443 
L 390.675449 188.615131 
L 391.404464 188.411694 
L 392.133478 188.062945 
L 392.497986 187.917633 
L 392.862493 187.917633 
L 398.330103 186.115765 
L 398.694611 185.708892 
L 400.881655 184.749833 
L 402.339684 184.22671 
L 402.704192 183.994211 
L 403.797714 183.645462 
L 405.255743 183.093276 
L 405.62025 182.77359 
L 406.713772 182.541091 
L 407.442787 182.192342 
L 407.807295 181.727344 
L 411.816875 180.797347 
L 412.181383 180.797347 
L 412.910397 180.564848 
L 416.190964 179.722039 
L 416.919978 179.547665 
L 423.481111 177.367985 
L 423.845618 177.106424 
L 424.574633 176.873925 
L 427.490691 175.827678 
L 428.219706 175.769554 
L 429.677735 175.333618 
L 430.042243 175.101119 
L 430.771257 174.86862 
L 432.958302 173.938623 
L 437.33239 172.311129 
L 440.612956 171.235821 
L 442.070985 169.986138 
L 444.622537 168.852704 
L 447.174088 167.719271 
L 447.903103 167.515834 
L 451.183669 165.859278 
L 451.912684 165.423342 
L 455.19325 163.795848 
L 455.557757 163.505224 
L 457.380294 162.807727 
L 459.931845 161.848668 
L 460.66086 161.761481 
L 461.025367 161.499919 
L 462.483397 161.209295 
L 463.212412 160.889609 
L 465.034948 159.988675 
L 469.773544 157.808996 
L 470.867066 157.431184 
L 471.231573 157.169623 
L 471.960588 157.082436 
L 472.325095 156.820874 
L 473.05411 156.704625 
L 477.792705 154.931819 
L 478.886228 154.670257 
L 480.344257 154.030885 
L 481.073272 153.624011 
L 482.531301 152.839326 
L 483.260316 152.664952 
L 483.624823 152.432453 
L 483.98933 152.345266 
L 485.811867 151.415269 
L 490.550463 149.584339 
L 490.91497 149.526214 
L 492.372999 148.799654 
L 493.102014 148.654342 
L 493.831029 148.218406 
L 495.289058 147.491846 
L 501.850191 144.905294 
L 503.30822 143.626548 
L 504.401742 143.190612 
L 506.953293 141.911867 
L 507.317801 141.650306 
L 508.046815 141.446869 
L 508.77583 141.039995 
L 509.869352 140.778434 
L 515.70147 138.337193 
L 517.524007 137.581571 
L 519.346543 137.000323 
L 520.440065 136.273763 
L 520.804573 136.186576 
L 521.533587 135.808765 
L 522.262602 135.576266 
L 522.627109 135.227517 
L 523.720631 134.791581 
L 524.085139 134.733456 
L 525.543168 134.035959 
L 526.63669 133.68721 
L 527.730212 133.280337 
L 528.823734 132.96065 
L 529.188242 132.902526 
L 529.917256 132.495652 
L 530.281764 132.35034 
L 530.646271 132.059716 
L 531.739793 131.769092 
L 532.468808 131.478468 
L 533.197823 131.158782 
L 534.655852 130.548472 
L 537.207403 129.909099 
L 537.936418 129.618475 
L 539.394447 129.327851 
L 540.123462 129.182539 
L 541.216984 128.746604 
L 542.310506 128.514104 
L 544.49755 127.177234 
L 545.591072 126.508799 
L 547.778116 125.811302 
L 548.142624 125.520678 
L 551.058683 124.474432 
L 552.152205 124.125683 
L 552.881219 123.71881 
L 553.610234 123.515373 
L 553.974741 123.311936 
L 554.703756 123.166624 
L 556.526293 122.323815 
L 557.255308 122.033191 
L 558.713337 121.451943 
L 559.077844 121.103195 
L 559.442352 121.04507 
L 560.900381 120.43476 
L 562.35841 120.056948 
L 562.722918 120.027886 
L 563.087425 119.853512 
L 563.81644 119.7082 
L 567.097006 118.691016 
L 567.826021 118.109768 
L 569.28405 117.266959 
L 569.648557 117.179772 
L 570.013065 116.976335 
L 570.377572 116.91821 
L 573.658138 115.290716 
L 574.022646 114.97103 
L 575.845182 114.535094 
L 576.938704 114.041033 
L 577.667719 113.837597 
L 578.032226 113.663222 
L 578.396734 113.343536 
L 580.948285 112.413539 
L 582.041807 111.919479 
L 582.406315 111.890416 
L 583.135329 111.599792 
L 584.593359 110.96042 
L 586.780403 110.408234 
L 587.873925 109.914174 
L 591.154491 108.838865 
L 591.883506 108.431992 
L 604.276756 104.595756 
L 605.00577 104.392319 
L 606.099292 103.985446 
L 606.4638 103.985446 
L 607.557322 103.723884 
L 608.286336 103.578572 
L 609.015351 103.375136 
L 610.108873 102.793888 
L 611.202395 102.445139 
L 613.753947 101.573267 
L 615.211976 100.817645 
L 617.763527 99.945773 
L 618.128035 99.626087 
L 618.85705 99.393588 
L 619.221557 99.161089 
L 619.950572 99.073902 
L 622.502123 98.347342 
L 623.595645 98.114843 
L 626.511704 97.068596 
L 631.250299 95.237666 
L 631.979314 95.121416 
L 632.708329 94.976104 
L 633.072836 94.976104 
L 634.166358 94.627356 
L 635.25988 94.278607 
L 638.540446 93.34861 
L 638.904954 93.319548 
L 640.72749 92.709238 
L 642.18552 92.418614 
L 643.279042 91.895491 
L 644.372564 91.633929 
L 645.101579 91.314243 
L 647.288623 90.529558 
L 647.65313 90.471434 
L 648.382145 90.209872 
L 652.756233 89.076439 
L 654.943277 88.320817 
L 655.672292 88.262692 
L 657.859336 87.710506 
L 658.588351 87.39082 
L 658.952858 87.332695 
L 659.317365 87.158321 
L 660.04638 86.518948 
L 663.691453 85.182078 
L 665.878498 84.60083 
L 666.607512 84.193957 
L 666.97202 84.10677 
L 668.065542 83.496459 
L 668.430049 83.409272 
L 668.794556 83.118648 
L 669.888078 82.798962 
L 675.355689 80.270534 
L 677.178225 79.631161 
L 677.542733 79.311475 
L 677.90724 79.224288 
L 678.636255 78.75929 
L 679.729777 78.439603 
L 681.187806 77.829293 
L 681.552314 77.800231 
L 683.37485 77.102733 
L 684.103865 76.957421 
L 684.83288 76.434298 
L 685.197387 76.434298 
L 686.655416 75.911175 
L 688.113446 75.620551 
L 689.571475 74.981179 
L 689.935983 74.981179 
L 691.029505 74.603368 
L 691.758519 74.487118 
L 692.852041 73.847745 
L 693.581056 73.469934 
L 696.497115 72.423688 
L 697.22613 72.191189 
L 699.048666 71.84244 
L 704.880784 70.069634 
L 705.245291 70.01151 
L 705.974306 69.720886 
L 707.432335 69.401199 
L 710.348394 68.325891 
L 711.077409 68.180579 
L 712.535438 67.919017 
L 713.264453 67.802768 
L 714.722482 67.22152 
L 715.451497 67.018083 
L 716.180512 66.901834 
L 717.638541 66.436835 
L 718.003048 66.436835 
L 718.367556 66.146212 
L 719.09657 65.913712 
L 719.461078 65.913712 
L 723.106151 64.634967 
L 724.199673 64.169969 
L 724.564181 64.111844 
L 725.293195 63.763095 
L 726.02221 63.443409 
L 726.751225 63.123723 
L 727.48024 62.833099 
L 727.844747 62.629662 
L 728.209254 62.571537 
L 728.938269 62.222789 
L 730.031791 61.75779 
L 731.854328 60.973106 
L 732.218835 60.740607 
L 732.583342 60.653419 
L 732.94785 60.42092 
L 733.312357 60.362796 
L 734.041372 59.897797 
L 736.228416 59.374674 
L 736.957431 58.967801 
L 737.321938 58.909676 
L 738.779967 58.328428 
L 744.247578 56.264998 
L 745.705607 55.91625 
L 747.163636 55.8 
L 747.163636 55.8 
" clip-path="url(#pcba756dbf9)" style="fill: none; stroke: #1f77b4; stroke-width: 1.5; stroke-linecap: square"/>
   </g>
   <g id="line2d_32">
    <path d="M 138.800871 307.8 
L 142.081437 307.712813 
L 144.997496 307.567501 
L 146.455525 307.567501 
L 147.18454 307.451251 
L 156.297224 306.811879 
L 158.848775 306.724692 
L 160.671312 306.666567 
L 165.409907 306.57938 
L 167.232444 306.521255 
L 170.51301 306.434068 
L 171.97104 306.405005 
L 175.616113 306.317818 
L 177.074143 306.172506 
L 178.532172 306.143444 
L 180.719216 306.056256 
L 182.177246 306.027194 
L 183.999782 305.969069 
L 185.457812 305.823757 
L 188.738378 305.73657 
L 189.467392 305.678445 
L 190.925422 305.591258 
L 193.112466 305.504071 
L 194.570495 305.416884 
L 201.131628 304.980948 
L 203.683179 304.893761 
L 204.776701 304.777511 
L 206.599238 304.690324 
L 210.244311 304.486887 
L 213.889385 304.428763 
L 215.347414 304.254388 
L 217.169951 304.167201 
L 220.815024 303.78939 
L 223.002069 303.498766 
L 224.460098 303.440641 
L 227.376157 303.033768 
L 229.563201 302.975643 
L 230.656723 302.859393 
L 231.750245 302.772206 
L 250.704627 301.348149 
L 253.256179 301.260962 
L 254.714208 301.086587 
L 256.536745 300.9994 
L 258.723789 300.912213 
L 260.546326 300.825026 
L 262.004355 300.795964 
L 263.826892 300.737839 
L 264.555906 300.650652 
L 269.659009 300.563464 
L 270.388024 300.476277 
L 274.762112 300.38909 
L 278.042678 300.214716 
L 280.59423 300.127529 
L 282.052259 299.953154 
L 284.603811 299.865967 
L 285.332825 299.749717 
L 287.155362 299.691593 
L 290.800435 299.633468 
L 292.258465 299.488156 
L 293.716494 299.459094 
L 294.810016 299.371906 
L 296.268046 299.226594 
L 299.913119 299.023158 
L 303.558193 298.93597 
L 306.838759 298.761596 
L 307.932281 298.732534 
L 308.661296 298.616284 
L 310.483832 298.529097 
L 311.212847 298.470972 
L 313.035384 298.383785 
L 314.493413 298.354723 
L 317.044965 298.267535 
L 326.522156 297.5991 
L 328.7092 297.511913 
L 330.531737 297.453788 
L 335.634839 297.366601 
L 336.363854 297.279414 
L 341.466957 297.192227 
L 345.11203 296.98879 
L 345.841045 296.959728 
L 346.57006 296.872541 
L 348.392597 296.785353 
L 350.215133 296.727229 
L 352.03767 296.640042 
L 353.860207 296.581917 
L 357.140773 296.49473 
L 359.327817 296.407542 
L 364.43092 296.320355 
L 368.440501 296.087856 
L 369.89853 296.029731 
L 370.992052 295.942544 
L 376.095155 295.855357 
L 378.282199 295.76817 
L 384.843332 295.680983 
L 386.301361 295.65192 
L 390.675449 295.593795 
L 391.404464 295.535671 
L 396.507567 295.448483 
L 397.965596 295.419421 
L 407.442787 295.332234 
L 409.629831 295.245047 
L 424.93914 295.15786 
L 426.761677 295.099735 
L 437.33239 295.012548 
L 441.341971 294.780048 
L 443.529015 294.692861 
L 445.716059 294.605674 
L 449.361132 294.518487 
L 451.912684 294.402237 
L 454.828743 294.31505 
L 457.744801 294.169738 
L 464.670441 294.082551 
L 466.857485 293.995364 
L 470.867066 293.908177 
L 473.418617 293.791927 
L 475.970169 293.733802 
L 476.699183 293.675678 
L 485.44736 293.58849 
L 489.092433 293.385054 
L 491.643985 293.297866 
L 495.653566 293.065367 
L 500.027654 292.97818 
L 501.485683 292.949118 
L 502.214698 292.890993 
L 504.037235 292.687556 
L 507.682308 292.600369 
L 508.411323 292.513182 
L 512.056396 292.425995 
L 513.878933 292.36787 
L 517.888514 292.338808 
L 518.617529 292.25162 
L 522.627109 292.164433 
L 523.356124 292.106308 
L 531.375286 292.019121 
L 533.56233 291.931934 
L 539.02994 291.844747 
L 540.48797 291.815684 
L 543.768536 291.75756 
L 544.49755 291.670373 
L 549.236146 291.583185 
L 551.058683 291.525061 
L 557.619815 291.437873 
L 558.713337 291.350686 
L 559.806859 291.263499 
L 560.900381 291.176312 
L 566.367991 291.089125 
L 568.555035 291.001937 
L 579.125749 290.91475 
L 582.406315 290.740376 
L 587.509418 290.653189 
L 588.967447 290.624126 
L 593.341535 290.536939 
L 595.164072 290.478814 
L 603.547741 290.391627 
L 605.734785 290.30444 
L 611.93141 290.217253 
L 613.389439 290.188191 
L 617.034513 290.101003 
L 619.586064 289.984754 
L 623.595645 289.897567 
L 626.147197 289.781317 
L 629.427763 289.723192 
L 630.156777 289.665067 
L 638.175939 289.57788 
L 640.362983 289.490693 
L 642.914535 289.403506 
L 644.737071 289.345381 
L 655.307784 289.258194 
L 657.494829 289.171007 
L 663.691453 289.08382 
L 665.51399 289.025695 
L 670.252586 288.938508 
L 672.43963 288.85132 
L 675.355689 288.764133 
L 677.542733 288.676946 
L 692.123027 288.589759 
L 695.039085 288.444447 
L 703.422754 288.35726 
L 704.880784 288.328197 
L 713.62896 288.24101 
L 715.451497 288.182885 
L 727.115732 288.095698 
L 728.573762 288.066636 
L 739.508982 287.979449 
L 740.237997 287.921324 
L 747.163636 287.892262 
L 747.163636 287.892262 
" clip-path="url(#pcba756dbf9)" style="fill: none; stroke: #ff7f0e; stroke-width: 1.5; stroke-linecap: square"/>
   </g>
   <g id="patch_3">
    <path d="M 108 320.4 
L 108 43.2 
" style="fill: none; stroke: #a9a9a9; stroke-width: 0.8; stroke-linejoin: miter; stroke-linecap: square"/>
   </g>
   <g id="patch_4">
    <path d="M 777.6 320.4 
L 777.6 43.2 
" style="fill: none"/>
   </g>
   <g id="patch_5">
    <path d="M 108 320.4 
L 777.6 320.4 
" style="fill: none; stroke: #a9a9a9; stroke-width: 0.8; stroke-linejoin: miter; stroke-linecap: square"/>
   </g>
   <g id="patch_6">
    <path d="M 108 43.2 
L 777.6 43.2 
" style="fill: none"/>
   </g>
   <g id="text_16">
    <!-- get_subscribe history -->
    <g style="fill: #a9a9a9" transform="translate(378.6075 37.2) scale(0.12 -0.12)">
     <defs>
      <path id="DejaVuSans-67" d="M 2906 1791 
Q 2906 2416 2648 2759 
Q 2391 3103 1925 3103 
Q 1463 3103 1205 2759 
Q 947 2416 947 1791 
Q 947 1169 1205 825 
Q 1463 481 1925 481 
Q 2391 481 2648 825 
Q 2906 1169 2906 1791 
z
M 3481 434 
Q 3481 -459 3084 -895 
Q 2688 -1331 1869 -1331 
Q 1566 -1331 1297 -1286 
Q 1028 -1241 775 -1147 
L 775 -588 
Q 1028 -725 1275 -790 
Q 1522 -856 1778 -856 
Q 2344 -856 2625 -561 
Q 2906 -266 2906 331 
L 2906 616 
Q 2728 306 2450 153 
Q 2172 0 1784 0 
Q 1141 0 747 490 
Q 353 981 353 1791 
Q 353 2603 747 3093 
Q 1141 3584 1784 3584 
Q 2172 3584 2450 3431 
Q 2728 3278 2906 2969 
L 2906 3500 
L 3481 3500 
L 3481 434 
z
" transform="scale(0.015625)"/>
      <path id="DejaVuSans-65" d="M 3597 1894 
L 3597 1613 
L 953 1613 
Q 991 1019 1311 708 
Q 1631 397 2203 397 
Q 2534 397 2845 478 
Q 3156 559 3463 722 
L 3463 178 
Q 3153 47 2828 -22 
Q 2503 -91 2169 -91 
Q 1331 -91 842 396 
Q 353 884 353 1716 
Q 353 2575 817 3079 
Q 1281 3584 2069 3584 
Q 2775 3584 3186 3129 
Q 3597 2675 3597 1894 
z
M 3022 2063 
Q 3016 2534 2758 2815 
Q 2500 3097 2075 3097 
Q 1594 3097 1305 2825 
Q 1016 2553 972 2059 
L 3022 2063 
z
" transform="scale(0.015625)"/>
      <path id="DejaVuSans-74" d="M 1172 4494 
L 1172 3500 
L 2356 3500 
L 2356 3053 
L 1172 3053 
L 1172 1153 
Q 1172 725 1289 603 
Q 1406 481 1766 481 
L 2356 481 
L 2356 0 
L 1766 0 
Q 1100 0 847 248 
Q 594 497 594 1153 
L 594 3053 
L 172 3053 
L 172 3500 
L 594 3500 
L 594 4494 
L 1172 4494 
z
" transform="scale(0.015625)"/>
      <path id="DejaVuSans-5f" d="M 3263 -1063 
L 3263 -1509 
L -63 -1509 
L -63 -1063 
L 3263 -1063 
z
" transform="scale(0.015625)"/>
      <path id="DejaVuSans-73" d="M 2834 3397 
L 2834 2853 
Q 2591 2978 2328 3040 
Q 2066 3103 1784 3103 
Q 1356 3103 1142 2972 
Q 928 2841 928 2578 
Q 928 2378 1081 2264 
Q 1234 2150 1697 2047 
L 1894 2003 
Q 2506 1872 2764 1633 
Q 3022 1394 3022 966 
Q 3022 478 2636 193 
Q 2250 -91 1575 -91 
Q 1294 -91 989 -36 
Q 684 19 347 128 
L 347 722 
Q 666 556 975 473 
Q 1284 391 1588 391 
Q 1994 391 2212 530 
Q 2431 669 2431 922 
Q 2431 1156 2273 1281 
Q 2116 1406 1581 1522 
L 1381 1569 
Q 847 1681 609 1914 
Q 372 2147 372 2553 
Q 372 3047 722 3315 
Q 1072 3584 1716 3584 
Q 2034 3584 2315 3537 
Q 2597 3491 2834 3397 
z
" transform="scale(0.015625)"/>
      <path id="DejaVuSans-75" d="M 544 1381 
L 544 3500 
L 1119 3500 
L 1119 1403 
Q 1119 906 1312 657 
Q 1506 409 1894 409 
Q 2359 409 2629 706 
Q 2900 1003 2900 1516 
L 2900 3500 
L 3475 3500 
L 3475 0 
L 2900 0 
L 2900 538 
Q 2691 219 2414 64 
Q 2138 -91 1772 -91 
Q 1169 -91 856 284 
Q 544 659 544 1381 
z
M 1991 3584 
L 1991 3584 
z
" transform="scale(0.015625)"/>
      <path id="DejaVuSans-62" d="M 3116 1747 
Q 3116 2381 2855 2742 
Q 2594 3103 2138 3103 
Q 1681 3103 1420 2742 
Q 1159 2381 1159 1747 
Q 1159 1113 1420 752 
Q 1681 391 2138 391 
Q 2594 391 2855 752 
Q 3116 1113 3116 1747 
z
M 1159 2969 
Q 1341 3281 1617 3432 
Q 1894 3584 2278 3584 
Q 2916 3584 3314 3078 
Q 3713 2572 3713 1747 
Q 3713 922 3314 415 
Q 2916 -91 2278 -91 
Q 1894 -91 1617 61 
Q 1341 213 1159 525 
L 1159 0 
L 581 0 
L 581 4863 
L 1159 4863 
L 1159 2969 
z
" transform="scale(0.015625)"/>
      <path id="DejaVuSans-63" d="M 3122 3366 
L 3122 2828 
Q 2878 2963 2633 3030 
Q 2388 3097 2138 3097 
Q 1578 3097 1268 2742 
Q 959 2388 959 1747 
Q 959 1106 1268 751 
Q 1578 397 2138 397 
Q 2388 397 2633 464 
Q 2878 531 3122 666 
L 3122 134 
Q 2881 22 2623 -34 
Q 2366 -91 2075 -91 
Q 1284 -91 818 406 
Q 353 903 353 1747 
Q 353 2603 823 3093 
Q 1294 3584 2113 3584 
Q 2378 3584 2631 3529 
Q 2884 3475 3122 3366 
z
" transform="scale(0.015625)"/>
      <path id="DejaVuSans-72" d="M 2631 2963 
Q 2534 3019 2420 3045 
Q 2306 3072 2169 3072 
Q 1681 3072 1420 2755 
Q 1159 2438 1159 1844 
L 1159 0 
L 581 0 
L 581 3500 
L 1159 3500 
L 1159 2956 
Q 1341 3275 1631 3429 
Q 1922 3584 2338 3584 
Q 2397 3584 2469 3576 
Q 2541 3569 2628 3553 
L 2631 2963 
z
" transform="scale(0.015625)"/>
      <path id="DejaVuSans-69" d="M 603 3500 
L 1178 3500 
L 1178 0 
L 603 0 
L 603 3500 
z
M 603 4863 
L 1178 4863 
L 1178 4134 
L 603 4134 
L 603 4863 
z
" transform="scale(0.015625)"/>
      <path id="DejaVuSans-20" transform="scale(0.015625)"/>
      <path id="DejaVuSans-68" d="M 3513 2113 
L 3513 0 
L 2938 0 
L 2938 2094 
Q 2938 2591 2744 2837 
Q 2550 3084 2163 3084 
Q 1697 3084 1428 2787 
Q 1159 2491 1159 1978 
L 1159 0 
L 581 0 
L 581 4863 
L 1159 4863 
L 1159 2956 
Q 1366 3272 1645 3428 
Q 1925 3584 2291 3584 
Q 2894 3584 3203 3211 
Q 3513 2838 3513 2113 
z
" transform="scale(0.015625)"/>
      <path id="DejaVuSans-6f" d="M 1959 3097 
Q 1497 3097 1228 2736 
Q 959 2375 959 1747 
Q 959 1119 1226 758 
Q 1494 397 1959 397 
Q 2419 397 2687 759 
Q 2956 1122 2956 1747 
Q 2956 2369 2687 2733 
Q 2419 3097 1959 3097 
z
M 1959 3584 
Q 2709 3584 3137 3096 
Q 3566 2609 3566 1747 
Q 3566 888 3137 398 
Q 2709 -91 1959 -91 
Q 1206 -91 779 398 
Q 353 888 353 1747 
Q 353 2609 779 3096 
Q 1206 3584 1959 3584 
z
" transform="scale(0.015625)"/>
      <path id="DejaVuSans-79" d="M 2059 -325 
Q 1816 -950 1584 -1140 
Q 1353 -1331 966 -1331 
L 506 -1331 
L 506 -850 
L 844 -850 
Q 1081 -850 1212 -737 
Q 1344 -625 1503 -206 
L 1606 56 
L 191 3500 
L 800 3500 
L 1894 763 
L 2988 3500 
L 3597 3500 
L 2059 -325 
z
" transform="scale(0.015625)"/>
     </defs>
     <use xlink:href="#DejaVuSans-67"/>
     <use xlink:href="#DejaVuSans-65" transform="translate(63.476562 0)"/>
     <use xlink:href="#DejaVuSans-74" transform="translate(125 0)"/>
     <use xlink:href="#DejaVuSans-5f" transform="translate(164.208984 0)"/>
     <use xlink:href="#DejaVuSans-73" transform="translate(214.208984 0)"/>
     <use xlink:href="#DejaVuSans-75" transform="translate(266.308594 0)"/>
     <use xlink:href="#DejaVuSans-62" transform="translate(329.6875 0)"/>
     <use xlink:href="#DejaVuSans-73" transform="translate(393.164062 0)"/>
     <use xlink:href="#DejaVuSans-63" transform="translate(445.263672 0)"/>
     <use xlink:href="#DejaVuSans-72" transform="translate(500.244141 0)"/>
     <use xlink:href="#DejaVuSans-69" transform="translate(541.357422 0)"/>
     <use xlink:href="#DejaVuSans-62" transform="translate(569.140625 0)"/>
     <use xlink:href="#DejaVuSans-65" transform="translate(632.617188 0)"/>
     <use xlink:href="#DejaVuSans-20" transform="translate(694.140625 0)"/>
     <use xlink:href="#DejaVuSans-68" transform="translate(725.927734 0)"/>
     <use xlink:href="#DejaVuSans-69" transform="translate(789.306641 0)"/>
     <use xlink:href="#DejaVuSans-73" transform="translate(817.089844 0)"/>
     <use xlink:href="#DejaVuSans-74" transform="translate(869.189453 0)"/>
     <use xlink:href="#DejaVuSans-6f" transform="translate(908.398438 0)"/>
     <use xlink:href="#DejaVuSans-72" transform="translate(969.580078 0)"/>
     <use xlink:href="#DejaVuSans-79" transform="translate(1010.693359 0)"/>
    </g>
   </g>
   <g id="legend_1">
    <g id="line2d_33">
     <path d="M 815.08 328.498438 
L 825.08 328.498438 
L 835.08 328.498438 
" style="fill: none; stroke: #1f77b4; stroke-width: 1.5; stroke-linecap: square"/>
    </g>
    <g id="text_17">
     <!-- star -->
     <g style="fill: #a9a9a9" transform="translate(843.08 331.998438) scale(0.1 -0.1)">
      <defs>
       <path id="DejaVuSans-61" d="M 2194 1759 
Q 1497 1759 1228 1600 
Q 959 1441 959 1056 
Q 959 750 1161 570 
Q 1363 391 1709 391 
Q 2188 391 2477 730 
Q 2766 1069 2766 1631 
L 2766 1759 
L 2194 1759 
z
M 3341 1997 
L 3341 0 
L 2766 0 
L 2766 531 
Q 2569 213 2275 61 
Q 1981 -91 1556 -91 
Q 1019 -91 701 211 
Q 384 513 384 1019 
Q 384 1609 779 1909 
Q 1175 2209 1959 2209 
L 2766 2209 
L 2766 2266 
Q 2766 2663 2505 2880 
Q 2244 3097 1772 3097 
Q 1472 3097 1187 3025 
Q 903 2953 641 2809 
L 641 3341 
Q 956 3463 1253 3523 
Q 1550 3584 1831 3584 
Q 2591 3584 2966 3190 
Q 3341 2797 3341 1997 
z
" transform="scale(0.015625)"/>
      </defs>
      <use xlink:href="#DejaVuSans-73"/>
      <use xlink:href="#DejaVuSans-74" transform="translate(52.099609 0)"/>
      <use xlink:href="#DejaVuSans-61" transform="translate(91.308594 0)"/>
      <use xlink:href="#DejaVuSans-72" transform="translate(152.587891 0)"/>
     </g>
    </g>
    <g id="line2d_34">
     <path d="M 815.08 343.176562 
L 825.08 343.176562 
L 835.08 343.176562 
" style="fill: none; stroke: #ff7f0e; stroke-width: 1.5; stroke-linecap: square"/>
    </g>
    <g id="text_18">
     <!-- fork -->
     <g style="fill: #a9a9a9" transform="translate(843.08 346.676562) scale(0.1 -0.1)">
      <defs>
       <path id="DejaVuSans-66" d="M 2375 4863 
L 2375 4384 
L 1825 4384 
Q 1516 4384 1395 4259 
Q 1275 4134 1275 3809 
L 1275 3500 
L 2222 3500 
L 2222 3053 
L 1275 3053 
L 1275 0 
L 697 0 
L 697 3053 
L 147 3053 
L 147 3500 
L 697 3500 
L 697 3744 
Q 697 4328 969 4595 
Q 1241 4863 1831 4863 
L 2375 4863 
z
" transform="scale(0.015625)"/>
       <path id="DejaVuSans-6b" d="M 581 4863 
L 1159 4863 
L 1159 1991 
L 2875 3500 
L 3609 3500 
L 1753 1863 
L 3688 0 
L 2938 0 
L 1159 1709 
L 1159 0 
L 581 0 
L 581 4863 
z
" transform="scale(0.015625)"/>
      </defs>
      <use xlink:href="#DejaVuSans-66"/>
      <use xlink:href="#DejaVuSans-6f" transform="translate(35.205078 0)"/>
      <use xlink:href="#DejaVuSans-72" transform="translate(96.386719 0)"/>
      <use xlink:href="#DejaVuSans-6b" transform="translate(137.5 0)"/>
     </g>
    </g>
   </g>
  </g>
 </g>
 <defs>
  <clipPath id="pcba756dbf9">
   <rect x="108" y="43.2" width="669.6" height="277.2"/>
  </clipPath>
 </defs>
</svg>
