<?xml version="1.0" encoding="utf-8" standalone="no"?>
<!DOCTYPE svg PUBLIC "-//W3C//DTD SVG 1.1//EN"
  "http://www.w3.org/Graphics/SVG/1.1/DTD/svg11.dtd">
<svg xmlns:xlink="http://www.w3.org/1999/xlink" width="864pt" height="360pt" viewBox="0 0 864 360" xmlns="http://www.w3.org/2000/svg" version="1.1">
 <metadata>
  <rdf:RDF xmlns:dc="http://purl.org/dc/elements/1.1/" xmlns:cc="http://creativecommons.org/ns#" xmlns:rdf="http://www.w3.org/1999/02/22-rdf-syntax-ns#">
   <cc:Work>
    <dc:type rdf:resource="http://purl.org/dc/dcmitype/StillImage"/>
    <dc:date>2026-03-15T20:09:55.877320</dc:date>
    <dc:format>image/svg+xml</dc:format>
    <dc:creator>
     <cc:Agent>
      <dc:title>Matplotlib v3.10.8, https://matplotlib.org/</dc:title>
     </cc:Agent>
    </dc:creator>
   </cc:Work>
  </rdf:RDF>
 </metadata>
 <defs>
  <style type="text/css">*{stroke-linejoin: round; stroke-linecap: butt}</style>
 </defs>
 <g id="figure_1">
  <g id="patch_1">
   <path d="M 0 360 
L 864 360 
L 864 0 
L 0 0 
L 0 360 
z
" style="fill: none; opacity: 0"/>
  </g>
  <g id="axes_1">
   <g id="patch_2">
    <path d="M 108 320.4 
L 777.6 320.4 
L 777.6 43.2 
L 108 43.2 
L 108 320.4 
z
" style="fill: none; opacity: 0"/>
   </g>
   <g id="matplotlib.axis_1">
    <g id="xtick_1">
     <g id="line2d_1">
      <path d="M 196.256476 320.4 
L 196.256476 43.2 
" clip-path="url(#p742869d0d0)" style="fill: none; stroke-dasharray: 5.12,1.28,0.8,1.28; stroke-dashoffset: 0; stroke: #b0b0b0; stroke-width: 0.8"/>
     </g>
     <g id="line2d_2">
      <defs>
       <path id="m50eb39f6e0" d="M 0 0 
L 0 3.5 
" style="stroke: #a9a9a9; stroke-width: 0.8"/>
      </defs>
      <g>
       <use xlink:href="#m50eb39f6e0" x="196.256476" y="320.4" style="fill: #a9a9a9; stroke: #a9a9a9; stroke-width: 0.8"/>
      </g>
     </g>
     <g id="text_1">
      <!-- 2022 -->
      <g style="fill: #a9a9a9" transform="translate(183.531476 334.998438) scale(0.1 -0.1)">
       <defs>
        <path id="DejaVuSans-32" d="M 1228 531 
L 3431 531 
L 3431 0 
L 469 0 
L 469 531 
Q 828 903 1448 1529 
Q 2069 2156 2228 2338 
Q 2531 2678 2651 2914 
Q 2772 3150 2772 3378 
Q 2772 3750 2511 3984 
Q 2250 4219 1831 4219 
Q 1534 4219 1204 4116 
Q 875 4013 500 3803 
L 500 4441 
Q 881 4594 1212 4672 
Q 1544 4750 1819 4750 
Q 2544 4750 2975 4387 
Q 3406 4025 3406 3419 
Q 3406 3131 3298 2873 
Q 3191 2616 2906 2266 
Q 2828 2175 2409 1742 
Q 1991 1309 1228 531 
z
" transform="scale(0.015625)"/>
        <path id="DejaVuSans-30" d="M 2034 4250 
Q 1547 4250 1301 3770 
Q 1056 3291 1056 2328 
Q 1056 1369 1301 889 
Q 1547 409 2034 409 
Q 2525 409 2770 889 
Q 3016 1369 3016 2328 
Q 3016 3291 2770 3770 
Q 2525 4250 2034 4250 
z
M 2034 4750 
Q 2819 4750 3233 4129 
Q 3647 3509 3647 2328 
Q 3647 1150 3233 529 
Q 2819 -91 2034 -91 
Q 1250 -91 836 529 
Q 422 1150 422 2328 
Q 422 3509 836 4129 
Q 1250 4750 2034 4750 
z
" transform="scale(0.015625)"/>
       </defs>
       <use xlink:href="#DejaVuSans-32"/>
       <use xlink:href="#DejaVuSans-30" transform="translate(63.623047 0)"/>
       <use xlink:href="#DejaVuSans-32" transform="translate(127.246094 0)"/>
       <use xlink:href="#DejaVuSans-32" transform="translate(190.869141 0)"/>
      </g>
     </g>
    </g>
    <g id="xtick_2">
     <g id="line2d_3">
      <path d="M 327.33934 320.4 
L 327.33934 43.2 
" clip-path="url(#p742869d0d0)" style="fill: none; stroke-dasharray: 5.12,1.28,0.8,1.28; stroke-dashoffset: 0; stroke: #b0b0b0; stroke-width: 0.8"/>
     </g>
     <g id="line2d_4">
      <g>
       <use xlink:href="#m50eb39f6e0" x="327.33934" y="320.4" style="fill: #a9a9a9; stroke: #a9a9a9; stroke-width: 0.8"/>
      </g>
     </g>
     <g id="text_2">
      <!-- 2023 -->
      <g style="fill: #a9a9a9" transform="translate(314.61434 334.998438) scale(0.1 -0.1)">
       <defs>
        <path id="DejaVuSans-33" d="M 2597 2516 
Q 3050 2419 3304 2112 
Q 3559 1806 3559 1356 
Q 3559 666 3084 287 
Q 2609 -91 1734 -91 
Q 1441 -91 1130 -33 
Q 819 25 488 141 
L 488 750 
Q 750 597 1062 519 
Q 1375 441 1716 441 
Q 2309 441 2620 675 
Q 2931 909 2931 1356 
Q 2931 1769 2642 2001 
Q 2353 2234 1838 2234 
L 1294 2234 
L 1294 2753 
L 1863 2753 
Q 2328 2753 2575 2939 
Q 2822 3125 2822 3475 
Q 2822 3834 2567 4026 
Q 2313 4219 1838 4219 
Q 1578 4219 1281 4162 
Q 984 4106 628 3988 
L 628 4550 
Q 988 4650 1302 4700 
Q 1616 4750 1894 4750 
Q 2613 4750 3031 4423 
Q 3450 4097 3450 3541 
Q 3450 3153 3228 2886 
Q 3006 2619 2597 2516 
z
" transform="scale(0.015625)"/>
       </defs>
       <use xlink:href="#DejaVuSans-32"/>
       <use xlink:href="#DejaVuSans-30" transform="translate(63.623047 0)"/>
       <use xlink:href="#DejaVuSans-32" transform="translate(127.246094 0)"/>
       <use xlink:href="#DejaVuSans-33" transform="translate(190.869141 0)"/>
      </g>
     </g>
    </g>
    <g id="xtick_3">
     <g id="line2d_5">
      <path d="M 458.422204 320.4 
L 458.422204 43.2 
" clip-path="url(#p742869d0d0)" style="fill: none; stroke-dasharray: 5.12,1.28,0.8,1.28; stroke-dashoffset: 0; stroke: #b0b0b0; stroke-width: 0.8"/>
     </g>
     <g id="line2d_6">
      <g>
       <use xlink:href="#m50eb39f6e0" x="458.422204" y="320.4" style="fill: #a9a9a9; stroke: #a9a9a9; stroke-width: 0.8"/>
      </g>
     </g>
     <g id="text_3">
      <!-- 2024 -->
      <g style="fill: #a9a9a9" transform="translate(445.697204 334.998438) scale(0.1 -0.1)">
       <defs>
        <path id="DejaVuSans-34" d="M 2419 4116 
L 825 1625 
L 2419 1625 
L 2419 4116 
z
M 2253 4666 
L 3047 4666 
L 3047 1625 
L 3713 1625 
L 3713 1100 
L 3047 1100 
L 3047 0 
L 2419 0 
L 2419 1100 
L 313 1100 
L 313 1709 
L 2253 4666 
z
" transform="scale(0.015625)"/>
       </defs>
       <use xlink:href="#DejaVuSans-32"/>
       <use xlink:href="#DejaVuSans-30" transform="translate(63.623047 0)"/>
       <use xlink:href="#DejaVuSans-32" transform="translate(127.246094 0)"/>
       <use xlink:href="#DejaVuSans-34" transform="translate(190.869141 0)"/>
      </g>
     </g>
    </g>
    <g id="xtick_4">
     <g id="line2d_7">
      <path d="M 589.8642 320.4 
L 589.8642 43.2 
" clip-path="url(#p742869d0d0)" style="fill: none; stroke-dasharray: 5.12,1.28,0.8,1.28; stroke-dashoffset: 0; stroke: #b0b0b0; stroke-width: 0.8"/>
     </g>
     <g id="line2d_8">
      <g>
       <use xlink:href="#m50eb39f6e0" x="589.8642" y="320.4" style="fill: #a9a9a9; stroke: #a9a9a9; stroke-width: 0.8"/>
      </g>
     </g>
     <g id="text_4">
      <!-- 2025 -->
      <g style="fill: #a9a9a9" transform="translate(577.1392 334.998438) scale(0.1 -0.1)">
       <defs>
        <path id="DejaVuSans-35" d="M 691 4666 
L 3169 4666 
L 3169 4134 
L 1269 4134 
L 1269 2991 
Q 1406 3038 1543 3061 
Q 1681 3084 1819 3084 
Q 2600 3084 3056 2656 
Q 3513 2228 3513 1497 
Q 3513 744 3044 326 
Q 2575 -91 1722 -91 
Q 1428 -91 1123 -41 
Q 819 9 494 109 
L 494 744 
Q 775 591 1075 516 
Q 1375 441 1709 441 
Q 2250 441 2565 725 
Q 2881 1009 2881 1497 
Q 2881 1984 2565 2268 
Q 2250 2553 1709 2553 
Q 1456 2553 1204 2497 
Q 953 2441 691 2322 
L 691 4666 
z
" transform="scale(0.015625)"/>
       </defs>
       <use xlink:href="#DejaVuSans-32"/>
       <use xlink:href="#DejaVuSans-30" transform="translate(63.623047 0)"/>
       <use xlink:href="#DejaVuSans-32" transform="translate(127.246094 0)"/>
       <use xlink:href="#DejaVuSans-35" transform="translate(190.869141 0)"/>
      </g>
     </g>
    </g>
    <g id="xtick_5">
     <g id="line2d_9">
      <path d="M 720.947064 320.4 
L 720.947064 43.2 
" clip-path="url(#p742869d0d0)" style="fill: none; stroke-dasharray: 5.12,1.28,0.8,1.28; stroke-dashoffset: 0; stroke: #b0b0b0; stroke-width: 0.8"/>
     </g>
     <g id="line2d_10">
      <g>
       <use xlink:href="#m50eb39f6e0" x="720.947064" y="320.4" style="fill: #a9a9a9; stroke: #a9a9a9; stroke-width: 0.8"/>
      </g>
     </g>
     <g id="text_5">
      <!-- 2026 -->
      <g style="fill: #a9a9a9" transform="translate(708.222064 334.998438) scale(0.1 -0.1)">
       <defs>
        <path id="DejaVuSans-36" d="M 2113 2584 
Q 1688 2584 1439 2293 
Q 1191 2003 1191 1497 
Q 1191 994 1439 701 
Q 1688 409 2113 409 
Q 2538 409 2786 701 
Q 3034 994 3034 1497 
Q 3034 2003 2786 2293 
Q 2538 2584 2113 2584 
z
M 3366 4563 
L 3366 3988 
Q 3128 4100 2886 4159 
Q 2644 4219 2406 4219 
Q 1781 4219 1451 3797 
Q 1122 3375 1075 2522 
Q 1259 2794 1537 2939 
Q 1816 3084 2150 3084 
Q 2853 3084 3261 2657 
Q 3669 2231 3669 1497 
Q 3669 778 3244 343 
Q 2819 -91 2113 -91 
Q 1303 -91 875 529 
Q 447 1150 447 2328 
Q 447 3434 972 4092 
Q 1497 4750 2381 4750 
Q 2619 4750 2861 4703 
Q 3103 4656 3366 4563 
z
" transform="scale(0.015625)"/>
       </defs>
       <use xlink:href="#DejaVuSans-32"/>
       <use xlink:href="#DejaVuSans-30" transform="translate(63.623047 0)"/>
       <use xlink:href="#DejaVuSans-32" transform="translate(127.246094 0)"/>
       <use xlink:href="#DejaVuSans-36" transform="translate(190.869141 0)"/>
      </g>
     </g>
    </g>
   </g>
   <g id="matplotlib.axis_2">
    <g id="ytick_1">
     <g id="line2d_11">
      <path d="M 108 307.828761 
L 777.6 307.828761 
" clip-path="url(#p742869d0d0)" style="fill: none; stroke-dasharray: 5.12,1.28,0.8,1.28; stroke-dashoffset: 0; stroke: #b0b0b0; stroke-width: 0.8"/>
     </g>
     <g id="line2d_12">
      <defs>
       <path id="m50ae620999" d="M 0 0 
L -3.5 0 
" style="stroke: #a9a9a9; stroke-width: 0.8"/>
      </defs>
      <g>
       <use xlink:href="#m50ae620999" x="108" y="307.828761" style="fill: #a9a9a9; stroke: #a9a9a9; stroke-width: 0.8"/>
      </g>
     </g>
     <g id="text_6">
      <!-- 0 -->
      <g style="fill: #a9a9a9" transform="translate(94.6375 311.627979) scale(0.1 -0.1)">
       <use xlink:href="#DejaVuSans-30"/>
      </g>
     </g>
    </g>
    <g id="ytick_2">
     <g id="line2d_13">
      <path d="M 108 279.068204 
L 777.6 279.068204 
" clip-path="url(#p742869d0d0)" style="fill: none; stroke-dasharray: 5.12,1.28,0.8,1.28; stroke-dashoffset: 0; stroke: #b0b0b0; stroke-width: 0.8"/>
     </g>
     <g id="line2d_14">
      <g>
       <use xlink:href="#m50ae620999" x="108" y="279.068204" style="fill: #a9a9a9; stroke: #a9a9a9; stroke-width: 0.8"/>
      </g>
     </g>
     <g id="text_7">
      <!-- 1000 -->
      <g style="fill: #a9a9a9" transform="translate(75.55 282.867422) scale(0.1 -0.1)">
       <defs>
        <path id="DejaVuSans-31" d="M 794 531 
L 1825 531 
L 1825 4091 
L 703 3866 
L 703 4441 
L 1819 4666 
L 2450 4666 
L 2450 531 
L 3481 531 
L 3481 0 
L 794 0 
L 794 531 
z
" transform="scale(0.015625)"/>
       </defs>
       <use xlink:href="#DejaVuSans-31"/>
       <use xlink:href="#DejaVuSans-30" transform="translate(63.623047 0)"/>
       <use xlink:href="#DejaVuSans-30" transform="translate(127.246094 0)"/>
       <use xlink:href="#DejaVuSans-30" transform="translate(190.869141 0)"/>
      </g>
     </g>
    </g>
    <g id="ytick_3">
     <g id="line2d_15">
      <path d="M 108 250.307647 
L 777.6 250.307647 
" clip-path="url(#p742869d0d0)" style="fill: none; stroke-dasharray: 5.12,1.28,0.8,1.28; stroke-dashoffset: 0; stroke: #b0b0b0; stroke-width: 0.8"/>
     </g>
     <g id="line2d_16">
      <g>
       <use xlink:href="#m50ae620999" x="108" y="250.307647" style="fill: #a9a9a9; stroke: #a9a9a9; stroke-width: 0.8"/>
      </g>
     </g>
     <g id="text_8">
      <!-- 2000 -->
      <g style="fill: #a9a9a9" transform="translate(75.55 254.106865) scale(0.1 -0.1)">
       <use xlink:href="#DejaVuSans-32"/>
       <use xlink:href="#DejaVuSans-30" transform="translate(63.623047 0)"/>
       <use xlink:href="#DejaVuSans-30" transform="translate(127.246094 0)"/>
       <use xlink:href="#DejaVuSans-30" transform="translate(190.869141 0)"/>
      </g>
     </g>
    </g>
    <g id="ytick_4">
     <g id="line2d_17">
      <path d="M 108 221.54709 
L 777.6 221.54709 
" clip-path="url(#p742869d0d0)" style="fill: none; stroke-dasharray: 5.12,1.28,0.8,1.28; stroke-dashoffset: 0; stroke: #b0b0b0; stroke-width: 0.8"/>
     </g>
     <g id="line2d_18">
      <g>
       <use xlink:href="#m50ae620999" x="108" y="221.54709" style="fill: #a9a9a9; stroke: #a9a9a9; stroke-width: 0.8"/>
      </g>
     </g>
     <g id="text_9">
      <!-- 3000 -->
      <g style="fill: #a9a9a9" transform="translate(75.55 225.346308) scale(0.1 -0.1)">
       <use xlink:href="#DejaVuSans-33"/>
       <use xlink:href="#DejaVuSans-30" transform="translate(63.623047 0)"/>
       <use xlink:href="#DejaVuSans-30" transform="translate(127.246094 0)"/>
       <use xlink:href="#DejaVuSans-30" transform="translate(190.869141 0)"/>
      </g>
     </g>
    </g>
    <g id="ytick_5">
     <g id="line2d_19">
      <path d="M 108 192.786533 
L 777.6 192.786533 
" clip-path="url(#p742869d0d0)" style="fill: none; stroke-dasharray: 5.12,1.28,0.8,1.28; stroke-dashoffset: 0; stroke: #b0b0b0; stroke-width: 0.8"/>
     </g>
     <g id="line2d_20">
      <g>
       <use xlink:href="#m50ae620999" x="108" y="192.786533" style="fill: #a9a9a9; stroke: #a9a9a9; stroke-width: 0.8"/>
      </g>
     </g>
     <g id="text_10">
      <!-- 4000 -->
      <g style="fill: #a9a9a9" transform="translate(75.55 196.585752) scale(0.1 -0.1)">
       <use xlink:href="#DejaVuSans-34"/>
       <use xlink:href="#DejaVuSans-30" transform="translate(63.623047 0)"/>
       <use xlink:href="#DejaVuSans-30" transform="translate(127.246094 0)"/>
       <use xlink:href="#DejaVuSans-30" transform="translate(190.869141 0)"/>
      </g>
     </g>
    </g>
    <g id="ytick_6">
     <g id="line2d_21">
      <path d="M 108 164.025976 
L 777.6 164.025976 
" clip-path="url(#p742869d0d0)" style="fill: none; stroke-dasharray: 5.12,1.28,0.8,1.28; stroke-dashoffset: 0; stroke: #b0b0b0; stroke-width: 0.8"/>
     </g>
     <g id="line2d_22">
      <g>
       <use xlink:href="#m50ae620999" x="108" y="164.025976" style="fill: #a9a9a9; stroke: #a9a9a9; stroke-width: 0.8"/>
      </g>
     </g>
     <g id="text_11">
      <!-- 5000 -->
      <g style="fill: #a9a9a9" transform="translate(75.55 167.825195) scale(0.1 -0.1)">
       <use xlink:href="#DejaVuSans-35"/>
       <use xlink:href="#DejaVuSans-30" transform="translate(63.623047 0)"/>
       <use xlink:href="#DejaVuSans-30" transform="translate(127.246094 0)"/>
       <use xlink:href="#DejaVuSans-30" transform="translate(190.869141 0)"/>
      </g>
     </g>
    </g>
    <g id="ytick_7">
     <g id="line2d_23">
      <path d="M 108 135.265419 
L 777.6 135.265419 
" clip-path="url(#p742869d0d0)" style="fill: none; stroke-dasharray: 5.12,1.28,0.8,1.28; stroke-dashoffset: 0; stroke: #b0b0b0; stroke-width: 0.8"/>
     </g>
     <g id="line2d_24">
      <g>
       <use xlink:href="#m50ae620999" x="108" y="135.265419" style="fill: #a9a9a9; stroke: #a9a9a9; stroke-width: 0.8"/>
      </g>
     </g>
     <g id="text_12">
      <!-- 6000 -->
      <g style="fill: #a9a9a9" transform="translate(75.55 139.064638) scale(0.1 -0.1)">
       <use xlink:href="#DejaVuSans-36"/>
       <use xlink:href="#DejaVuSans-30" transform="translate(63.623047 0)"/>
       <use xlink:href="#DejaVuSans-30" transform="translate(127.246094 0)"/>
       <use xlink:href="#DejaVuSans-30" transform="translate(190.869141 0)"/>
      </g>
     </g>
    </g>
    <g id="ytick_8">
     <g id="line2d_25">
      <path d="M 108 106.504862 
L 777.6 106.504862 
" clip-path="url(#p742869d0d0)" style="fill: none; stroke-dasharray: 5.12,1.28,0.8,1.28; stroke-dashoffset: 0; stroke: #b0b0b0; stroke-width: 0.8"/>
     </g>
     <g id="line2d_26">
      <g>
       <use xlink:href="#m50ae620999" x="108" y="106.504862" style="fill: #a9a9a9; stroke: #a9a9a9; stroke-width: 0.8"/>
      </g>
     </g>
     <g id="text_13">
      <!-- 7000 -->
      <g style="fill: #a9a9a9" transform="translate(75.55 110.304081) scale(0.1 -0.1)">
       <defs>
        <path id="DejaVuSans-37" d="M 525 4666 
L 3525 4666 
L 3525 4397 
L 1831 0 
L 1172 0 
L 2766 4134 
L 525 4134 
L 525 4666 
z
" transform="scale(0.015625)"/>
       </defs>
       <use xlink:href="#DejaVuSans-37"/>
       <use xlink:href="#DejaVuSans-30" transform="translate(63.623047 0)"/>
       <use xlink:href="#DejaVuSans-30" transform="translate(127.246094 0)"/>
       <use xlink:href="#DejaVuSans-30" transform="translate(190.869141 0)"/>
      </g>
     </g>
    </g>
    <g id="ytick_9">
     <g id="line2d_27">
      <path d="M 108 77.744305 
L 777.6 77.744305 
" clip-path="url(#p742869d0d0)" style="fill: none; stroke-dasharray: 5.12,1.28,0.8,1.28; stroke-dashoffset: 0; stroke: #b0b0b0; stroke-width: 0.8"/>
     </g>
     <g id="line2d_28">
      <g>
       <use xlink:href="#m50ae620999" x="108" y="77.744305" style="fill: #a9a9a9; stroke: #a9a9a9; stroke-width: 0.8"/>
      </g>
     </g>
     <g id="text_14">
      <!-- 8000 -->
      <g style="fill: #a9a9a9" transform="translate(75.55 81.543524) scale(0.1 -0.1)">
       <defs>
        <path id="DejaVuSans-38" d="M 2034 2216 
Q 1584 2216 1326 1975 
Q 1069 1734 1069 1313 
Q 1069 891 1326 650 
Q 1584 409 2034 409 
Q 2484 409 2743 651 
Q 3003 894 3003 1313 
Q 3003 1734 2745 1975 
Q 2488 2216 2034 2216 
z
M 1403 2484 
Q 997 2584 770 2862 
Q 544 3141 544 3541 
Q 544 4100 942 4425 
Q 1341 4750 2034 4750 
Q 2731 4750 3128 4425 
Q 3525 4100 3525 3541 
Q 3525 3141 3298 2862 
Q 3072 2584 2669 2484 
Q 3125 2378 3379 2068 
Q 3634 1759 3634 1313 
Q 3634 634 3220 271 
Q 2806 -91 2034 -91 
Q 1263 -91 848 271 
Q 434 634 434 1313 
Q 434 1759 690 2068 
Q 947 2378 1403 2484 
z
M 1172 3481 
Q 1172 3119 1398 2916 
Q 1625 2713 2034 2713 
Q 2441 2713 2670 2916 
Q 2900 3119 2900 3481 
Q 2900 3844 2670 4047 
Q 2441 4250 2034 4250 
Q 1625 4250 1398 4047 
Q 1172 3844 1172 3481 
z
" transform="scale(0.015625)"/>
       </defs>
       <use xlink:href="#DejaVuSans-38"/>
       <use xlink:href="#DejaVuSans-30" transform="translate(63.623047 0)"/>
       <use xlink:href="#DejaVuSans-30" transform="translate(127.246094 0)"/>
       <use xlink:href="#DejaVuSans-30" transform="translate(190.869141 0)"/>
      </g>
     </g>
    </g>
    <g id="ytick_10">
     <g id="line2d_29">
      <path d="M 108 48.983748 
L 777.6 48.983748 
" clip-path="url(#p742869d0d0)" style="fill: none; stroke-dasharray: 5.12,1.28,0.8,1.28; stroke-dashoffset: 0; stroke: #b0b0b0; stroke-width: 0.8"/>
     </g>
     <g id="line2d_30">
      <g>
       <use xlink:href="#m50ae620999" x="108" y="48.983748" style="fill: #a9a9a9; stroke: #a9a9a9; stroke-width: 0.8"/>
      </g>
     </g>
     <g id="text_15">
      <!-- 9000 -->
      <g style="fill: #a9a9a9" transform="translate(75.55 52.782967) scale(0.1 -0.1)">
       <defs>
        <path id="DejaVuSans-39" d="M 703 97 
L 703 672 
Q 941 559 1184 500 
Q 1428 441 1663 441 
Q 2288 441 2617 861 
Q 2947 1281 2994 2138 
Q 2813 1869 2534 1725 
Q 2256 1581 1919 1581 
Q 1219 1581 811 2004 
Q 403 2428 403 3163 
Q 403 3881 828 4315 
Q 1253 4750 1959 4750 
Q 2769 4750 3195 4129 
Q 3622 3509 3622 2328 
Q 3622 1225 3098 567 
Q 2575 -91 1691 -91 
Q 1453 -91 1209 -44 
Q 966 3 703 97 
z
M 1959 2075 
Q 2384 2075 2632 2365 
Q 2881 2656 2881 3163 
Q 2881 3666 2632 3958 
Q 2384 4250 1959 4250 
Q 1534 4250 1286 3958 
Q 1038 3666 1038 3163 
Q 1038 2656 1286 2365 
Q 1534 2075 1959 2075 
z
" transform="scale(0.015625)"/>
       </defs>
       <use xlink:href="#DejaVuSans-39"/>
       <use xlink:href="#DejaVuSans-30" transform="translate(63.623047 0)"/>
       <use xlink:href="#DejaVuSans-30" transform="translate(127.246094 0)"/>
       <use xlink:href="#DejaVuSans-30" transform="translate(190.869141 0)"/>
      </g>
     </g>
    </g>
   </g>
   <g id="line2d_31">
    <path d="M 138.436364 307.742479 
L 140.59115 307.541155 
L 140.950282 307.368592 
L 142.386806 307.167268 
L 143.823331 306.850902 
L 144.541593 306.735859 
L 146.337249 306.563296 
L 147.055511 306.27569 
L 147.414642 305.758 
L 147.773773 305.499155 
L 148.132904 304.636339 
L 148.492035 304.578818 
L 149.210298 304.118649 
L 149.92856 303.572198 
L 151.365084 302.479297 
L 151.724216 302.335494 
L 152.442478 301.875325 
L 153.519871 301.328875 
L 153.879002 300.696142 
L 154.597265 300.120931 
L 155.315527 299.890847 
L 156.39292 299.718283 
L 158.547707 299.373157 
L 158.906838 299.200593 
L 161.420756 298.970509 
L 162.857281 298.596622 
L 165.73033 298.165213 
L 166.089461 297.96389 
L 166.448592 297.906368 
L 167.166854 297.647523 
L 169.680772 297.187354 
L 170.399035 296.95727 
L 173.631215 296.382059 
L 174.349477 296.209496 
L 175.786002 296.008172 
L 176.504264 295.778087 
L 176.863395 295.231637 
L 177.940788 294.771468 
L 179.018182 294.455102 
L 179.377313 294.253778 
L 180.095575 294.109975 
L 181.891231 293.649806 
L 182.968624 293.390961 
L 184.405149 293.017074 
L 184.76428 292.988313 
L 185.482542 292.614426 
L 185.841673 292.556905 
L 186.200805 292.355581 
L 190.869509 291.521525 
L 192.306034 290.860032 
L 193.024296 290.658708 
L 193.742558 290.342342 
L 194.460821 289.795891 
L 195.538214 289.565807 
L 203.439099 287.092399 
L 203.79823 287.063638 
L 204.875623 286.718512 
L 205.234755 286.718512 
L 205.593886 286.545948 
L 206.312148 286.459667 
L 206.671279 286.315864 
L 208.466935 286.229582 
L 208.826066 286.143301 
L 209.544328 285.740653 
L 210.621722 285.338005 
L 211.339984 284.935357 
L 212.417377 284.446428 
L 213.853902 283.698653 
L 214.213033 283.296005 
L 214.931295 282.088062 
L 216.008689 281.742935 
L 216.36782 281.45533 
L 217.445213 281.052682 
L 217.804344 280.678795 
L 218.881738 280.218626 
L 219.240869 280.017302 
L 221.395656 277.400091 
L 222.113918 277.054965 
L 223.550442 276.019585 
L 224.268705 275.501895 
L 224.627836 274.955444 
L 224.986967 274.063867 
L 225.346098 273.488656 
L 227.500885 271.734262 
L 228.578278 270.756403 
L 229.296541 269.807304 
L 230.373934 269.002009 
L 231.810459 268.081671 
L 232.528721 267.679023 
L 233.965245 266.873727 
L 235.760901 265.090573 
L 236.479163 264.774207 
L 237.197426 264.256517 
L 237.556557 264.026432 
L 237.915688 263.968911 
L 238.993081 263.307418 
L 239.352212 262.87601 
L 241.147868 261.811869 
L 241.506999 261.668067 
L 242.584393 260.862771 
L 247.97136 258.792011 
L 248.689622 258.072997 
L 249.767015 257.497786 
L 250.485278 257.008856 
L 251.20354 256.778772 
L 251.562671 256.519927 
L 251.921802 256.404885 
L 252.999195 255.62835 
L 254.794851 255.196941 
L 255.872245 254.506688 
L 256.949638 254.247843 
L 257.308769 254.161561 
L 258.386163 253.356266 
L 259.822687 252.924857 
L 260.181818 252.637252 
L 262.336605 251.831956 
L 263.054867 251.688153 
L 263.77313 251.371787 
L 266.287047 250.393928 
L 267.00531 250.307647 
L 268.441834 249.732436 
L 272.392277 247.632915 
L 273.110539 247.287788 
L 273.828801 246.942661 
L 274.547064 246.798859 
L 275.265326 246.33869 
L 275.983588 246.137366 
L 277.060981 245.677197 
L 278.497506 245.475873 
L 279.215768 245.073225 
L 279.574899 244.728099 
L 279.934031 244.037845 
L 281.370555 243.606437 
L 282.80708 242.916184 
L 286.03926 241.391874 
L 286.757522 241.219311 
L 287.834916 240.6441 
L 288.194047 240.586578 
L 289.989702 239.63748 
L 290.707965 239.148551 
L 291.785358 238.918466 
L 295.017538 237.768044 
L 296.454063 237.135312 
L 296.813194 236.847706 
L 297.531456 236.445058 
L 298.249718 236.157453 
L 298.60885 236.071171 
L 300.045374 235.294636 
L 300.404505 234.891988 
L 300.763636 234.661904 
L 301.122767 234.575622 
L 301.84103 233.94289 
L 302.200161 233.885369 
L 302.559292 233.252636 
L 302.918423 233.108834 
L 303.277554 232.792467 
L 303.636685 232.734946 
L 304.354948 232.246017 
L 305.07321 231.987172 
L 305.432341 231.699566 
L 306.150603 231.296919 
L 307.587128 230.376581 
L 309.741915 229.369961 
L 310.101046 228.708468 
L 310.819308 228.133257 
L 311.178439 228.046976 
L 313.333226 226.954074 
L 314.051488 226.637708 
L 314.769751 226.091258 
L 315.488013 225.314723 
L 317.283669 223.905455 
L 318.001931 223.301484 
L 318.361062 223.12892 
L 319.079324 222.352385 
L 320.156718 221.834695 
L 320.87498 221.403287 
L 321.234111 221.288245 
L 321.593242 221.000639 
L 321.952373 220.943118 
L 325.184553 219.217485 
L 325.902816 219.016161 
L 327.33934 218.498471 
L 328.057603 218.009541 
L 329.494127 217.463091 
L 330.212389 217.002922 
L 330.930652 216.715316 
L 331.648914 216.168866 
L 332.367176 214.644556 
L 333.085438 213.781739 
L 334.162832 213.177768 
L 334.881094 212.861402 
L 335.240225 212.80388 
L 335.958488 212.458754 
L 337.754143 211.797261 
L 338.472405 211.308331 
L 339.549799 210.848163 
L 341.345455 209.726501 
L 342.063717 209.036247 
L 343.14111 208.489797 
L 343.500241 208.202191 
L 344.218504 207.828304 
L 346.37329 206.735403 
L 347.091553 206.534079 
L 348.168946 206.188952 
L 349.605471 205.498699 
L 353.555913 203.51422 
L 354.274175 202.910249 
L 354.992438 202.708925 
L 355.351569 202.363798 
L 355.7107 202.306277 
L 356.428962 201.731066 
L 358.224618 200.609404 
L 358.94288 200.37932 
L 359.302011 200.149235 
L 359.661142 200.091714 
L 361.815929 199.142616 
L 366.125503 197.762109 
L 367.202896 196.985574 
L 367.921158 196.582926 
L 369.357683 195.863912 
L 370.435076 195.116138 
L 371.153339 194.943575 
L 372.230732 194.253321 
L 375.462912 193.102899 
L 376.181175 192.844054 
L 377.617699 192.527688 
L 378.335961 192.297603 
L 380.131617 191.664871 
L 381.20901 191.319744 
L 381.927273 191.147181 
L 384.08206 190.744533 
L 384.800322 190.60073 
L 385.877715 190.341885 
L 386.236846 190.169322 
L 386.955109 190.025519 
L 387.673371 189.824195 
L 388.391633 189.479069 
L 388.750764 189.335266 
L 389.109895 189.335266 
L 394.496862 187.552111 
L 394.855994 187.149464 
L 397.01078 186.200365 
L 398.447305 185.682675 
L 398.806436 185.452591 
L 399.883829 185.107464 
L 401.320354 184.561013 
L 401.679485 184.244647 
L 402.756879 184.014563 
L 403.475141 183.669436 
L 403.834272 183.209267 
L 407.784714 182.288929 
L 408.143846 182.288929 
L 408.862108 182.058845 
L 412.094288 181.224789 
L 412.81255 181.052226 
L 419.276911 178.895184 
L 419.636042 178.636339 
L 420.354304 178.406254 
L 423.227353 177.370874 
L 423.945615 177.313353 
L 425.38214 176.881945 
L 425.741271 176.65186 
L 426.459533 176.421776 
L 427.177796 176.13417 
L 427.536927 175.846565 
L 427.896058 175.760283 
L 428.255189 175.558959 
L 428.61432 175.530199 
L 432.923894 173.919607 
L 436.156074 172.855467 
L 437.592599 171.618763 
L 440.106516 170.497101 
L 442.620434 169.375439 
L 443.338697 169.174115 
L 446.570877 167.534764 
L 447.289139 167.103355 
L 450.521319 165.492764 
L 450.880451 165.205159 
L 452.676106 164.514905 
L 455.190024 163.565807 
L 455.908286 163.479525 
L 456.267418 163.22068 
L 457.703942 162.933075 
L 458.422204 162.616709 
L 460.21786 161.725131 
L 464.886565 159.568089 
L 465.963958 159.194202 
L 466.323089 158.935357 
L 467.041352 158.849076 
L 467.400483 158.618991 
L 468.118745 158.503949 
L 472.78745 156.749555 
L 473.864843 156.49071 
L 475.301368 155.886738 
L 476.01963 155.48409 
L 477.456154 154.707555 
L 478.174417 154.534992 
L 478.533548 154.304908 
L 478.892679 154.247386 
L 480.688335 153.327049 
L 485.357039 151.515134 
L 485.716171 151.457612 
L 487.152695 150.738598 
L 487.870957 150.594796 
L 488.58922 150.163387 
L 490.025744 149.444373 
L 496.490105 146.884684 
L 497.926629 145.64798 
L 499.004023 145.216572 
L 501.51794 143.951107 
L 501.877072 143.692262 
L 502.595334 143.490938 
L 503.313596 143.08829 
L 504.39099 142.829445 
L 510.137088 140.413559 
L 511.932743 139.665784 
L 514.08753 138.860488 
L 515.883186 137.940151 
L 516.601448 137.710066 
L 516.960579 137.36494 
L 518.037973 136.933531 
L 518.397104 136.87601 
L 519.833628 136.185757 
L 520.911022 135.84063 
L 521.988415 135.437982 
L 523.065809 135.121616 
L 523.42494 135.064095 
L 524.143202 134.661447 
L 524.502333 134.517644 
L 524.861464 134.230039 
L 525.938858 133.942433 
L 526.65712 133.654828 
L 527.375382 133.338462 
L 528.811907 132.73449 
L 531.325825 132.101758 
L 532.044087 131.814152 
L 533.480611 131.526546 
L 534.198874 131.382744 
L 535.276267 130.951335 
L 536.35366 130.721251 
L 538.508447 129.398265 
L 539.585841 128.765533 
L 541.740628 128.07528 
L 542.099759 127.787674 
L 544.972808 126.752294 
L 546.050201 126.407167 
L 546.768463 126.00452 
L 547.486726 125.803196 
L 547.845857 125.601872 
L 548.564119 125.458069 
L 550.359775 124.624013 
L 551.078037 124.336407 
L 552.514562 123.761196 
L 552.873693 123.416069 
L 553.232824 123.358548 
L 554.669348 122.754577 
L 556.105873 122.380689 
L 556.465004 122.351929 
L 556.824135 122.179365 
L 557.542397 122.035563 
L 560.774578 121.028943 
L 561.49284 120.453732 
L 562.929364 119.619676 
L 563.288496 119.533394 
L 563.647627 119.33207 
L 564.006758 119.274549 
L 567.238938 117.663958 
L 567.598069 117.347592 
L 569.393725 116.916184 
L 570.471118 116.427254 
L 571.189381 116.22593 
L 571.548512 116.053367 
L 571.907643 115.737001 
L 574.421561 114.816663 
L 575.498954 114.327733 
L 575.858085 114.298973 
L 576.576348 114.011367 
L 578.012872 113.378635 
L 580.167659 112.832184 
L 581.245052 112.343255 
L 584.477233 111.307875 
L 585.195495 110.905227 
L 594.173773 108.086693 
L 594.532904 108.057932 
L 595.251167 107.712805 
L 598.124216 106.93627 
L 599.201609 106.533622 
L 599.56074 106.533622 
L 600.638134 106.274777 
L 601.356396 106.130975 
L 602.074658 105.929651 
L 603.152051 105.35444 
L 604.229445 105.009313 
L 606.743363 104.146496 
L 608.179887 103.398722 
L 610.693805 102.535905 
L 611.052936 102.219539 
L 611.771199 101.989454 
L 612.13033 101.75937 
L 612.848592 101.673088 
L 615.36251 100.954074 
L 616.439903 100.72399 
L 619.312953 99.68861 
L 623.981657 97.876695 
L 624.69992 97.761653 
L 625.418182 97.61785 
L 625.777313 97.61785 
L 626.854706 97.272723 
L 627.9321 96.927596 
L 630.805149 96.09354 
L 632.241673 95.777174 
L 632.600805 95.54709 
L 633.319067 95.403287 
L 634.755591 95.115681 
L 635.832985 94.597991 
L 636.910378 94.339146 
L 637.62864 94.02278 
L 639.783427 93.246245 
L 640.142558 93.188724 
L 640.860821 92.929879 
L 645.170394 91.808217 
L 647.325181 91.060443 
L 648.043443 91.002922 
L 650.557361 90.312668 
L 651.634755 89.938781 
L 652.353017 89.306049 
L 655.585197 88.040584 
L 656.303459 87.925542 
L 659.176508 86.947683 
L 660.253902 86.343711 
L 660.613033 86.25743 
L 660.972164 85.969824 
L 662.049558 85.653458 
L 667.436525 83.15129 
L 669.23218 82.518557 
L 669.591311 82.202191 
L 669.950442 82.11591 
L 670.668705 81.655741 
L 671.746098 81.339375 
L 673.182623 80.735403 
L 673.541754 80.706642 
L 675.337409 80.016389 
L 676.055672 79.872586 
L 676.773934 79.354896 
L 677.133065 79.354896 
L 678.56959 78.837206 
L 680.006114 78.549601 
L 681.442639 77.916868 
L 681.80177 77.916868 
L 682.879163 77.542981 
L 683.597426 77.427939 
L 684.674819 76.795207 
L 685.393081 76.421319 
L 690.420917 74.89701 
L 691.139179 74.724446 
L 691.857442 74.436841 
L 692.934835 74.120475 
L 694.37136 73.602785 
L 695.807884 73.286419 
L 698.321802 72.567405 
L 699.040064 72.423602 
L 701.913113 71.359461 
L 702.631376 71.215659 
L 704.0679 70.956814 
L 704.786163 70.841771 
L 706.222687 70.26656 
L 706.940949 70.065236 
L 707.659212 69.950194 
L 709.095736 69.490025 
L 709.454867 69.490025 
L 710.17313 69.087377 
L 711.968785 68.627208 
L 712.687047 68.368363 
L 713.40531 68.224561 
L 715.560097 67.275462 
L 715.919228 67.217941 
L 716.63749 66.872814 
L 717.355752 66.556448 
L 718.074014 66.240082 
L 718.792277 65.952477 
L 719.151408 65.751153 
L 719.510539 65.693632 
L 720.228801 65.377265 
L 721.306195 64.917097 
L 723.10185 64.140562 
L 723.460981 63.910477 
L 723.820113 63.824195 
L 724.179244 63.594111 
L 724.538375 63.53659 
L 725.256637 63.076421 
L 727.411424 62.587491 
L 728.129686 62.184844 
L 728.488817 62.127323 
L 729.925342 61.552111 
L 735.312309 59.510112 
L 736.748833 59.164985 
L 738.185358 58.992422 
L 739.262751 58.762337 
L 739.621883 58.704816 
L 740.340145 58.244647 
L 741.417538 57.842 
L 742.1358 57.669436 
L 742.854063 57.525633 
L 743.572325 57.180507 
L 747.163636 55.8 
L 747.163636 55.8 
" clip-path="url(#p742869d0d0)" style="fill: none; stroke: #1f77b4; stroke-width: 1.5; stroke-linecap: square"/>
   </g>
   <g id="line2d_32">
    <path d="M 138.795495 307.8 
L 142.027675 307.713718 
L 144.900724 307.569916 
L 146.337249 307.569916 
L 147.055511 307.454873 
L 155.674658 306.850902 
L 158.547707 306.76462 
L 160.343363 306.707099 
L 165.012068 306.620817 
L 166.807723 306.563296 
L 170.039903 306.477014 
L 171.476428 306.448254 
L 175.067739 306.361972 
L 176.504264 306.218169 
L 177.940788 306.189409 
L 180.095575 306.103127 
L 181.5321 306.074367 
L 183.327755 306.016845 
L 184.76428 305.873043 
L 187.99646 305.786761 
L 188.714722 305.72924 
L 190.151247 305.642958 
L 192.306034 305.556677 
L 193.742558 305.470395 
L 200.206919 305.038987 
L 202.720837 304.952705 
L 203.79823 304.837663 
L 205.593886 304.751381 
L 209.185197 304.550057 
L 212.776508 304.492536 
L 214.213033 304.348733 
L 216.008689 304.262451 
L 219.6 303.888564 
L 221.754787 303.600959 
L 223.191311 303.543438 
L 226.06436 303.16955 
L 228.219147 303.112029 
L 229.296541 302.996987 
L 230.373934 302.910705 
L 249.048753 301.501438 
L 251.562671 301.415156 
L 252.999195 301.242593 
L 254.794851 301.156311 
L 256.949638 301.07003 
L 258.745294 300.983748 
L 260.181818 300.954987 
L 261.977474 300.897466 
L 262.695736 300.811185 
L 267.723572 300.724903 
L 268.441834 300.638621 
L 272.751408 300.55234 
L 275.983588 300.379776 
L 278.497506 300.293495 
L 280.293162 300.092171 
L 282.447949 300.005889 
L 283.166211 299.890847 
L 284.961866 299.833326 
L 288.553178 299.775805 
L 289.989702 299.632002 
L 291.426227 299.603241 
L 292.50362 299.51696 
L 293.940145 299.373157 
L 297.531456 299.171833 
L 301.122767 299.085551 
L 304.354948 298.912988 
L 305.432341 298.884227 
L 306.150603 298.769185 
L 307.946259 298.711664 
L 308.664521 298.654143 
L 310.460177 298.567861 
L 311.896702 298.539101 
L 314.410619 298.452819 
L 323.748029 297.791326 
L 325.902816 297.705045 
L 327.698471 297.647523 
L 332.726307 297.561242 
L 333.44457 297.47496 
L 338.472405 297.388678 
L 342.063717 297.187354 
L 342.781979 297.158594 
L 343.500241 297.072312 
L 345.295897 296.986031 
L 347.091553 296.928509 
L 348.887208 296.842228 
L 350.682864 296.784707 
L 353.915044 296.698425 
L 356.069831 296.612143 
L 361.097667 296.525862 
L 365.048109 296.295777 
L 366.484634 296.238256 
L 367.562027 296.151974 
L 372.589863 296.065693 
L 374.74465 295.979411 
L 381.20901 295.893129 
L 382.645535 295.864369 
L 386.955109 295.806848 
L 387.673371 295.749327 
L 392.701207 295.663045 
L 394.137731 295.634284 
L 403.475141 295.548003 
L 405.629928 295.461721 
L 420.713435 295.375439 
L 422.509091 295.317918 
L 432.923894 295.231637 
L 436.874336 295.001552 
L 439.029123 294.91527 
L 441.18391 294.828989 
L 444.775221 294.742707 
L 447.289139 294.627665 
L 450.162188 294.541383 
L 453.035237 294.39758 
L 459.858729 294.311299 
L 462.013516 294.225017 
L 465.963958 294.138735 
L 468.477876 294.023693 
L 470.991794 293.966172 
L 471.710056 293.908651 
L 480.329204 293.822369 
L 483.920515 293.621045 
L 486.434433 293.534764 
L 490.384875 293.304679 
L 494.694449 293.218398 
L 496.130973 293.189637 
L 496.849236 293.132116 
L 498.644891 292.930792 
L 502.236203 292.84451 
L 502.954465 292.758229 
L 506.545776 292.671947 
L 508.341432 292.614426 
L 512.291874 292.585665 
L 513.010137 292.499384 
L 516.960579 292.413102 
L 517.678842 292.355581 
L 525.579726 292.269299 
L 527.734513 292.183018 
L 533.12148 292.096736 
L 534.558005 292.067975 
L 537.790185 292.039215 
L 538.508447 291.952933 
L 543.177152 291.866651 
L 544.972808 291.80913 
L 551.437168 291.722849 
L 552.514562 291.636567 
L 553.591955 291.550285 
L 554.669348 291.464004 
L 560.056315 291.377722 
L 562.211102 291.29144 
L 572.625905 291.205159 
L 575.858085 291.032595 
L 580.885921 290.946314 
L 582.322446 290.917553 
L 586.632019 290.831271 
L 588.427675 290.77375 
L 596.687691 290.687469 
L 598.842478 290.601187 
L 604.947707 290.514905 
L 606.384232 290.486145 
L 609.975543 290.399863 
L 612.489461 290.284821 
L 616.439903 290.198539 
L 618.953821 290.083497 
L 622.186002 290.025976 
L 622.904264 289.968455 
L 630.805149 289.882173 
L 632.959936 289.795891 
L 635.473854 289.70961 
L 637.269509 289.652089 
L 647.684312 289.565807 
L 649.839099 289.479525 
L 655.944328 289.393244 
L 657.739984 289.335722 
L 662.408689 289.249441 
L 664.563475 289.163159 
L 667.436525 289.076877 
L 669.591311 288.990596 
L 683.956557 288.904314 
L 686.829606 288.760511 
L 695.089622 288.67423 
L 696.526146 288.645469 
L 705.145294 288.559187 
L 706.940949 288.501666 
L 718.433146 288.415385 
L 719.86967 288.386624 
L 730.643604 288.300342 
L 731.361866 288.242821 
L 740.340145 288.15654 
L 742.1358 288.099018 
L 746.086243 288.012737 
L 747.163636 287.983976 
L 747.163636 287.983976 
" clip-path="url(#p742869d0d0)" style="fill: none; stroke: #ff7f0e; stroke-width: 1.5; stroke-linecap: square"/>
   </g>
   <g id="patch_3">
    <path d="M 108 320.4 
L 108 43.2 
" style="fill: none; stroke: #a9a9a9; stroke-width: 0.8; stroke-linejoin: miter; stroke-linecap: square"/>
   </g>
   <g id="patch_4">
    <path d="M 777.6 320.4 
L 777.6 43.2 
" style="fill: none"/>
   </g>
   <g id="patch_5">
    <path d="M 108 320.4 
L 777.6 320.4 
" style="fill: none; stroke: #a9a9a9; stroke-width: 0.8; stroke-linejoin: miter; stroke-linecap: square"/>
   </g>
   <g id="patch_6">
    <path d="M 108 43.2 
L 777.6 43.2 
" style="fill: none"/>
   </g>
   <g id="text_16">
    <!-- get_subscribe history -->
    <g style="fill: #a9a9a9" transform="translate(378.6075 37.2) scale(0.12 -0.12)">
     <defs>
      <path id="DejaVuSans-67" d="M 2906 1791 
Q 2906 2416 2648 2759 
Q 2391 3103 1925 3103 
Q 1463 3103 1205 2759 
Q 947 2416 947 1791 
Q 947 1169 1205 825 
Q 1463 481 1925 481 
Q 2391 481 2648 825 
Q 2906 1169 2906 1791 
z
M 3481 434 
Q 3481 -459 3084 -895 
Q 2688 -1331 1869 -1331 
Q 1566 -1331 1297 -1286 
Q 1028 -1241 775 -1147 
L 775 -588 
Q 1028 -725 1275 -790 
Q 1522 -856 1778 -856 
Q 2344 -856 2625 -561 
Q 2906 -266 2906 331 
L 2906 616 
Q 2728 306 2450 153 
Q 2172 0 1784 0 
Q 1141 0 747 490 
Q 353 981 353 1791 
Q 353 2603 747 3093 
Q 1141 3584 1784 3584 
Q 2172 3584 2450 3431 
Q 2728 3278 2906 2969 
L 2906 3500 
L 3481 3500 
L 3481 434 
z
" transform="scale(0.015625)"/>
      <path id="DejaVuSans-65" d="M 3597 1894 
L 3597 1613 
L 953 1613 
Q 991 1019 1311 708 
Q 1631 397 2203 397 
Q 2534 397 2845 478 
Q 3156 559 3463 722 
L 3463 178 
Q 3153 47 2828 -22 
Q 2503 -91 2169 -91 
Q 1331 -91 842 396 
Q 353 884 353 1716 
Q 353 2575 817 3079 
Q 1281 3584 2069 3584 
Q 2775 3584 3186 3129 
Q 3597 2675 3597 1894 
z
M 3022 2063 
Q 3016 2534 2758 2815 
Q 2500 3097 2075 3097 
Q 1594 3097 1305 2825 
Q 1016 2553 972 2059 
L 3022 2063 
z
" transform="scale(0.015625)"/>
      <path id="DejaVuSans-74" d="M 1172 4494 
L 1172 3500 
L 2356 3500 
L 2356 3053 
L 1172 3053 
L 1172 1153 
Q 1172 725 1289 603 
Q 1406 481 1766 481 
L 2356 481 
L 2356 0 
L 1766 0 
Q 1100 0 847 248 
Q 594 497 594 1153 
L 594 3053 
L 172 3053 
L 172 3500 
L 594 3500 
L 594 4494 
L 1172 4494 
z
" transform="scale(0.015625)"/>
      <path id="DejaVuSans-5f" d="M 3263 -1063 
L 3263 -1509 
L -63 -1509 
L -63 -1063 
L 3263 -1063 
z
" transform="scale(0.015625)"/>
      <path id="DejaVuSans-73" d="M 2834 3397 
L 2834 2853 
Q 2591 2978 2328 3040 
Q 2066 3103 1784 3103 
Q 1356 3103 1142 2972 
Q 928 2841 928 2578 
Q 928 2378 1081 2264 
Q 1234 2150 1697 2047 
L 1894 2003 
Q 2506 1872 2764 1633 
Q 3022 1394 3022 966 
Q 3022 478 2636 193 
Q 2250 -91 1575 -91 
Q 1294 -91 989 -36 
Q 684 19 347 128 
L 347 722 
Q 666 556 975 473 
Q 1284 391 1588 391 
Q 1994 391 2212 530 
Q 2431 669 2431 922 
Q 2431 1156 2273 1281 
Q 2116 1406 1581 1522 
L 1381 1569 
Q 847 1681 609 1914 
Q 372 2147 372 2553 
Q 372 3047 722 3315 
Q 1072 3584 1716 3584 
Q 2034 3584 2315 3537 
Q 2597 3491 2834 3397 
z
" transform="scale(0.015625)"/>
      <path id="DejaVuSans-75" d="M 544 1381 
L 544 3500 
L 1119 3500 
L 1119 1403 
Q 1119 906 1312 657 
Q 1506 409 1894 409 
Q 2359 409 2629 706 
Q 2900 1003 2900 1516 
L 2900 3500 
L 3475 3500 
L 3475 0 
L 2900 0 
L 2900 538 
Q 2691 219 2414 64 
Q 2138 -91 1772 -91 
Q 1169 -91 856 284 
Q 544 659 544 1381 
z
M 1991 3584 
L 1991 3584 
z
" transform="scale(0.015625)"/>
      <path id="DejaVuSans-62" d="M 3116 1747 
Q 3116 2381 2855 2742 
Q 2594 3103 2138 3103 
Q 1681 3103 1420 2742 
Q 1159 2381 1159 1747 
Q 1159 1113 1420 752 
Q 1681 391 2138 391 
Q 2594 391 2855 752 
Q 3116 1113 3116 1747 
z
M 1159 2969 
Q 1341 3281 1617 3432 
Q 1894 3584 2278 3584 
Q 2916 3584 3314 3078 
Q 3713 2572 3713 1747 
Q 3713 922 3314 415 
Q 2916 -91 2278 -91 
Q 1894 -91 1617 61 
Q 1341 213 1159 525 
L 1159 0 
L 581 0 
L 581 4863 
L 1159 4863 
L 1159 2969 
z
" transform="scale(0.015625)"/>
      <path id="DejaVuSans-63" d="M 3122 3366 
L 3122 2828 
Q 2878 2963 2633 3030 
Q 2388 3097 2138 3097 
Q 1578 3097 1268 2742 
Q 959 2388 959 1747 
Q 959 1106 1268 751 
Q 1578 397 2138 397 
Q 2388 397 2633 464 
Q 2878 531 3122 666 
L 3122 134 
Q 2881 22 2623 -34 
Q 2366 -91 2075 -91 
Q 1284 -91 818 406 
Q 353 903 353 1747 
Q 353 2603 823 3093 
Q 1294 3584 2113 3584 
Q 2378 3584 2631 3529 
Q 2884 3475 3122 3366 
z
" transform="scale(0.015625)"/>
      <path id="DejaVuSans-72" d="M 2631 2963 
Q 2534 3019 2420 3045 
Q 2306 3072 2169 3072 
Q 1681 3072 1420 2755 
Q 1159 2438 1159 1844 
L 1159 0 
L 581 0 
L 581 3500 
L 1159 3500 
L 1159 2956 
Q 1341 3275 1631 3429 
Q 1922 3584 2338 3584 
Q 2397 3584 2469 3576 
Q 2541 3569 2628 3553 
L 2631 2963 
z
" transform="scale(0.015625)"/>
      <path id="DejaVuSans-69" d="M 603 3500 
L 1178 3500 
L 1178 0 
L 603 0 
L 603 3500 
z
M 603 4863 
L 1178 4863 
L 1178 4134 
L 603 4134 
L 603 4863 
z
" transform="scale(0.015625)"/>
      <path id="DejaVuSans-20" transform="scale(0.015625)"/>
      <path id="DejaVuSans-68" d="M 3513 2113 
L 3513 0 
L 2938 0 
L 2938 2094 
Q 2938 2591 2744 2837 
Q 2550 3084 2163 3084 
Q 1697 3084 1428 2787 
Q 1159 2491 1159 1978 
L 1159 0 
L 581 0 
L 581 4863 
L 1159 4863 
L 1159 2956 
Q 1366 3272 1645 3428 
Q 1925 3584 2291 3584 
Q 2894 3584 3203 3211 
Q 3513 2838 3513 2113 
z
" transform="scale(0.015625)"/>
      <path id="DejaVuSans-6f" d="M 1959 3097 
Q 1497 3097 1228 2736 
Q 959 2375 959 1747 
Q 959 1119 1226 758 
Q 1494 397 1959 397 
Q 2419 397 2687 759 
Q 2956 1122 2956 1747 
Q 2956 2369 2687 2733 
Q 2419 3097 1959 3097 
z
M 1959 3584 
Q 2709 3584 3137 3096 
Q 3566 2609 3566 1747 
Q 3566 888 3137 398 
Q 2709 -91 1959 -91 
Q 1206 -91 779 398 
Q 353 888 353 1747 
Q 353 2609 779 3096 
Q 1206 3584 1959 3584 
z
" transform="scale(0.015625)"/>
      <path id="DejaVuSans-79" d="M 2059 -325 
Q 1816 -950 1584 -1140 
Q 1353 -1331 966 -1331 
L 506 -1331 
L 506 -850 
L 844 -850 
Q 1081 -850 1212 -737 
Q 1344 -625 1503 -206 
L 1606 56 
L 191 3500 
L 800 3500 
L 1894 763 
L 2988 3500 
L 3597 3500 
L 2059 -325 
z
" transform="scale(0.015625)"/>
     </defs>
     <use xlink:href="#DejaVuSans-67"/>
     <use xlink:href="#DejaVuSans-65" transform="translate(63.476562 0)"/>
     <use xlink:href="#DejaVuSans-74" transform="translate(125 0)"/>
     <use xlink:href="#DejaVuSans-5f" transform="translate(164.208984 0)"/>
     <use xlink:href="#DejaVuSans-73" transform="translate(214.208984 0)"/>
     <use xlink:href="#DejaVuSans-75" transform="translate(266.308594 0)"/>
     <use xlink:href="#DejaVuSans-62" transform="translate(329.6875 0)"/>
     <use xlink:href="#DejaVuSans-73" transform="translate(393.164062 0)"/>
     <use xlink:href="#DejaVuSans-63" transform="translate(445.263672 0)"/>
     <use xlink:href="#DejaVuSans-72" transform="translate(500.244141 0)"/>
     <use xlink:href="#DejaVuSans-69" transform="translate(541.357422 0)"/>
     <use xlink:href="#DejaVuSans-62" transform="translate(569.140625 0)"/>
     <use xlink:href="#DejaVuSans-65" transform="translate(632.617188 0)"/>
     <use xlink:href="#DejaVuSans-20" transform="translate(694.140625 0)"/>
     <use xlink:href="#DejaVuSans-68" transform="translate(725.927734 0)"/>
     <use xlink:href="#DejaVuSans-69" transform="translate(789.306641 0)"/>
     <use xlink:href="#DejaVuSans-73" transform="translate(817.089844 0)"/>
     <use xlink:href="#DejaVuSans-74" transform="translate(869.189453 0)"/>
     <use xlink:href="#DejaVuSans-6f" transform="translate(908.398438 0)"/>
     <use xlink:href="#DejaVuSans-72" transform="translate(969.580078 0)"/>
     <use xlink:href="#DejaVuSans-79" transform="translate(1010.693359 0)"/>
    </g>
   </g>
   <g id="legend_1">
    <g id="line2d_33">
     <path d="M 815.08 328.498438 
L 825.08 328.498438 
L 835.08 328.498438 
" style="fill: none; stroke: #1f77b4; stroke-width: 1.5; stroke-linecap: square"/>
    </g>
    <g id="text_17">
     <!-- star -->
     <g style="fill: #a9a9a9" transform="translate(843.08 331.998438) scale(0.1 -0.1)">
      <defs>
       <path id="DejaVuSans-61" d="M 2194 1759 
Q 1497 1759 1228 1600 
Q 959 1441 959 1056 
Q 959 750 1161 570 
Q 1363 391 1709 391 
Q 2188 391 2477 730 
Q 2766 1069 2766 1631 
L 2766 1759 
L 2194 1759 
z
M 3341 1997 
L 3341 0 
L 2766 0 
L 2766 531 
Q 2569 213 2275 61 
Q 1981 -91 1556 -91 
Q 1019 -91 701 211 
Q 384 513 384 1019 
Q 384 1609 779 1909 
Q 1175 2209 1959 2209 
L 2766 2209 
L 2766 2266 
Q 2766 2663 2505 2880 
Q 2244 3097 1772 3097 
Q 1472 3097 1187 3025 
Q 903 2953 641 2809 
L 641 3341 
Q 956 3463 1253 3523 
Q 1550 3584 1831 3584 
Q 2591 3584 2966 3190 
Q 3341 2797 3341 1997 
z
" transform="scale(0.015625)"/>
      </defs>
      <use xlink:href="#DejaVuSans-73"/>
      <use xlink:href="#DejaVuSans-74" transform="translate(52.099609 0)"/>
      <use xlink:href="#DejaVuSans-61" transform="translate(91.308594 0)"/>
      <use xlink:href="#DejaVuSans-72" transform="translate(152.587891 0)"/>
     </g>
    </g>
    <g id="line2d_34">
     <path d="M 815.08 343.176562 
L 825.08 343.176562 
L 835.08 343.176562 
" style="fill: none; stroke: #ff7f0e; stroke-width: 1.5; stroke-linecap: square"/>
    </g>
    <g id="text_18">
     <!-- fork -->
     <g style="fill: #a9a9a9" transform="translate(843.08 346.676562) scale(0.1 -0.1)">
      <defs>
       <path id="DejaVuSans-66" d="M 2375 4863 
L 2375 4384 
L 1825 4384 
Q 1516 4384 1395 4259 
Q 1275 4134 1275 3809 
L 1275 3500 
L 2222 3500 
L 2222 3053 
L 1275 3053 
L 1275 0 
L 697 0 
L 697 3053 
L 147 3053 
L 147 3500 
L 697 3500 
L 697 3744 
Q 697 4328 969 4595 
Q 1241 4863 1831 4863 
L 2375 4863 
z
" transform="scale(0.015625)"/>
       <path id="DejaVuSans-6b" d="M 581 4863 
L 1159 4863 
L 1159 1991 
L 2875 3500 
L 3609 3500 
L 1753 1863 
L 3688 0 
L 2938 0 
L 1159 1709 
L 1159 0 
L 581 0 
L 581 4863 
z
" transform="scale(0.015625)"/>
      </defs>
      <use xlink:href="#DejaVuSans-66"/>
      <use xlink:href="#DejaVuSans-6f" transform="translate(35.205078 0)"/>
      <use xlink:href="#DejaVuSans-72" transform="translate(96.386719 0)"/>
      <use xlink:href="#DejaVuSans-6b" transform="translate(137.5 0)"/>
     </g>
    </g>
   </g>
  </g>
 </g>
 <defs>
  <clipPath id="p742869d0d0">
   <rect x="108" y="43.2" width="669.6" height="277.2"/>
  </clipPath>
 </defs>
</svg>
