<?xml version="1.0" encoding="utf-8" standalone="no"?>
<!DOCTYPE svg PUBLIC "-//W3C//DTD SVG 1.1//EN"
  "http://www.w3.org/Graphics/SVG/1.1/DTD/svg11.dtd">
<svg xmlns:xlink="http://www.w3.org/1999/xlink" width="864pt" height="360pt" viewBox="0 0 864 360" xmlns="http://www.w3.org/2000/svg" version="1.1">
 <metadata>
  <rdf:RDF xmlns:dc="http://purl.org/dc/elements/1.1/" xmlns:cc="http://creativecommons.org/ns#" xmlns:rdf="http://www.w3.org/1999/02/22-rdf-syntax-ns#">
   <cc:Work>
    <dc:type rdf:resource="http://purl.org/dc/dcmitype/StillImage"/>
    <dc:date>2026-02-17T20:14:20.641839</dc:date>
    <dc:format>image/svg+xml</dc:format>
    <dc:creator>
     <cc:Agent>
      <dc:title>Matplotlib v3.10.8, https://matplotlib.org/</dc:title>
     </cc:Agent>
    </dc:creator>
   </cc:Work>
  </rdf:RDF>
 </metadata>
 <defs>
  <style type="text/css">*{stroke-linejoin: round; stroke-linecap: butt}</style>
 </defs>
 <g id="figure_1">
  <g id="patch_1">
   <path d="M 0 360 
L 864 360 
L 864 0 
L 0 0 
L 0 360 
z
" style="fill: none; opacity: 0"/>
  </g>
  <g id="axes_1">
   <g id="patch_2">
    <path d="M 108 320.4 
L 777.6 320.4 
L 777.6 43.2 
L 108 43.2 
L 108 320.4 
z
" style="fill: none; opacity: 0"/>
   </g>
   <g id="matplotlib.axis_1">
    <g id="xtick_1">
     <g id="line2d_1">
      <path d="M 197.157209 320.4 
L 197.157209 43.2 
" clip-path="url(#pe4bc246e18)" style="fill: none; stroke-dasharray: 5.12,1.28,0.8,1.28; stroke-dashoffset: 0; stroke: #b0b0b0; stroke-width: 0.8"/>
     </g>
     <g id="line2d_2">
      <defs>
       <path id="mb4c2111c27" d="M 0 0 
L 0 3.5 
" style="stroke: #a9a9a9; stroke-width: 0.8"/>
      </defs>
      <g>
       <use xlink:href="#mb4c2111c27" x="197.157209" y="320.4" style="fill: #a9a9a9; stroke: #a9a9a9; stroke-width: 0.8"/>
      </g>
     </g>
     <g id="text_1">
      <!-- 2022 -->
      <g style="fill: #a9a9a9" transform="translate(184.432209 334.998438) scale(0.1 -0.1)">
       <defs>
        <path id="DejaVuSans-32" d="M 1228 531 
L 3431 531 
L 3431 0 
L 469 0 
L 469 531 
Q 828 903 1448 1529 
Q 2069 2156 2228 2338 
Q 2531 2678 2651 2914 
Q 2772 3150 2772 3378 
Q 2772 3750 2511 3984 
Q 2250 4219 1831 4219 
Q 1534 4219 1204 4116 
Q 875 4013 500 3803 
L 500 4441 
Q 881 4594 1212 4672 
Q 1544 4750 1819 4750 
Q 2544 4750 2975 4387 
Q 3406 4025 3406 3419 
Q 3406 3131 3298 2873 
Q 3191 2616 2906 2266 
Q 2828 2175 2409 1742 
Q 1991 1309 1228 531 
z
" transform="scale(0.015625)"/>
        <path id="DejaVuSans-30" d="M 2034 4250 
Q 1547 4250 1301 3770 
Q 1056 3291 1056 2328 
Q 1056 1369 1301 889 
Q 1547 409 2034 409 
Q 2525 409 2770 889 
Q 3016 1369 3016 2328 
Q 3016 3291 2770 3770 
Q 2525 4250 2034 4250 
z
M 2034 4750 
Q 2819 4750 3233 4129 
Q 3647 3509 3647 2328 
Q 3647 1150 3233 529 
Q 2819 -91 2034 -91 
Q 1250 -91 836 529 
Q 422 1150 422 2328 
Q 422 3509 836 4129 
Q 1250 4750 2034 4750 
z
" transform="scale(0.015625)"/>
       </defs>
       <use xlink:href="#DejaVuSans-32"/>
       <use xlink:href="#DejaVuSans-30" transform="translate(63.623047 0)"/>
       <use xlink:href="#DejaVuSans-32" transform="translate(127.246094 0)"/>
       <use xlink:href="#DejaVuSans-32" transform="translate(190.869141 0)"/>
      </g>
     </g>
    </g>
    <g id="xtick_2">
     <g id="line2d_3">
      <path d="M 330.282107 320.4 
L 330.282107 43.2 
" clip-path="url(#pe4bc246e18)" style="fill: none; stroke-dasharray: 5.12,1.28,0.8,1.28; stroke-dashoffset: 0; stroke: #b0b0b0; stroke-width: 0.8"/>
     </g>
     <g id="line2d_4">
      <g>
       <use xlink:href="#mb4c2111c27" x="330.282107" y="320.4" style="fill: #a9a9a9; stroke: #a9a9a9; stroke-width: 0.8"/>
      </g>
     </g>
     <g id="text_2">
      <!-- 2023 -->
      <g style="fill: #a9a9a9" transform="translate(317.557107 334.998438) scale(0.1 -0.1)">
       <defs>
        <path id="DejaVuSans-33" d="M 2597 2516 
Q 3050 2419 3304 2112 
Q 3559 1806 3559 1356 
Q 3559 666 3084 287 
Q 2609 -91 1734 -91 
Q 1441 -91 1130 -33 
Q 819 25 488 141 
L 488 750 
Q 750 597 1062 519 
Q 1375 441 1716 441 
Q 2309 441 2620 675 
Q 2931 909 2931 1356 
Q 2931 1769 2642 2001 
Q 2353 2234 1838 2234 
L 1294 2234 
L 1294 2753 
L 1863 2753 
Q 2328 2753 2575 2939 
Q 2822 3125 2822 3475 
Q 2822 3834 2567 4026 
Q 2313 4219 1838 4219 
Q 1578 4219 1281 4162 
Q 984 4106 628 3988 
L 628 4550 
Q 988 4650 1302 4700 
Q 1616 4750 1894 4750 
Q 2613 4750 3031 4423 
Q 3450 4097 3450 3541 
Q 3450 3153 3228 2886 
Q 3006 2619 2597 2516 
z
" transform="scale(0.015625)"/>
       </defs>
       <use xlink:href="#DejaVuSans-32"/>
       <use xlink:href="#DejaVuSans-30" transform="translate(63.623047 0)"/>
       <use xlink:href="#DejaVuSans-32" transform="translate(127.246094 0)"/>
       <use xlink:href="#DejaVuSans-33" transform="translate(190.869141 0)"/>
      </g>
     </g>
    </g>
    <g id="xtick_3">
     <g id="line2d_5">
      <path d="M 463.407005 320.4 
L 463.407005 43.2 
" clip-path="url(#pe4bc246e18)" style="fill: none; stroke-dasharray: 5.12,1.28,0.8,1.28; stroke-dashoffset: 0; stroke: #b0b0b0; stroke-width: 0.8"/>
     </g>
     <g id="line2d_6">
      <g>
       <use xlink:href="#mb4c2111c27" x="463.407005" y="320.4" style="fill: #a9a9a9; stroke: #a9a9a9; stroke-width: 0.8"/>
      </g>
     </g>
     <g id="text_3">
      <!-- 2024 -->
      <g style="fill: #a9a9a9" transform="translate(450.682005 334.998438) scale(0.1 -0.1)">
       <defs>
        <path id="DejaVuSans-34" d="M 2419 4116 
L 825 1625 
L 2419 1625 
L 2419 4116 
z
M 2253 4666 
L 3047 4666 
L 3047 1625 
L 3713 1625 
L 3713 1100 
L 3047 1100 
L 3047 0 
L 2419 0 
L 2419 1100 
L 313 1100 
L 313 1709 
L 2253 4666 
z
" transform="scale(0.015625)"/>
       </defs>
       <use xlink:href="#DejaVuSans-32"/>
       <use xlink:href="#DejaVuSans-30" transform="translate(63.623047 0)"/>
       <use xlink:href="#DejaVuSans-32" transform="translate(127.246094 0)"/>
       <use xlink:href="#DejaVuSans-34" transform="translate(190.869141 0)"/>
      </g>
     </g>
    </g>
    <g id="xtick_4">
     <g id="line2d_7">
      <path d="M 596.896628 320.4 
L 596.896628 43.2 
" clip-path="url(#pe4bc246e18)" style="fill: none; stroke-dasharray: 5.12,1.28,0.8,1.28; stroke-dashoffset: 0; stroke: #b0b0b0; stroke-width: 0.8"/>
     </g>
     <g id="line2d_8">
      <g>
       <use xlink:href="#mb4c2111c27" x="596.896628" y="320.4" style="fill: #a9a9a9; stroke: #a9a9a9; stroke-width: 0.8"/>
      </g>
     </g>
     <g id="text_4">
      <!-- 2025 -->
      <g style="fill: #a9a9a9" transform="translate(584.171628 334.998438) scale(0.1 -0.1)">
       <defs>
        <path id="DejaVuSans-35" d="M 691 4666 
L 3169 4666 
L 3169 4134 
L 1269 4134 
L 1269 2991 
Q 1406 3038 1543 3061 
Q 1681 3084 1819 3084 
Q 2600 3084 3056 2656 
Q 3513 2228 3513 1497 
Q 3513 744 3044 326 
Q 2575 -91 1722 -91 
Q 1428 -91 1123 -41 
Q 819 9 494 109 
L 494 744 
Q 775 591 1075 516 
Q 1375 441 1709 441 
Q 2250 441 2565 725 
Q 2881 1009 2881 1497 
Q 2881 1984 2565 2268 
Q 2250 2553 1709 2553 
Q 1456 2553 1204 2497 
Q 953 2441 691 2322 
L 691 4666 
z
" transform="scale(0.015625)"/>
       </defs>
       <use xlink:href="#DejaVuSans-32"/>
       <use xlink:href="#DejaVuSans-30" transform="translate(63.623047 0)"/>
       <use xlink:href="#DejaVuSans-32" transform="translate(127.246094 0)"/>
       <use xlink:href="#DejaVuSans-35" transform="translate(190.869141 0)"/>
      </g>
     </g>
    </g>
    <g id="xtick_5">
     <g id="line2d_9">
      <path d="M 730.021526 320.4 
L 730.021526 43.2 
" clip-path="url(#pe4bc246e18)" style="fill: none; stroke-dasharray: 5.12,1.28,0.8,1.28; stroke-dashoffset: 0; stroke: #b0b0b0; stroke-width: 0.8"/>
     </g>
     <g id="line2d_10">
      <g>
       <use xlink:href="#mb4c2111c27" x="730.021526" y="320.4" style="fill: #a9a9a9; stroke: #a9a9a9; stroke-width: 0.8"/>
      </g>
     </g>
     <g id="text_5">
      <!-- 2026 -->
      <g style="fill: #a9a9a9" transform="translate(717.296526 334.998438) scale(0.1 -0.1)">
       <defs>
        <path id="DejaVuSans-36" d="M 2113 2584 
Q 1688 2584 1439 2293 
Q 1191 2003 1191 1497 
Q 1191 994 1439 701 
Q 1688 409 2113 409 
Q 2538 409 2786 701 
Q 3034 994 3034 1497 
Q 3034 2003 2786 2293 
Q 2538 2584 2113 2584 
z
M 3366 4563 
L 3366 3988 
Q 3128 4100 2886 4159 
Q 2644 4219 2406 4219 
Q 1781 4219 1451 3797 
Q 1122 3375 1075 2522 
Q 1259 2794 1537 2939 
Q 1816 3084 2150 3084 
Q 2853 3084 3261 2657 
Q 3669 2231 3669 1497 
Q 3669 778 3244 343 
Q 2819 -91 2113 -91 
Q 1303 -91 875 529 
Q 447 1150 447 2328 
Q 447 3434 972 4092 
Q 1497 4750 2381 4750 
Q 2619 4750 2861 4703 
Q 3103 4656 3366 4563 
z
" transform="scale(0.015625)"/>
       </defs>
       <use xlink:href="#DejaVuSans-32"/>
       <use xlink:href="#DejaVuSans-30" transform="translate(63.623047 0)"/>
       <use xlink:href="#DejaVuSans-32" transform="translate(127.246094 0)"/>
       <use xlink:href="#DejaVuSans-36" transform="translate(190.869141 0)"/>
      </g>
     </g>
    </g>
   </g>
   <g id="matplotlib.axis_2">
    <g id="ytick_1">
     <g id="line2d_11">
      <path d="M 108 307.829066 
L 777.6 307.829066 
" clip-path="url(#pe4bc246e18)" style="fill: none; stroke-dasharray: 5.12,1.28,0.8,1.28; stroke-dashoffset: 0; stroke: #b0b0b0; stroke-width: 0.8"/>
     </g>
     <g id="line2d_12">
      <defs>
       <path id="m2939602fd7" d="M 0 0 
L -3.5 0 
" style="stroke: #a9a9a9; stroke-width: 0.8"/>
      </defs>
      <g>
       <use xlink:href="#m2939602fd7" x="108" y="307.829066" style="fill: #a9a9a9; stroke: #a9a9a9; stroke-width: 0.8"/>
      </g>
     </g>
     <g id="text_6">
      <!-- 0 -->
      <g style="fill: #a9a9a9" transform="translate(94.6375 311.628284) scale(0.1 -0.1)">
       <use xlink:href="#DejaVuSans-30"/>
      </g>
     </g>
    </g>
    <g id="ytick_2">
     <g id="line2d_13">
      <path d="M 108 278.763322 
L 777.6 278.763322 
" clip-path="url(#pe4bc246e18)" style="fill: none; stroke-dasharray: 5.12,1.28,0.8,1.28; stroke-dashoffset: 0; stroke: #b0b0b0; stroke-width: 0.8"/>
     </g>
     <g id="line2d_14">
      <g>
       <use xlink:href="#m2939602fd7" x="108" y="278.763322" style="fill: #a9a9a9; stroke: #a9a9a9; stroke-width: 0.8"/>
      </g>
     </g>
     <g id="text_7">
      <!-- 1000 -->
      <g style="fill: #a9a9a9" transform="translate(75.55 282.562541) scale(0.1 -0.1)">
       <defs>
        <path id="DejaVuSans-31" d="M 794 531 
L 1825 531 
L 1825 4091 
L 703 3866 
L 703 4441 
L 1819 4666 
L 2450 4666 
L 2450 531 
L 3481 531 
L 3481 0 
L 794 0 
L 794 531 
z
" transform="scale(0.015625)"/>
       </defs>
       <use xlink:href="#DejaVuSans-31"/>
       <use xlink:href="#DejaVuSans-30" transform="translate(63.623047 0)"/>
       <use xlink:href="#DejaVuSans-30" transform="translate(127.246094 0)"/>
       <use xlink:href="#DejaVuSans-30" transform="translate(190.869141 0)"/>
      </g>
     </g>
    </g>
    <g id="ytick_3">
     <g id="line2d_15">
      <path d="M 108 249.697578 
L 777.6 249.697578 
" clip-path="url(#pe4bc246e18)" style="fill: none; stroke-dasharray: 5.12,1.28,0.8,1.28; stroke-dashoffset: 0; stroke: #b0b0b0; stroke-width: 0.8"/>
     </g>
     <g id="line2d_16">
      <g>
       <use xlink:href="#m2939602fd7" x="108" y="249.697578" style="fill: #a9a9a9; stroke: #a9a9a9; stroke-width: 0.8"/>
      </g>
     </g>
     <g id="text_8">
      <!-- 2000 -->
      <g style="fill: #a9a9a9" transform="translate(75.55 253.496797) scale(0.1 -0.1)">
       <use xlink:href="#DejaVuSans-32"/>
       <use xlink:href="#DejaVuSans-30" transform="translate(63.623047 0)"/>
       <use xlink:href="#DejaVuSans-30" transform="translate(127.246094 0)"/>
       <use xlink:href="#DejaVuSans-30" transform="translate(190.869141 0)"/>
      </g>
     </g>
    </g>
    <g id="ytick_4">
     <g id="line2d_17">
      <path d="M 108 220.631834 
L 777.6 220.631834 
" clip-path="url(#pe4bc246e18)" style="fill: none; stroke-dasharray: 5.12,1.28,0.8,1.28; stroke-dashoffset: 0; stroke: #b0b0b0; stroke-width: 0.8"/>
     </g>
     <g id="line2d_18">
      <g>
       <use xlink:href="#m2939602fd7" x="108" y="220.631834" style="fill: #a9a9a9; stroke: #a9a9a9; stroke-width: 0.8"/>
      </g>
     </g>
     <g id="text_9">
      <!-- 3000 -->
      <g style="fill: #a9a9a9" transform="translate(75.55 224.431053) scale(0.1 -0.1)">
       <use xlink:href="#DejaVuSans-33"/>
       <use xlink:href="#DejaVuSans-30" transform="translate(63.623047 0)"/>
       <use xlink:href="#DejaVuSans-30" transform="translate(127.246094 0)"/>
       <use xlink:href="#DejaVuSans-30" transform="translate(190.869141 0)"/>
      </g>
     </g>
    </g>
    <g id="ytick_5">
     <g id="line2d_19">
      <path d="M 108 191.56609 
L 777.6 191.56609 
" clip-path="url(#pe4bc246e18)" style="fill: none; stroke-dasharray: 5.12,1.28,0.8,1.28; stroke-dashoffset: 0; stroke: #b0b0b0; stroke-width: 0.8"/>
     </g>
     <g id="line2d_20">
      <g>
       <use xlink:href="#m2939602fd7" x="108" y="191.56609" style="fill: #a9a9a9; stroke: #a9a9a9; stroke-width: 0.8"/>
      </g>
     </g>
     <g id="text_10">
      <!-- 4000 -->
      <g style="fill: #a9a9a9" transform="translate(75.55 195.365309) scale(0.1 -0.1)">
       <use xlink:href="#DejaVuSans-34"/>
       <use xlink:href="#DejaVuSans-30" transform="translate(63.623047 0)"/>
       <use xlink:href="#DejaVuSans-30" transform="translate(127.246094 0)"/>
       <use xlink:href="#DejaVuSans-30" transform="translate(190.869141 0)"/>
      </g>
     </g>
    </g>
    <g id="ytick_6">
     <g id="line2d_21">
      <path d="M 108 162.500346 
L 777.6 162.500346 
" clip-path="url(#pe4bc246e18)" style="fill: none; stroke-dasharray: 5.12,1.28,0.8,1.28; stroke-dashoffset: 0; stroke: #b0b0b0; stroke-width: 0.8"/>
     </g>
     <g id="line2d_22">
      <g>
       <use xlink:href="#m2939602fd7" x="108" y="162.500346" style="fill: #a9a9a9; stroke: #a9a9a9; stroke-width: 0.8"/>
      </g>
     </g>
     <g id="text_11">
      <!-- 5000 -->
      <g style="fill: #a9a9a9" transform="translate(75.55 166.299565) scale(0.1 -0.1)">
       <use xlink:href="#DejaVuSans-35"/>
       <use xlink:href="#DejaVuSans-30" transform="translate(63.623047 0)"/>
       <use xlink:href="#DejaVuSans-30" transform="translate(127.246094 0)"/>
       <use xlink:href="#DejaVuSans-30" transform="translate(190.869141 0)"/>
      </g>
     </g>
    </g>
    <g id="ytick_7">
     <g id="line2d_23">
      <path d="M 108 133.434602 
L 777.6 133.434602 
" clip-path="url(#pe4bc246e18)" style="fill: none; stroke-dasharray: 5.12,1.28,0.8,1.28; stroke-dashoffset: 0; stroke: #b0b0b0; stroke-width: 0.8"/>
     </g>
     <g id="line2d_24">
      <g>
       <use xlink:href="#m2939602fd7" x="108" y="133.434602" style="fill: #a9a9a9; stroke: #a9a9a9; stroke-width: 0.8"/>
      </g>
     </g>
     <g id="text_12">
      <!-- 6000 -->
      <g style="fill: #a9a9a9" transform="translate(75.55 137.233821) scale(0.1 -0.1)">
       <use xlink:href="#DejaVuSans-36"/>
       <use xlink:href="#DejaVuSans-30" transform="translate(63.623047 0)"/>
       <use xlink:href="#DejaVuSans-30" transform="translate(127.246094 0)"/>
       <use xlink:href="#DejaVuSans-30" transform="translate(190.869141 0)"/>
      </g>
     </g>
    </g>
    <g id="ytick_8">
     <g id="line2d_25">
      <path d="M 108 104.368858 
L 777.6 104.368858 
" clip-path="url(#pe4bc246e18)" style="fill: none; stroke-dasharray: 5.12,1.28,0.8,1.28; stroke-dashoffset: 0; stroke: #b0b0b0; stroke-width: 0.8"/>
     </g>
     <g id="line2d_26">
      <g>
       <use xlink:href="#m2939602fd7" x="108" y="104.368858" style="fill: #a9a9a9; stroke: #a9a9a9; stroke-width: 0.8"/>
      </g>
     </g>
     <g id="text_13">
      <!-- 7000 -->
      <g style="fill: #a9a9a9" transform="translate(75.55 108.168077) scale(0.1 -0.1)">
       <defs>
        <path id="DejaVuSans-37" d="M 525 4666 
L 3525 4666 
L 3525 4397 
L 1831 0 
L 1172 0 
L 2766 4134 
L 525 4134 
L 525 4666 
z
" transform="scale(0.015625)"/>
       </defs>
       <use xlink:href="#DejaVuSans-37"/>
       <use xlink:href="#DejaVuSans-30" transform="translate(63.623047 0)"/>
       <use xlink:href="#DejaVuSans-30" transform="translate(127.246094 0)"/>
       <use xlink:href="#DejaVuSans-30" transform="translate(190.869141 0)"/>
      </g>
     </g>
    </g>
    <g id="ytick_9">
     <g id="line2d_27">
      <path d="M 108 75.303114 
L 777.6 75.303114 
" clip-path="url(#pe4bc246e18)" style="fill: none; stroke-dasharray: 5.12,1.28,0.8,1.28; stroke-dashoffset: 0; stroke: #b0b0b0; stroke-width: 0.8"/>
     </g>
     <g id="line2d_28">
      <g>
       <use xlink:href="#m2939602fd7" x="108" y="75.303114" style="fill: #a9a9a9; stroke: #a9a9a9; stroke-width: 0.8"/>
      </g>
     </g>
     <g id="text_14">
      <!-- 8000 -->
      <g style="fill: #a9a9a9" transform="translate(75.55 79.102333) scale(0.1 -0.1)">
       <defs>
        <path id="DejaVuSans-38" d="M 2034 2216 
Q 1584 2216 1326 1975 
Q 1069 1734 1069 1313 
Q 1069 891 1326 650 
Q 1584 409 2034 409 
Q 2484 409 2743 651 
Q 3003 894 3003 1313 
Q 3003 1734 2745 1975 
Q 2488 2216 2034 2216 
z
M 1403 2484 
Q 997 2584 770 2862 
Q 544 3141 544 3541 
Q 544 4100 942 4425 
Q 1341 4750 2034 4750 
Q 2731 4750 3128 4425 
Q 3525 4100 3525 3541 
Q 3525 3141 3298 2862 
Q 3072 2584 2669 2484 
Q 3125 2378 3379 2068 
Q 3634 1759 3634 1313 
Q 3634 634 3220 271 
Q 2806 -91 2034 -91 
Q 1263 -91 848 271 
Q 434 634 434 1313 
Q 434 1759 690 2068 
Q 947 2378 1403 2484 
z
M 1172 3481 
Q 1172 3119 1398 2916 
Q 1625 2713 2034 2713 
Q 2441 2713 2670 2916 
Q 2900 3119 2900 3481 
Q 2900 3844 2670 4047 
Q 2441 4250 2034 4250 
Q 1625 4250 1398 4047 
Q 1172 3844 1172 3481 
z
" transform="scale(0.015625)"/>
       </defs>
       <use xlink:href="#DejaVuSans-38"/>
       <use xlink:href="#DejaVuSans-30" transform="translate(63.623047 0)"/>
       <use xlink:href="#DejaVuSans-30" transform="translate(127.246094 0)"/>
       <use xlink:href="#DejaVuSans-30" transform="translate(190.869141 0)"/>
      </g>
     </g>
    </g>
    <g id="ytick_10">
     <g id="line2d_29">
      <path d="M 108 46.23737 
L 777.6 46.23737 
" clip-path="url(#pe4bc246e18)" style="fill: none; stroke-dasharray: 5.12,1.28,0.8,1.28; stroke-dashoffset: 0; stroke: #b0b0b0; stroke-width: 0.8"/>
     </g>
     <g id="line2d_30">
      <g>
       <use xlink:href="#m2939602fd7" x="108" y="46.23737" style="fill: #a9a9a9; stroke: #a9a9a9; stroke-width: 0.8"/>
      </g>
     </g>
     <g id="text_15">
      <!-- 9000 -->
      <g style="fill: #a9a9a9" transform="translate(75.55 50.036589) scale(0.1 -0.1)">
       <defs>
        <path id="DejaVuSans-39" d="M 703 97 
L 703 672 
Q 941 559 1184 500 
Q 1428 441 1663 441 
Q 2288 441 2617 861 
Q 2947 1281 2994 2138 
Q 2813 1869 2534 1725 
Q 2256 1581 1919 1581 
Q 1219 1581 811 2004 
Q 403 2428 403 3163 
Q 403 3881 828 4315 
Q 1253 4750 1959 4750 
Q 2769 4750 3195 4129 
Q 3622 3509 3622 2328 
Q 3622 1225 3098 567 
Q 2575 -91 1691 -91 
Q 1453 -91 1209 -44 
Q 966 3 703 97 
z
M 1959 2075 
Q 2384 2075 2632 2365 
Q 2881 2656 2881 3163 
Q 2881 3666 2632 3958 
Q 2384 4250 1959 4250 
Q 1534 4250 1286 3958 
Q 1038 3666 1038 3163 
Q 1038 2656 1286 2365 
Q 1534 2075 1959 2075 
z
" transform="scale(0.015625)"/>
       </defs>
       <use xlink:href="#DejaVuSans-39"/>
       <use xlink:href="#DejaVuSans-30" transform="translate(63.623047 0)"/>
       <use xlink:href="#DejaVuSans-30" transform="translate(127.246094 0)"/>
       <use xlink:href="#DejaVuSans-30" transform="translate(190.869141 0)"/>
      </g>
     </g>
    </g>
   </g>
   <g id="line2d_31">
    <path d="M 138.436364 307.741869 
L 140.624718 307.538408 
L 140.989444 307.364014 
L 142.448347 307.160554 
L 143.90725 306.84083 
L 144.636701 306.724567 
L 146.46033 306.550173 
L 147.189782 306.259516 
L 147.554507 305.736332 
L 147.919233 305.47474 
L 148.283959 304.602768 
L 148.648685 304.544637 
L 149.378136 304.079585 
L 150.107588 303.527336 
L 151.566491 302.422837 
L 151.931216 302.277509 
L 152.660668 301.812457 
L 153.754845 301.260208 
L 154.119571 300.620761 
L 154.849022 300.039446 
L 155.578474 299.80692 
L 156.672651 299.632526 
L 158.861006 299.283737 
L 159.225731 299.109343 
L 161.778811 298.876817 
L 163.237714 298.498962 
L 166.15552 298.062976 
L 166.520246 297.859516 
L 166.884972 297.801384 
L 167.614423 297.539792 
L 170.167504 297.07474 
L 170.896955 296.842215 
L 174.179487 296.2609 
L 174.908938 296.086505 
L 176.367841 295.883045 
L 177.097293 295.650519 
L 177.462019 295.09827 
L 178.556196 294.633218 
L 179.650373 294.313495 
L 180.015099 294.110035 
L 180.74455 293.964706 
L 182.568179 293.499654 
L 183.662356 293.238062 
L 185.121259 292.860208 
L 185.485985 292.831142 
L 186.215437 292.453287 
L 186.580162 292.395156 
L 186.944888 292.191696 
L 190.956871 291.494118 
L 192.415774 291.029066 
L 192.7805 290.767474 
L 194.604129 290.128028 
L 195.33358 289.575779 
L 196.427758 289.343253 
L 204.451724 286.843599 
L 204.81645 286.814533 
L 205.910627 286.465744 
L 206.275353 286.465744 
L 206.640078 286.291349 
L 207.36953 286.204152 
L 207.734256 286.058824 
L 209.557884 285.971626 
L 209.92261 285.884429 
L 210.652062 285.477509 
L 211.746239 285.070588 
L 212.47569 284.663668 
L 213.569868 284.16955 
L 215.028771 283.413841 
L 215.393496 283.00692 
L 216.122948 281.786159 
L 217.217125 281.43737 
L 217.581851 281.146713 
L 218.676028 280.739792 
L 219.040754 280.361938 
L 220.134931 279.896886 
L 220.499657 279.693426 
L 222.688011 277.048443 
L 223.417463 276.699654 
L 224.876366 275.653287 
L 225.605817 275.130104 
L 225.970543 274.577855 
L 226.335269 273.676817 
L 226.699995 273.095502 
L 230.347252 269.752941 
L 231.076704 269.026298 
L 232.535607 268.038062 
L 232.900332 267.689273 
L 233.629784 267.456747 
L 234.723961 266.788235 
L 235.818138 266.00346 
L 237.277041 264.579239 
L 238.006493 264.259516 
L 238.735944 263.736332 
L 239.10067 263.503806 
L 239.465396 263.445675 
L 240.559573 262.777163 
L 240.924299 262.341176 
L 242.747927 261.265744 
L 243.112653 261.120415 
L 244.20683 260.306574 
L 249.677717 258.213841 
L 250.407168 257.487197 
L 251.501345 256.905882 
L 252.230797 256.411765 
L 252.960248 256.179239 
L 253.324974 255.917647 
L 253.6897 255.801384 
L 254.783877 255.016609 
L 256.607506 254.580623 
L 257.701683 253.883045 
L 258.79586 253.621453 
L 259.160586 253.534256 
L 260.254763 252.720415 
L 261.713666 252.284429 
L 262.078392 251.993772 
L 264.266747 251.179931 
L 264.996198 251.034602 
L 265.72565 250.714879 
L 268.27873 249.726644 
L 269.008181 249.639446 
L 270.467084 249.058131 
L 274.479067 246.936332 
L 275.208519 246.587543 
L 275.93797 246.238754 
L 276.667422 246.093426 
L 277.396873 245.628374 
L 278.126325 245.424913 
L 279.220502 244.959862 
L 280.679405 244.756401 
L 281.408857 244.349481 
L 281.773582 244.000692 
L 282.138308 243.303114 
L 283.597211 242.867128 
L 285.056114 242.16955 
L 288.338646 240.629066 
L 289.068097 240.454671 
L 290.162275 239.873356 
L 290.527 239.815225 
L 292.350629 238.856055 
L 293.080081 238.361938 
L 294.174258 238.129412 
L 297.45679 236.966782 
L 298.915693 236.327336 
L 299.280418 236.036678 
L 300.00987 235.629758 
L 300.739321 235.3391 
L 301.104047 235.251903 
L 302.56295 234.467128 
L 302.927676 234.060208 
L 303.292402 233.827682 
L 303.657127 233.740484 
L 304.386579 233.101038 
L 304.751305 233.042907 
L 305.11603 232.40346 
L 305.480756 232.258131 
L 305.845482 231.938408 
L 306.210208 231.880277 
L 306.939659 231.386159 
L 307.669111 231.124567 
L 308.033836 230.83391 
L 308.763288 230.42699 
L 310.222191 229.496886 
L 312.410545 228.479585 
L 312.775271 227.811073 
L 313.504722 227.229758 
L 313.869448 227.142561 
L 316.057803 226.038062 
L 316.787254 225.718339 
L 317.516706 225.16609 
L 318.246157 224.381315 
L 320.069786 222.957093 
L 320.799237 222.346713 
L 321.163963 222.172318 
L 321.893415 221.387543 
L 322.987592 220.86436 
L 323.717043 220.428374 
L 324.081769 220.312111 
L 324.446495 220.021453 
L 324.811221 219.963322 
L 328.093752 218.219377 
L 328.823204 218.015917 
L 330.282107 217.492734 
L 331.011558 216.998616 
L 332.470461 216.446367 
L 333.199913 215.952249 
L 333.929364 215.661592 
L 334.658816 215.109343 
L 335.388267 213.568858 
L 336.117719 212.696886 
L 337.211896 212.086505 
L 337.941348 211.766782 
L 338.306073 211.708651 
L 339.035525 211.359862 
L 340.859154 210.691349 
L 341.588605 210.197232 
L 342.682782 209.73218 
L 344.141685 208.831142 
L 344.506411 208.56955 
L 344.871137 208.133564 
L 345.965314 207.465052 
L 346.33004 207.319723 
L 347.059491 206.854671 
L 348.518394 206.011765 
L 348.88312 205.924567 
L 349.247846 205.63391 
L 351.800926 204.761938 
L 352.165652 204.500346 
L 352.895103 204.26782 
L 355.812909 202.814533 
L 356.542361 202.407612 
L 356.907086 202.233218 
L 357.636538 201.622837 
L 358.365989 201.419377 
L 358.730715 201.070588 
L 359.095441 201.012457 
L 359.824892 200.431142 
L 361.648521 199.297578 
L 362.377973 199.065052 
L 362.742698 198.832526 
L 363.107424 198.774394 
L 365.295779 197.815225 
L 369.672488 196.420069 
L 370.766665 195.635294 
L 371.496116 195.228374 
L 372.955019 194.50173 
L 374.049197 193.746021 
L 374.778648 193.571626 
L 375.872825 192.874048 
L 379.155357 191.711419 
L 379.884809 191.449827 
L 381.343712 191.130104 
L 382.073163 190.897578 
L 383.896792 190.258131 
L 384.990969 189.909343 
L 385.720421 189.734948 
L 387.908775 189.328028 
L 388.638226 189.182699 
L 389.732404 188.921107 
L 390.097129 188.746713 
L 390.826581 188.601384 
L 391.556032 188.397924 
L 392.285484 188.049135 
L 392.65021 187.903806 
L 393.014935 187.903806 
L 398.485822 186.10173 
L 398.850547 185.69481 
L 401.038902 184.73564 
L 402.497805 184.212457 
L 402.862531 183.979931 
L 403.956708 183.631142 
L 405.415611 183.078893 
L 405.780337 182.75917 
L 406.874514 182.526644 
L 407.603965 182.177855 
L 407.968691 181.712803 
L 411.980674 180.782699 
L 412.3454 180.782699 
L 413.074852 180.550173 
L 416.357383 179.707266 
L 417.086835 179.532872 
L 423.651898 177.352941 
L 424.016624 177.091349 
L 424.746075 176.858824 
L 427.663881 175.812457 
L 428.393333 175.754325 
L 429.852236 175.318339 
L 430.216962 175.085813 
L 430.946413 174.853287 
L 433.134768 173.923183 
L 437.511477 172.295502 
L 440.794008 171.220069 
L 442.252911 169.970242 
L 444.805992 168.836678 
L 447.359072 167.703114 
L 448.088523 167.499654 
L 451.371055 165.842907 
L 452.100507 165.40692 
L 455.383038 163.779239 
L 455.747764 163.488581 
L 457.571393 162.791003 
L 460.124473 161.831834 
L 460.853925 161.744637 
L 461.21865 161.483045 
L 462.677553 161.192388 
L 463.407005 160.872664 
L 465.230633 159.971626 
L 469.972068 157.791696 
L 471.066245 157.413841 
L 471.430971 157.152249 
L 472.160423 157.065052 
L 472.525148 156.80346 
L 473.2546 156.687197 
L 477.996035 154.914187 
L 479.090212 154.652595 
L 480.549115 154.013149 
L 481.278566 153.606228 
L 482.737469 152.821453 
L 483.466921 152.647059 
L 483.831647 152.414533 
L 484.196372 152.327336 
L 486.020001 151.397232 
L 490.761436 149.56609 
L 491.126162 149.507958 
L 492.585065 148.781315 
L 493.314516 148.635986 
L 494.043968 148.2 
L 495.502871 147.473356 
L 502.067934 144.886505 
L 503.526837 143.607612 
L 504.621014 143.171626 
L 507.174094 141.892734 
L 507.53882 141.631142 
L 508.268272 141.427682 
L 508.997723 141.020761 
L 510.0919 140.75917 
L 515.927512 138.317647 
L 517.751141 137.561938 
L 519.57477 136.980623 
L 520.668947 136.253979 
L 521.033673 136.166782 
L 521.763124 135.788927 
L 522.492576 135.556401 
L 522.857302 135.207612 
L 523.951479 134.771626 
L 524.316205 134.713495 
L 525.775108 134.015917 
L 526.869285 133.667128 
L 527.963462 133.260208 
L 529.057639 132.940484 
L 529.422365 132.882353 
L 530.151817 132.475433 
L 530.516542 132.330104 
L 530.881268 132.039446 
L 531.975445 131.748789 
L 532.704897 131.458131 
L 533.434348 131.138408 
L 534.893251 130.528028 
L 537.446331 129.888581 
L 538.175783 129.597924 
L 539.634686 129.307266 
L 540.364137 129.161938 
L 541.458315 128.725952 
L 542.552492 128.493426 
L 544.740846 127.156401 
L 545.835024 126.487889 
L 548.023378 125.790311 
L 548.388104 125.499654 
L 551.30591 124.453287 
L 552.400087 124.104498 
L 553.129539 123.697578 
L 553.85899 123.494118 
L 554.223716 123.290657 
L 554.953167 123.145329 
L 556.776796 122.302422 
L 557.506248 122.011765 
L 558.965151 121.43045 
L 559.329876 121.081661 
L 559.694602 121.023529 
L 561.153505 120.413149 
L 562.612408 120.035294 
L 562.977134 120.006228 
L 563.34186 119.831834 
L 564.071311 119.686505 
L 567.353843 118.669204 
L 568.083294 118.087889 
L 569.542197 117.244983 
L 569.906923 117.157785 
L 570.271649 116.954325 
L 570.636375 116.896194 
L 573.918906 115.268512 
L 574.283632 114.948789 
L 576.107261 114.512803 
L 577.201438 114.018685 
L 577.930889 113.815225 
L 578.295615 113.64083 
L 578.660341 113.321107 
L 581.213421 112.391003 
L 582.307598 111.896886 
L 582.672324 111.86782 
L 583.401776 111.577163 
L 584.860679 110.937716 
L 587.049033 110.385467 
L 588.14321 109.891349 
L 591.425742 108.815917 
L 592.155194 108.408997 
L 604.555869 104.572318 
L 605.285321 104.368858 
L 606.379498 103.961938 
L 606.744224 103.961938 
L 607.838401 103.700346 
L 608.567852 103.555017 
L 609.297304 103.351557 
L 610.391481 102.770242 
L 611.485658 102.421453 
L 614.038738 101.549481 
L 615.497641 100.793772 
L 618.050722 99.921799 
L 618.415447 99.602076 
L 619.144899 99.36955 
L 619.509625 99.137024 
L 620.239076 99.049827 
L 622.792156 98.323183 
L 623.886334 98.090657 
L 626.80414 97.044291 
L 631.545574 95.213149 
L 632.275026 95.096886 
L 633.004477 94.951557 
L 633.369203 94.951557 
L 634.46338 94.602768 
L 635.557558 94.253979 
L 638.840089 93.323875 
L 639.204815 93.29481 
L 641.028444 92.684429 
L 642.487347 92.393772 
L 643.581524 91.870588 
L 644.675701 91.608997 
L 645.405153 91.289273 
L 647.593507 90.504498 
L 647.958233 90.446367 
L 648.687685 90.184775 
L 653.064393 89.051211 
L 655.252748 88.295502 
L 655.982199 88.23737 
L 658.170554 87.685121 
L 658.900005 87.365398 
L 659.264731 87.307266 
L 659.629457 87.132872 
L 660.358908 86.493426 
L 664.006166 85.156401 
L 666.19452 84.575087 
L 666.923972 84.168166 
L 667.288698 84.080969 
L 668.382875 83.470588 
L 668.747601 83.383391 
L 669.112326 83.092734 
L 670.206504 82.77301 
L 675.67739 80.244291 
L 677.501019 79.604844 
L 677.865744 79.285121 
L 678.23047 79.197924 
L 678.959922 78.732872 
L 680.054099 78.413149 
L 681.513002 77.802768 
L 681.877728 77.773702 
L 683.701356 77.076125 
L 684.430808 76.930796 
L 685.160259 76.407612 
L 685.524985 76.407612 
L 686.983888 75.884429 
L 688.442791 75.593772 
L 689.901694 74.954325 
L 690.26642 74.954325 
L 691.360597 74.576471 
L 692.090048 74.460208 
L 693.184226 73.820761 
L 693.913677 73.442907 
L 696.831483 72.39654 
L 697.560935 72.164014 
L 699.384563 71.815225 
L 705.220175 70.042215 
L 705.584901 69.984083 
L 706.314353 69.693426 
L 707.773256 69.373702 
L 710.691062 68.29827 
L 711.420513 68.152941 
L 712.879416 67.891349 
L 713.608868 67.775087 
L 715.067771 67.193772 
L 715.797222 66.990311 
L 716.526674 66.874048 
L 717.985577 66.408997 
L 718.350302 66.408997 
L 718.715028 66.118339 
L 719.44448 65.885813 
L 719.809205 65.885813 
L 723.456463 64.60692 
L 724.55064 64.141869 
L 724.915366 64.083737 
L 725.644817 63.734948 
L 726.374269 63.415225 
L 727.10372 63.095502 
L 727.833172 62.804844 
L 728.197897 62.601384 
L 728.562623 62.543253 
L 729.292075 62.194464 
L 730.386252 61.729412 
L 732.209881 60.944637 
L 732.574606 60.712111 
L 732.939332 60.624913 
L 733.304058 60.392388 
L 733.668784 60.334256 
L 734.398235 59.869204 
L 736.58659 59.346021 
L 737.316041 58.9391 
L 737.680767 58.880969 
L 739.13967 58.299654 
L 744.610556 56.235986 
L 746.069459 55.887197 
L 747.163636 55.8 
L 747.163636 55.8 
" clip-path="url(#pe4bc246e18)" style="fill: none; stroke: #1f77b4; stroke-width: 1.5; stroke-linecap: square"/>
   </g>
   <g id="line2d_32">
    <path d="M 138.801089 307.8 
L 142.083621 307.712803 
L 145.001427 307.567474 
L 146.46033 307.567474 
L 147.189782 307.451211 
L 156.307925 306.811765 
L 158.861006 306.724567 
L 160.684634 306.666436 
L 165.426069 306.579239 
L 167.249698 306.521107 
L 170.532229 306.43391 
L 171.991132 306.404844 
L 175.63839 306.317647 
L 177.097293 306.172318 
L 178.556196 306.143253 
L 180.74455 306.056055 
L 182.203453 306.02699 
L 184.027082 305.968858 
L 185.485985 305.823529 
L 188.768517 305.736332 
L 189.497968 305.678201 
L 190.956871 305.591003 
L 193.145226 305.503806 
L 194.604129 305.416609 
L 201.169192 304.980623 
L 203.722272 304.893426 
L 204.81645 304.777163 
L 206.640078 304.689965 
L 210.287336 304.486505 
L 213.934593 304.428374 
L 215.393496 304.253979 
L 217.217125 304.166782 
L 220.864383 303.788927 
L 223.052737 303.49827 
L 224.51164 303.440138 
L 227.429446 303.033218 
L 229.617801 302.975087 
L 230.711978 302.858824 
L 231.806155 302.771626 
L 250.771894 301.347405 
L 253.324974 301.260208 
L 254.783877 301.085813 
L 256.607506 300.998616 
L 258.79586 300.911419 
L 260.619489 300.824221 
L 262.078392 300.795156 
L 263.902021 300.737024 
L 264.631472 300.649827 
L 269.737633 300.56263 
L 270.467084 300.475433 
L 274.843793 300.388235 
L 278.126325 300.213841 
L 280.679405 300.126644 
L 282.138308 299.952249 
L 284.691388 299.865052 
L 285.42084 299.748789 
L 287.244469 299.690657 
L 290.891726 299.632526 
L 292.350629 299.487197 
L 293.809532 299.458131 
L 294.903709 299.370934 
L 296.362612 299.225606 
L 300.00987 299.022145 
L 303.657127 298.934948 
L 306.939659 298.760554 
L 308.033836 298.731488 
L 308.763288 298.615225 
L 310.586916 298.528028 
L 311.316368 298.469896 
L 313.139997 298.382699 
L 314.5989 298.353633 
L 317.15198 298.266436 
L 326.634849 297.597924 
L 328.823204 297.510727 
L 330.646833 297.452595 
L 335.752993 297.365398 
L 336.482445 297.278201 
L 341.588605 297.191003 
L 345.235863 296.987543 
L 345.965314 296.958478 
L 346.694766 296.87128 
L 348.518394 296.784083 
L 350.342023 296.725952 
L 352.165652 296.638754 
L 353.98928 296.580623 
L 357.271812 296.493426 
L 359.460167 296.406228 
L 364.566327 296.319031 
L 368.57831 296.086505 
L 370.037213 296.028374 
L 371.131391 295.941176 
L 376.237551 295.853979 
L 378.425906 295.766782 
L 384.990969 295.679585 
L 386.449872 295.650519 
L 390.826581 295.592388 
L 391.556032 295.534256 
L 396.662193 295.447059 
L 398.121096 295.417993 
L 407.603965 295.330796 
L 409.79232 295.243599 
L 425.110801 295.156401 
L 426.93443 295.09827 
L 437.511477 295.011073 
L 441.52346 294.778547 
L 443.711814 294.691349 
L 445.900169 294.604152 
L 449.547426 294.516955 
L 452.100507 294.400692 
L 455.018313 294.313495 
L 457.936119 294.168166 
L 464.865908 294.080969 
L 467.054262 293.993772 
L 471.066245 293.906574 
L 473.619326 293.790311 
L 476.172406 293.73218 
L 476.901857 293.674048 
L 485.655275 293.586851 
L 489.302533 293.383391 
L 491.855613 293.296194 
L 495.867596 293.063668 
L 500.244305 292.976471 
L 501.703208 292.947405 
L 502.43266 292.889273 
L 504.256288 292.685813 
L 507.903546 292.598616 
L 508.632997 292.511419 
L 512.280255 292.424221 
L 514.103884 292.36609 
L 518.115867 292.337024 
L 518.845318 292.249827 
L 522.857302 292.16263 
L 523.586753 292.104498 
L 531.61072 292.017301 
L 533.799074 291.930104 
L 539.26996 291.842907 
L 540.728863 291.813841 
L 544.011395 291.755709 
L 544.740846 291.668512 
L 549.482281 291.581315 
L 551.30591 291.523183 
L 557.870973 291.435986 
L 558.965151 291.348789 
L 560.059328 291.261592 
L 561.153505 291.174394 
L 566.624391 291.087197 
L 568.812746 291 
L 579.389792 290.912803 
L 582.672324 290.738408 
L 587.778485 290.651211 
L 589.237388 290.622145 
L 593.614097 290.534948 
L 595.437725 290.476817 
L 603.826418 290.389619 
L 606.014772 290.302422 
L 612.21511 290.215225 
L 613.674013 290.186159 
L 617.32127 290.098962 
L 619.87435 289.982699 
L 623.886334 289.895502 
L 626.439414 289.779239 
L 629.721946 289.721107 
L 630.451397 289.662976 
L 638.475364 289.575779 
L 640.663718 289.488581 
L 643.216798 289.401384 
L 645.040427 289.343253 
L 655.617474 289.256055 
L 657.805828 289.168858 
L 664.006166 289.081661 
L 665.829795 289.023529 
L 670.571229 288.936332 
L 672.759584 288.849135 
L 675.67739 288.761938 
L 677.865744 288.67474 
L 692.454774 288.587543 
L 695.37258 288.442215 
L 703.761272 288.355017 
L 705.220175 288.325952 
L 713.973593 288.238754 
L 715.797222 288.180623 
L 727.468446 288.093426 
L 728.927349 288.06436 
L 739.869121 287.977163 
L 740.598573 287.919031 
L 747.163636 287.889965 
L 747.163636 287.889965 
" clip-path="url(#pe4bc246e18)" style="fill: none; stroke: #ff7f0e; stroke-width: 1.5; stroke-linecap: square"/>
   </g>
   <g id="patch_3">
    <path d="M 108 320.4 
L 108 43.2 
" style="fill: none; stroke: #a9a9a9; stroke-width: 0.8; stroke-linejoin: miter; stroke-linecap: square"/>
   </g>
   <g id="patch_4">
    <path d="M 777.6 320.4 
L 777.6 43.2 
" style="fill: none"/>
   </g>
   <g id="patch_5">
    <path d="M 108 320.4 
L 777.6 320.4 
" style="fill: none; stroke: #a9a9a9; stroke-width: 0.8; stroke-linejoin: miter; stroke-linecap: square"/>
   </g>
   <g id="patch_6">
    <path d="M 108 43.2 
L 777.6 43.2 
" style="fill: none"/>
   </g>
   <g id="text_16">
    <!-- get_subscribe history -->
    <g style="fill: #a9a9a9" transform="translate(378.6075 37.2) scale(0.12 -0.12)">
     <defs>
      <path id="DejaVuSans-67" d="M 2906 1791 
Q 2906 2416 2648 2759 
Q 2391 3103 1925 3103 
Q 1463 3103 1205 2759 
Q 947 2416 947 1791 
Q 947 1169 1205 825 
Q 1463 481 1925 481 
Q 2391 481 2648 825 
Q 2906 1169 2906 1791 
z
M 3481 434 
Q 3481 -459 3084 -895 
Q 2688 -1331 1869 -1331 
Q 1566 -1331 1297 -1286 
Q 1028 -1241 775 -1147 
L 775 -588 
Q 1028 -725 1275 -790 
Q 1522 -856 1778 -856 
Q 2344 -856 2625 -561 
Q 2906 -266 2906 331 
L 2906 616 
Q 2728 306 2450 153 
Q 2172 0 1784 0 
Q 1141 0 747 490 
Q 353 981 353 1791 
Q 353 2603 747 3093 
Q 1141 3584 1784 3584 
Q 2172 3584 2450 3431 
Q 2728 3278 2906 2969 
L 2906 3500 
L 3481 3500 
L 3481 434 
z
" transform="scale(0.015625)"/>
      <path id="DejaVuSans-65" d="M 3597 1894 
L 3597 1613 
L 953 1613 
Q 991 1019 1311 708 
Q 1631 397 2203 397 
Q 2534 397 2845 478 
Q 3156 559 3463 722 
L 3463 178 
Q 3153 47 2828 -22 
Q 2503 -91 2169 -91 
Q 1331 -91 842 396 
Q 353 884 353 1716 
Q 353 2575 817 3079 
Q 1281 3584 2069 3584 
Q 2775 3584 3186 3129 
Q 3597 2675 3597 1894 
z
M 3022 2063 
Q 3016 2534 2758 2815 
Q 2500 3097 2075 3097 
Q 1594 3097 1305 2825 
Q 1016 2553 972 2059 
L 3022 2063 
z
" transform="scale(0.015625)"/>
      <path id="DejaVuSans-74" d="M 1172 4494 
L 1172 3500 
L 2356 3500 
L 2356 3053 
L 1172 3053 
L 1172 1153 
Q 1172 725 1289 603 
Q 1406 481 1766 481 
L 2356 481 
L 2356 0 
L 1766 0 
Q 1100 0 847 248 
Q 594 497 594 1153 
L 594 3053 
L 172 3053 
L 172 3500 
L 594 3500 
L 594 4494 
L 1172 4494 
z
" transform="scale(0.015625)"/>
      <path id="DejaVuSans-5f" d="M 3263 -1063 
L 3263 -1509 
L -63 -1509 
L -63 -1063 
L 3263 -1063 
z
" transform="scale(0.015625)"/>
      <path id="DejaVuSans-73" d="M 2834 3397 
L 2834 2853 
Q 2591 2978 2328 3040 
Q 2066 3103 1784 3103 
Q 1356 3103 1142 2972 
Q 928 2841 928 2578 
Q 928 2378 1081 2264 
Q 1234 2150 1697 2047 
L 1894 2003 
Q 2506 1872 2764 1633 
Q 3022 1394 3022 966 
Q 3022 478 2636 193 
Q 2250 -91 1575 -91 
Q 1294 -91 989 -36 
Q 684 19 347 128 
L 347 722 
Q 666 556 975 473 
Q 1284 391 1588 391 
Q 1994 391 2212 530 
Q 2431 669 2431 922 
Q 2431 1156 2273 1281 
Q 2116 1406 1581 1522 
L 1381 1569 
Q 847 1681 609 1914 
Q 372 2147 372 2553 
Q 372 3047 722 3315 
Q 1072 3584 1716 3584 
Q 2034 3584 2315 3537 
Q 2597 3491 2834 3397 
z
" transform="scale(0.015625)"/>
      <path id="DejaVuSans-75" d="M 544 1381 
L 544 3500 
L 1119 3500 
L 1119 1403 
Q 1119 906 1312 657 
Q 1506 409 1894 409 
Q 2359 409 2629 706 
Q 2900 1003 2900 1516 
L 2900 3500 
L 3475 3500 
L 3475 0 
L 2900 0 
L 2900 538 
Q 2691 219 2414 64 
Q 2138 -91 1772 -91 
Q 1169 -91 856 284 
Q 544 659 544 1381 
z
M 1991 3584 
L 1991 3584 
z
" transform="scale(0.015625)"/>
      <path id="DejaVuSans-62" d="M 3116 1747 
Q 3116 2381 2855 2742 
Q 2594 3103 2138 3103 
Q 1681 3103 1420 2742 
Q 1159 2381 1159 1747 
Q 1159 1113 1420 752 
Q 1681 391 2138 391 
Q 2594 391 2855 752 
Q 3116 1113 3116 1747 
z
M 1159 2969 
Q 1341 3281 1617 3432 
Q 1894 3584 2278 3584 
Q 2916 3584 3314 3078 
Q 3713 2572 3713 1747 
Q 3713 922 3314 415 
Q 2916 -91 2278 -91 
Q 1894 -91 1617 61 
Q 1341 213 1159 525 
L 1159 0 
L 581 0 
L 581 4863 
L 1159 4863 
L 1159 2969 
z
" transform="scale(0.015625)"/>
      <path id="DejaVuSans-63" d="M 3122 3366 
L 3122 2828 
Q 2878 2963 2633 3030 
Q 2388 3097 2138 3097 
Q 1578 3097 1268 2742 
Q 959 2388 959 1747 
Q 959 1106 1268 751 
Q 1578 397 2138 397 
Q 2388 397 2633 464 
Q 2878 531 3122 666 
L 3122 134 
Q 2881 22 2623 -34 
Q 2366 -91 2075 -91 
Q 1284 -91 818 406 
Q 353 903 353 1747 
Q 353 2603 823 3093 
Q 1294 3584 2113 3584 
Q 2378 3584 2631 3529 
Q 2884 3475 3122 3366 
z
" transform="scale(0.015625)"/>
      <path id="DejaVuSans-72" d="M 2631 2963 
Q 2534 3019 2420 3045 
Q 2306 3072 2169 3072 
Q 1681 3072 1420 2755 
Q 1159 2438 1159 1844 
L 1159 0 
L 581 0 
L 581 3500 
L 1159 3500 
L 1159 2956 
Q 1341 3275 1631 3429 
Q 1922 3584 2338 3584 
Q 2397 3584 2469 3576 
Q 2541 3569 2628 3553 
L 2631 2963 
z
" transform="scale(0.015625)"/>
      <path id="DejaVuSans-69" d="M 603 3500 
L 1178 3500 
L 1178 0 
L 603 0 
L 603 3500 
z
M 603 4863 
L 1178 4863 
L 1178 4134 
L 603 4134 
L 603 4863 
z
" transform="scale(0.015625)"/>
      <path id="DejaVuSans-20" transform="scale(0.015625)"/>
      <path id="DejaVuSans-68" d="M 3513 2113 
L 3513 0 
L 2938 0 
L 2938 2094 
Q 2938 2591 2744 2837 
Q 2550 3084 2163 3084 
Q 1697 3084 1428 2787 
Q 1159 2491 1159 1978 
L 1159 0 
L 581 0 
L 581 4863 
L 1159 4863 
L 1159 2956 
Q 1366 3272 1645 3428 
Q 1925 3584 2291 3584 
Q 2894 3584 3203 3211 
Q 3513 2838 3513 2113 
z
" transform="scale(0.015625)"/>
      <path id="DejaVuSans-6f" d="M 1959 3097 
Q 1497 3097 1228 2736 
Q 959 2375 959 1747 
Q 959 1119 1226 758 
Q 1494 397 1959 397 
Q 2419 397 2687 759 
Q 2956 1122 2956 1747 
Q 2956 2369 2687 2733 
Q 2419 3097 1959 3097 
z
M 1959 3584 
Q 2709 3584 3137 3096 
Q 3566 2609 3566 1747 
Q 3566 888 3137 398 
Q 2709 -91 1959 -91 
Q 1206 -91 779 398 
Q 353 888 353 1747 
Q 353 2609 779 3096 
Q 1206 3584 1959 3584 
z
" transform="scale(0.015625)"/>
      <path id="DejaVuSans-79" d="M 2059 -325 
Q 1816 -950 1584 -1140 
Q 1353 -1331 966 -1331 
L 506 -1331 
L 506 -850 
L 844 -850 
Q 1081 -850 1212 -737 
Q 1344 -625 1503 -206 
L 1606 56 
L 191 3500 
L 800 3500 
L 1894 763 
L 2988 3500 
L 3597 3500 
L 2059 -325 
z
" transform="scale(0.015625)"/>
     </defs>
     <use xlink:href="#DejaVuSans-67"/>
     <use xlink:href="#DejaVuSans-65" transform="translate(63.476562 0)"/>
     <use xlink:href="#DejaVuSans-74" transform="translate(125 0)"/>
     <use xlink:href="#DejaVuSans-5f" transform="translate(164.208984 0)"/>
     <use xlink:href="#DejaVuSans-73" transform="translate(214.208984 0)"/>
     <use xlink:href="#DejaVuSans-75" transform="translate(266.308594 0)"/>
     <use xlink:href="#DejaVuSans-62" transform="translate(329.6875 0)"/>
     <use xlink:href="#DejaVuSans-73" transform="translate(393.164062 0)"/>
     <use xlink:href="#DejaVuSans-63" transform="translate(445.263672 0)"/>
     <use xlink:href="#DejaVuSans-72" transform="translate(500.244141 0)"/>
     <use xlink:href="#DejaVuSans-69" transform="translate(541.357422 0)"/>
     <use xlink:href="#DejaVuSans-62" transform="translate(569.140625 0)"/>
     <use xlink:href="#DejaVuSans-65" transform="translate(632.617188 0)"/>
     <use xlink:href="#DejaVuSans-20" transform="translate(694.140625 0)"/>
     <use xlink:href="#DejaVuSans-68" transform="translate(725.927734 0)"/>
     <use xlink:href="#DejaVuSans-69" transform="translate(789.306641 0)"/>
     <use xlink:href="#DejaVuSans-73" transform="translate(817.089844 0)"/>
     <use xlink:href="#DejaVuSans-74" transform="translate(869.189453 0)"/>
     <use xlink:href="#DejaVuSans-6f" transform="translate(908.398438 0)"/>
     <use xlink:href="#DejaVuSans-72" transform="translate(969.580078 0)"/>
     <use xlink:href="#DejaVuSans-79" transform="translate(1010.693359 0)"/>
    </g>
   </g>
   <g id="legend_1">
    <g id="line2d_33">
     <path d="M 815.08 328.498438 
L 825.08 328.498438 
L 835.08 328.498438 
" style="fill: none; stroke: #1f77b4; stroke-width: 1.5; stroke-linecap: square"/>
    </g>
    <g id="text_17">
     <!-- star -->
     <g style="fill: #a9a9a9" transform="translate(843.08 331.998438) scale(0.1 -0.1)">
      <defs>
       <path id="DejaVuSans-61" d="M 2194 1759 
Q 1497 1759 1228 1600 
Q 959 1441 959 1056 
Q 959 750 1161 570 
Q 1363 391 1709 391 
Q 2188 391 2477 730 
Q 2766 1069 2766 1631 
L 2766 1759 
L 2194 1759 
z
M 3341 1997 
L 3341 0 
L 2766 0 
L 2766 531 
Q 2569 213 2275 61 
Q 1981 -91 1556 -91 
Q 1019 -91 701 211 
Q 384 513 384 1019 
Q 384 1609 779 1909 
Q 1175 2209 1959 2209 
L 2766 2209 
L 2766 2266 
Q 2766 2663 2505 2880 
Q 2244 3097 1772 3097 
Q 1472 3097 1187 3025 
Q 903 2953 641 2809 
L 641 3341 
Q 956 3463 1253 3523 
Q 1550 3584 1831 3584 
Q 2591 3584 2966 3190 
Q 3341 2797 3341 1997 
z
" transform="scale(0.015625)"/>
      </defs>
      <use xlink:href="#DejaVuSans-73"/>
      <use xlink:href="#DejaVuSans-74" transform="translate(52.099609 0)"/>
      <use xlink:href="#DejaVuSans-61" transform="translate(91.308594 0)"/>
      <use xlink:href="#DejaVuSans-72" transform="translate(152.587891 0)"/>
     </g>
    </g>
    <g id="line2d_34">
     <path d="M 815.08 343.176562 
L 825.08 343.176562 
L 835.08 343.176562 
" style="fill: none; stroke: #ff7f0e; stroke-width: 1.5; stroke-linecap: square"/>
    </g>
    <g id="text_18">
     <!-- fork -->
     <g style="fill: #a9a9a9" transform="translate(843.08 346.676562) scale(0.1 -0.1)">
      <defs>
       <path id="DejaVuSans-66" d="M 2375 4863 
L 2375 4384 
L 1825 4384 
Q 1516 4384 1395 4259 
Q 1275 4134 1275 3809 
L 1275 3500 
L 2222 3500 
L 2222 3053 
L 1275 3053 
L 1275 0 
L 697 0 
L 697 3053 
L 147 3053 
L 147 3500 
L 697 3500 
L 697 3744 
Q 697 4328 969 4595 
Q 1241 4863 1831 4863 
L 2375 4863 
z
" transform="scale(0.015625)"/>
       <path id="DejaVuSans-6b" d="M 581 4863 
L 1159 4863 
L 1159 1991 
L 2875 3500 
L 3609 3500 
L 1753 1863 
L 3688 0 
L 2938 0 
L 1159 1709 
L 1159 0 
L 581 0 
L 581 4863 
z
" transform="scale(0.015625)"/>
      </defs>
      <use xlink:href="#DejaVuSans-66"/>
      <use xlink:href="#DejaVuSans-6f" transform="translate(35.205078 0)"/>
      <use xlink:href="#DejaVuSans-72" transform="translate(96.386719 0)"/>
      <use xlink:href="#DejaVuSans-6b" transform="translate(137.5 0)"/>
     </g>
    </g>
   </g>
  </g>
 </g>
 <defs>
  <clipPath id="pe4bc246e18">
   <rect x="108" y="43.2" width="669.6" height="277.2"/>
  </clipPath>
 </defs>
</svg>
