<?xml version="1.0" encoding="utf-8" standalone="no"?>
<!DOCTYPE svg PUBLIC "-//W3C//DTD SVG 1.1//EN"
  "http://www.w3.org/Graphics/SVG/1.1/DTD/svg11.dtd">
<svg xmlns:xlink="http://www.w3.org/1999/xlink" width="864pt" height="360pt" viewBox="0 0 864 360" xmlns="http://www.w3.org/2000/svg" version="1.1">
 <metadata>
  <rdf:RDF xmlns:dc="http://purl.org/dc/elements/1.1/" xmlns:cc="http://creativecommons.org/ns#" xmlns:rdf="http://www.w3.org/1999/02/22-rdf-syntax-ns#">
   <cc:Work>
    <dc:type rdf:resource="http://purl.org/dc/dcmitype/StillImage"/>
    <dc:date>2026-02-19T20:15:06.968582</dc:date>
    <dc:format>image/svg+xml</dc:format>
    <dc:creator>
     <cc:Agent>
      <dc:title>Matplotlib v3.10.8, https://matplotlib.org/</dc:title>
     </cc:Agent>
    </dc:creator>
   </cc:Work>
  </rdf:RDF>
 </metadata>
 <defs>
  <style type="text/css">*{stroke-linejoin: round; stroke-linecap: butt}</style>
 </defs>
 <g id="figure_1">
  <g id="patch_1">
   <path d="M 0 360 
L 864 360 
L 864 0 
L 0 0 
L 0 360 
z
" style="fill: none; opacity: 0"/>
  </g>
  <g id="axes_1">
   <g id="patch_2">
    <path d="M 108 320.4 
L 777.6 320.4 
L 777.6 43.2 
L 108 43.2 
L 108 320.4 
z
" style="fill: none; opacity: 0"/>
   </g>
   <g id="matplotlib.axis_1">
    <g id="xtick_1">
     <g id="line2d_1">
      <path d="M 197.086927 320.4 
L 197.086927 43.2 
" clip-path="url(#p41006a4033)" style="fill: none; stroke-dasharray: 5.12,1.28,0.8,1.28; stroke-dashoffset: 0; stroke: #b0b0b0; stroke-width: 0.8"/>
     </g>
     <g id="line2d_2">
      <defs>
       <path id="mf4986eeef1" d="M 0 0 
L 0 3.5 
" style="stroke: #a9a9a9; stroke-width: 0.8"/>
      </defs>
      <g>
       <use xlink:href="#mf4986eeef1" x="197.086927" y="320.4" style="fill: #a9a9a9; stroke: #a9a9a9; stroke-width: 0.8"/>
      </g>
     </g>
     <g id="text_1">
      <!-- 2022 -->
      <g style="fill: #a9a9a9" transform="translate(184.361927 334.998438) scale(0.1 -0.1)">
       <defs>
        <path id="DejaVuSans-32" d="M 1228 531 
L 3431 531 
L 3431 0 
L 469 0 
L 469 531 
Q 828 903 1448 1529 
Q 2069 2156 2228 2338 
Q 2531 2678 2651 2914 
Q 2772 3150 2772 3378 
Q 2772 3750 2511 3984 
Q 2250 4219 1831 4219 
Q 1534 4219 1204 4116 
Q 875 4013 500 3803 
L 500 4441 
Q 881 4594 1212 4672 
Q 1544 4750 1819 4750 
Q 2544 4750 2975 4387 
Q 3406 4025 3406 3419 
Q 3406 3131 3298 2873 
Q 3191 2616 2906 2266 
Q 2828 2175 2409 1742 
Q 1991 1309 1228 531 
z
" transform="scale(0.015625)"/>
        <path id="DejaVuSans-30" d="M 2034 4250 
Q 1547 4250 1301 3770 
Q 1056 3291 1056 2328 
Q 1056 1369 1301 889 
Q 1547 409 2034 409 
Q 2525 409 2770 889 
Q 3016 1369 3016 2328 
Q 3016 3291 2770 3770 
Q 2525 4250 2034 4250 
z
M 2034 4750 
Q 2819 4750 3233 4129 
Q 3647 3509 3647 2328 
Q 3647 1150 3233 529 
Q 2819 -91 2034 -91 
Q 1250 -91 836 529 
Q 422 1150 422 2328 
Q 422 3509 836 4129 
Q 1250 4750 2034 4750 
z
" transform="scale(0.015625)"/>
       </defs>
       <use xlink:href="#DejaVuSans-32"/>
       <use xlink:href="#DejaVuSans-30" transform="translate(63.623047 0)"/>
       <use xlink:href="#DejaVuSans-32" transform="translate(127.246094 0)"/>
       <use xlink:href="#DejaVuSans-32" transform="translate(190.869141 0)"/>
      </g>
     </g>
    </g>
    <g id="xtick_2">
     <g id="line2d_3">
      <path d="M 330.052489 320.4 
L 330.052489 43.2 
" clip-path="url(#p41006a4033)" style="fill: none; stroke-dasharray: 5.12,1.28,0.8,1.28; stroke-dashoffset: 0; stroke: #b0b0b0; stroke-width: 0.8"/>
     </g>
     <g id="line2d_4">
      <g>
       <use xlink:href="#mf4986eeef1" x="330.052489" y="320.4" style="fill: #a9a9a9; stroke: #a9a9a9; stroke-width: 0.8"/>
      </g>
     </g>
     <g id="text_2">
      <!-- 2023 -->
      <g style="fill: #a9a9a9" transform="translate(317.327489 334.998438) scale(0.1 -0.1)">
       <defs>
        <path id="DejaVuSans-33" d="M 2597 2516 
Q 3050 2419 3304 2112 
Q 3559 1806 3559 1356 
Q 3559 666 3084 287 
Q 2609 -91 1734 -91 
Q 1441 -91 1130 -33 
Q 819 25 488 141 
L 488 750 
Q 750 597 1062 519 
Q 1375 441 1716 441 
Q 2309 441 2620 675 
Q 2931 909 2931 1356 
Q 2931 1769 2642 2001 
Q 2353 2234 1838 2234 
L 1294 2234 
L 1294 2753 
L 1863 2753 
Q 2328 2753 2575 2939 
Q 2822 3125 2822 3475 
Q 2822 3834 2567 4026 
Q 2313 4219 1838 4219 
Q 1578 4219 1281 4162 
Q 984 4106 628 3988 
L 628 4550 
Q 988 4650 1302 4700 
Q 1616 4750 1894 4750 
Q 2613 4750 3031 4423 
Q 3450 4097 3450 3541 
Q 3450 3153 3228 2886 
Q 3006 2619 2597 2516 
z
" transform="scale(0.015625)"/>
       </defs>
       <use xlink:href="#DejaVuSans-32"/>
       <use xlink:href="#DejaVuSans-30" transform="translate(63.623047 0)"/>
       <use xlink:href="#DejaVuSans-32" transform="translate(127.246094 0)"/>
       <use xlink:href="#DejaVuSans-33" transform="translate(190.869141 0)"/>
      </g>
     </g>
    </g>
    <g id="xtick_3">
     <g id="line2d_5">
      <path d="M 463.018051 320.4 
L 463.018051 43.2 
" clip-path="url(#p41006a4033)" style="fill: none; stroke-dasharray: 5.12,1.28,0.8,1.28; stroke-dashoffset: 0; stroke: #b0b0b0; stroke-width: 0.8"/>
     </g>
     <g id="line2d_6">
      <g>
       <use xlink:href="#mf4986eeef1" x="463.018051" y="320.4" style="fill: #a9a9a9; stroke: #a9a9a9; stroke-width: 0.8"/>
      </g>
     </g>
     <g id="text_3">
      <!-- 2024 -->
      <g style="fill: #a9a9a9" transform="translate(450.293051 334.998438) scale(0.1 -0.1)">
       <defs>
        <path id="DejaVuSans-34" d="M 2419 4116 
L 825 1625 
L 2419 1625 
L 2419 4116 
z
M 2253 4666 
L 3047 4666 
L 3047 1625 
L 3713 1625 
L 3713 1100 
L 3047 1100 
L 3047 0 
L 2419 0 
L 2419 1100 
L 313 1100 
L 313 1709 
L 2253 4666 
z
" transform="scale(0.015625)"/>
       </defs>
       <use xlink:href="#DejaVuSans-32"/>
       <use xlink:href="#DejaVuSans-30" transform="translate(63.623047 0)"/>
       <use xlink:href="#DejaVuSans-32" transform="translate(127.246094 0)"/>
       <use xlink:href="#DejaVuSans-34" transform="translate(190.869141 0)"/>
      </g>
     </g>
    </g>
    <g id="xtick_4">
     <g id="line2d_7">
      <path d="M 596.347903 320.4 
L 596.347903 43.2 
" clip-path="url(#p41006a4033)" style="fill: none; stroke-dasharray: 5.12,1.28,0.8,1.28; stroke-dashoffset: 0; stroke: #b0b0b0; stroke-width: 0.8"/>
     </g>
     <g id="line2d_8">
      <g>
       <use xlink:href="#mf4986eeef1" x="596.347903" y="320.4" style="fill: #a9a9a9; stroke: #a9a9a9; stroke-width: 0.8"/>
      </g>
     </g>
     <g id="text_4">
      <!-- 2025 -->
      <g style="fill: #a9a9a9" transform="translate(583.622903 334.998438) scale(0.1 -0.1)">
       <defs>
        <path id="DejaVuSans-35" d="M 691 4666 
L 3169 4666 
L 3169 4134 
L 1269 4134 
L 1269 2991 
Q 1406 3038 1543 3061 
Q 1681 3084 1819 3084 
Q 2600 3084 3056 2656 
Q 3513 2228 3513 1497 
Q 3513 744 3044 326 
Q 2575 -91 1722 -91 
Q 1428 -91 1123 -41 
Q 819 9 494 109 
L 494 744 
Q 775 591 1075 516 
Q 1375 441 1709 441 
Q 2250 441 2565 725 
Q 2881 1009 2881 1497 
Q 2881 1984 2565 2268 
Q 2250 2553 1709 2553 
Q 1456 2553 1204 2497 
Q 953 2441 691 2322 
L 691 4666 
z
" transform="scale(0.015625)"/>
       </defs>
       <use xlink:href="#DejaVuSans-32"/>
       <use xlink:href="#DejaVuSans-30" transform="translate(63.623047 0)"/>
       <use xlink:href="#DejaVuSans-32" transform="translate(127.246094 0)"/>
       <use xlink:href="#DejaVuSans-35" transform="translate(190.869141 0)"/>
      </g>
     </g>
    </g>
    <g id="xtick_5">
     <g id="line2d_9">
      <path d="M 729.313465 320.4 
L 729.313465 43.2 
" clip-path="url(#p41006a4033)" style="fill: none; stroke-dasharray: 5.12,1.28,0.8,1.28; stroke-dashoffset: 0; stroke: #b0b0b0; stroke-width: 0.8"/>
     </g>
     <g id="line2d_10">
      <g>
       <use xlink:href="#mf4986eeef1" x="729.313465" y="320.4" style="fill: #a9a9a9; stroke: #a9a9a9; stroke-width: 0.8"/>
      </g>
     </g>
     <g id="text_5">
      <!-- 2026 -->
      <g style="fill: #a9a9a9" transform="translate(716.588465 334.998438) scale(0.1 -0.1)">
       <defs>
        <path id="DejaVuSans-36" d="M 2113 2584 
Q 1688 2584 1439 2293 
Q 1191 2003 1191 1497 
Q 1191 994 1439 701 
Q 1688 409 2113 409 
Q 2538 409 2786 701 
Q 3034 994 3034 1497 
Q 3034 2003 2786 2293 
Q 2538 2584 2113 2584 
z
M 3366 4563 
L 3366 3988 
Q 3128 4100 2886 4159 
Q 2644 4219 2406 4219 
Q 1781 4219 1451 3797 
Q 1122 3375 1075 2522 
Q 1259 2794 1537 2939 
Q 1816 3084 2150 3084 
Q 2853 3084 3261 2657 
Q 3669 2231 3669 1497 
Q 3669 778 3244 343 
Q 2819 -91 2113 -91 
Q 1303 -91 875 529 
Q 447 1150 447 2328 
Q 447 3434 972 4092 
Q 1497 4750 2381 4750 
Q 2619 4750 2861 4703 
Q 3103 4656 3366 4563 
z
" transform="scale(0.015625)"/>
       </defs>
       <use xlink:href="#DejaVuSans-32"/>
       <use xlink:href="#DejaVuSans-30" transform="translate(63.623047 0)"/>
       <use xlink:href="#DejaVuSans-32" transform="translate(127.246094 0)"/>
       <use xlink:href="#DejaVuSans-36" transform="translate(190.869141 0)"/>
      </g>
     </g>
    </g>
   </g>
   <g id="matplotlib.axis_2">
    <g id="ytick_1">
     <g id="line2d_11">
      <path d="M 108 307.829049 
L 777.6 307.829049 
" clip-path="url(#p41006a4033)" style="fill: none; stroke-dasharray: 5.12,1.28,0.8,1.28; stroke-dashoffset: 0; stroke: #b0b0b0; stroke-width: 0.8"/>
     </g>
     <g id="line2d_12">
      <defs>
       <path id="mb194a99c34" d="M 0 0 
L -3.5 0 
" style="stroke: #a9a9a9; stroke-width: 0.8"/>
      </defs>
      <g>
       <use xlink:href="#mb194a99c34" x="108" y="307.829049" style="fill: #a9a9a9; stroke: #a9a9a9; stroke-width: 0.8"/>
      </g>
     </g>
     <g id="text_6">
      <!-- 0 -->
      <g style="fill: #a9a9a9" transform="translate(94.6375 311.628268) scale(0.1 -0.1)">
       <use xlink:href="#DejaVuSans-30"/>
      </g>
     </g>
    </g>
    <g id="ytick_2">
     <g id="line2d_13">
      <path d="M 108 278.780058 
L 777.6 278.780058 
" clip-path="url(#p41006a4033)" style="fill: none; stroke-dasharray: 5.12,1.28,0.8,1.28; stroke-dashoffset: 0; stroke: #b0b0b0; stroke-width: 0.8"/>
     </g>
     <g id="line2d_14">
      <g>
       <use xlink:href="#mb194a99c34" x="108" y="278.780058" style="fill: #a9a9a9; stroke: #a9a9a9; stroke-width: 0.8"/>
      </g>
     </g>
     <g id="text_7">
      <!-- 1000 -->
      <g style="fill: #a9a9a9" transform="translate(75.55 282.579276) scale(0.1 -0.1)">
       <defs>
        <path id="DejaVuSans-31" d="M 794 531 
L 1825 531 
L 1825 4091 
L 703 3866 
L 703 4441 
L 1819 4666 
L 2450 4666 
L 2450 531 
L 3481 531 
L 3481 0 
L 794 0 
L 794 531 
z
" transform="scale(0.015625)"/>
       </defs>
       <use xlink:href="#DejaVuSans-31"/>
       <use xlink:href="#DejaVuSans-30" transform="translate(63.623047 0)"/>
       <use xlink:href="#DejaVuSans-30" transform="translate(127.246094 0)"/>
       <use xlink:href="#DejaVuSans-30" transform="translate(190.869141 0)"/>
      </g>
     </g>
    </g>
    <g id="ytick_3">
     <g id="line2d_15">
      <path d="M 108 249.731066 
L 777.6 249.731066 
" clip-path="url(#p41006a4033)" style="fill: none; stroke-dasharray: 5.12,1.28,0.8,1.28; stroke-dashoffset: 0; stroke: #b0b0b0; stroke-width: 0.8"/>
     </g>
     <g id="line2d_16">
      <g>
       <use xlink:href="#mb194a99c34" x="108" y="249.731066" style="fill: #a9a9a9; stroke: #a9a9a9; stroke-width: 0.8"/>
      </g>
     </g>
     <g id="text_8">
      <!-- 2000 -->
      <g style="fill: #a9a9a9" transform="translate(75.55 253.530285) scale(0.1 -0.1)">
       <use xlink:href="#DejaVuSans-32"/>
       <use xlink:href="#DejaVuSans-30" transform="translate(63.623047 0)"/>
       <use xlink:href="#DejaVuSans-30" transform="translate(127.246094 0)"/>
       <use xlink:href="#DejaVuSans-30" transform="translate(190.869141 0)"/>
      </g>
     </g>
    </g>
    <g id="ytick_4">
     <g id="line2d_17">
      <path d="M 108 220.682075 
L 777.6 220.682075 
" clip-path="url(#p41006a4033)" style="fill: none; stroke-dasharray: 5.12,1.28,0.8,1.28; stroke-dashoffset: 0; stroke: #b0b0b0; stroke-width: 0.8"/>
     </g>
     <g id="line2d_18">
      <g>
       <use xlink:href="#mb194a99c34" x="108" y="220.682075" style="fill: #a9a9a9; stroke: #a9a9a9; stroke-width: 0.8"/>
      </g>
     </g>
     <g id="text_9">
      <!-- 3000 -->
      <g style="fill: #a9a9a9" transform="translate(75.55 224.481294) scale(0.1 -0.1)">
       <use xlink:href="#DejaVuSans-33"/>
       <use xlink:href="#DejaVuSans-30" transform="translate(63.623047 0)"/>
       <use xlink:href="#DejaVuSans-30" transform="translate(127.246094 0)"/>
       <use xlink:href="#DejaVuSans-30" transform="translate(190.869141 0)"/>
      </g>
     </g>
    </g>
    <g id="ytick_5">
     <g id="line2d_19">
      <path d="M 108 191.633084 
L 777.6 191.633084 
" clip-path="url(#p41006a4033)" style="fill: none; stroke-dasharray: 5.12,1.28,0.8,1.28; stroke-dashoffset: 0; stroke: #b0b0b0; stroke-width: 0.8"/>
     </g>
     <g id="line2d_20">
      <g>
       <use xlink:href="#mb194a99c34" x="108" y="191.633084" style="fill: #a9a9a9; stroke: #a9a9a9; stroke-width: 0.8"/>
      </g>
     </g>
     <g id="text_10">
      <!-- 4000 -->
      <g style="fill: #a9a9a9" transform="translate(75.55 195.432302) scale(0.1 -0.1)">
       <use xlink:href="#DejaVuSans-34"/>
       <use xlink:href="#DejaVuSans-30" transform="translate(63.623047 0)"/>
       <use xlink:href="#DejaVuSans-30" transform="translate(127.246094 0)"/>
       <use xlink:href="#DejaVuSans-30" transform="translate(190.869141 0)"/>
      </g>
     </g>
    </g>
    <g id="ytick_6">
     <g id="line2d_21">
      <path d="M 108 162.584092 
L 777.6 162.584092 
" clip-path="url(#p41006a4033)" style="fill: none; stroke-dasharray: 5.12,1.28,0.8,1.28; stroke-dashoffset: 0; stroke: #b0b0b0; stroke-width: 0.8"/>
     </g>
     <g id="line2d_22">
      <g>
       <use xlink:href="#mb194a99c34" x="108" y="162.584092" style="fill: #a9a9a9; stroke: #a9a9a9; stroke-width: 0.8"/>
      </g>
     </g>
     <g id="text_11">
      <!-- 5000 -->
      <g style="fill: #a9a9a9" transform="translate(75.55 166.383311) scale(0.1 -0.1)">
       <use xlink:href="#DejaVuSans-35"/>
       <use xlink:href="#DejaVuSans-30" transform="translate(63.623047 0)"/>
       <use xlink:href="#DejaVuSans-30" transform="translate(127.246094 0)"/>
       <use xlink:href="#DejaVuSans-30" transform="translate(190.869141 0)"/>
      </g>
     </g>
    </g>
    <g id="ytick_7">
     <g id="line2d_23">
      <path d="M 108 133.535101 
L 777.6 133.535101 
" clip-path="url(#p41006a4033)" style="fill: none; stroke-dasharray: 5.12,1.28,0.8,1.28; stroke-dashoffset: 0; stroke: #b0b0b0; stroke-width: 0.8"/>
     </g>
     <g id="line2d_24">
      <g>
       <use xlink:href="#mb194a99c34" x="108" y="133.535101" style="fill: #a9a9a9; stroke: #a9a9a9; stroke-width: 0.8"/>
      </g>
     </g>
     <g id="text_12">
      <!-- 6000 -->
      <g style="fill: #a9a9a9" transform="translate(75.55 137.33432) scale(0.1 -0.1)">
       <use xlink:href="#DejaVuSans-36"/>
       <use xlink:href="#DejaVuSans-30" transform="translate(63.623047 0)"/>
       <use xlink:href="#DejaVuSans-30" transform="translate(127.246094 0)"/>
       <use xlink:href="#DejaVuSans-30" transform="translate(190.869141 0)"/>
      </g>
     </g>
    </g>
    <g id="ytick_8">
     <g id="line2d_25">
      <path d="M 108 104.48611 
L 777.6 104.48611 
" clip-path="url(#p41006a4033)" style="fill: none; stroke-dasharray: 5.12,1.28,0.8,1.28; stroke-dashoffset: 0; stroke: #b0b0b0; stroke-width: 0.8"/>
     </g>
     <g id="line2d_26">
      <g>
       <use xlink:href="#mb194a99c34" x="108" y="104.48611" style="fill: #a9a9a9; stroke: #a9a9a9; stroke-width: 0.8"/>
      </g>
     </g>
     <g id="text_13">
      <!-- 7000 -->
      <g style="fill: #a9a9a9" transform="translate(75.55 108.285328) scale(0.1 -0.1)">
       <defs>
        <path id="DejaVuSans-37" d="M 525 4666 
L 3525 4666 
L 3525 4397 
L 1831 0 
L 1172 0 
L 2766 4134 
L 525 4134 
L 525 4666 
z
" transform="scale(0.015625)"/>
       </defs>
       <use xlink:href="#DejaVuSans-37"/>
       <use xlink:href="#DejaVuSans-30" transform="translate(63.623047 0)"/>
       <use xlink:href="#DejaVuSans-30" transform="translate(127.246094 0)"/>
       <use xlink:href="#DejaVuSans-30" transform="translate(190.869141 0)"/>
      </g>
     </g>
    </g>
    <g id="ytick_9">
     <g id="line2d_27">
      <path d="M 108 75.437118 
L 777.6 75.437118 
" clip-path="url(#p41006a4033)" style="fill: none; stroke-dasharray: 5.12,1.28,0.8,1.28; stroke-dashoffset: 0; stroke: #b0b0b0; stroke-width: 0.8"/>
     </g>
     <g id="line2d_28">
      <g>
       <use xlink:href="#mb194a99c34" x="108" y="75.437118" style="fill: #a9a9a9; stroke: #a9a9a9; stroke-width: 0.8"/>
      </g>
     </g>
     <g id="text_14">
      <!-- 8000 -->
      <g style="fill: #a9a9a9" transform="translate(75.55 79.236337) scale(0.1 -0.1)">
       <defs>
        <path id="DejaVuSans-38" d="M 2034 2216 
Q 1584 2216 1326 1975 
Q 1069 1734 1069 1313 
Q 1069 891 1326 650 
Q 1584 409 2034 409 
Q 2484 409 2743 651 
Q 3003 894 3003 1313 
Q 3003 1734 2745 1975 
Q 2488 2216 2034 2216 
z
M 1403 2484 
Q 997 2584 770 2862 
Q 544 3141 544 3541 
Q 544 4100 942 4425 
Q 1341 4750 2034 4750 
Q 2731 4750 3128 4425 
Q 3525 4100 3525 3541 
Q 3525 3141 3298 2862 
Q 3072 2584 2669 2484 
Q 3125 2378 3379 2068 
Q 3634 1759 3634 1313 
Q 3634 634 3220 271 
Q 2806 -91 2034 -91 
Q 1263 -91 848 271 
Q 434 634 434 1313 
Q 434 1759 690 2068 
Q 947 2378 1403 2484 
z
M 1172 3481 
Q 1172 3119 1398 2916 
Q 1625 2713 2034 2713 
Q 2441 2713 2670 2916 
Q 2900 3119 2900 3481 
Q 2900 3844 2670 4047 
Q 2441 4250 2034 4250 
Q 1625 4250 1398 4047 
Q 1172 3844 1172 3481 
z
" transform="scale(0.015625)"/>
       </defs>
       <use xlink:href="#DejaVuSans-38"/>
       <use xlink:href="#DejaVuSans-30" transform="translate(63.623047 0)"/>
       <use xlink:href="#DejaVuSans-30" transform="translate(127.246094 0)"/>
       <use xlink:href="#DejaVuSans-30" transform="translate(190.869141 0)"/>
      </g>
     </g>
    </g>
    <g id="ytick_10">
     <g id="line2d_29">
      <path d="M 108 46.388127 
L 777.6 46.388127 
" clip-path="url(#p41006a4033)" style="fill: none; stroke-dasharray: 5.12,1.28,0.8,1.28; stroke-dashoffset: 0; stroke: #b0b0b0; stroke-width: 0.8"/>
     </g>
     <g id="line2d_30">
      <g>
       <use xlink:href="#mb194a99c34" x="108" y="46.388127" style="fill: #a9a9a9; stroke: #a9a9a9; stroke-width: 0.8"/>
      </g>
     </g>
     <g id="text_15">
      <!-- 9000 -->
      <g style="fill: #a9a9a9" transform="translate(75.55 50.187346) scale(0.1 -0.1)">
       <defs>
        <path id="DejaVuSans-39" d="M 703 97 
L 703 672 
Q 941 559 1184 500 
Q 1428 441 1663 441 
Q 2288 441 2617 861 
Q 2947 1281 2994 2138 
Q 2813 1869 2534 1725 
Q 2256 1581 1919 1581 
Q 1219 1581 811 2004 
Q 403 2428 403 3163 
Q 403 3881 828 4315 
Q 1253 4750 1959 4750 
Q 2769 4750 3195 4129 
Q 3622 3509 3622 2328 
Q 3622 1225 3098 567 
Q 2575 -91 1691 -91 
Q 1453 -91 1209 -44 
Q 966 3 703 97 
z
M 1959 2075 
Q 2384 2075 2632 2365 
Q 2881 2656 2881 3163 
Q 2881 3666 2632 3958 
Q 2384 4250 1959 4250 
Q 1534 4250 1286 3958 
Q 1038 3666 1038 3163 
Q 1038 2656 1286 2365 
Q 1534 2075 1959 2075 
z
" transform="scale(0.015625)"/>
       </defs>
       <use xlink:href="#DejaVuSans-39"/>
       <use xlink:href="#DejaVuSans-30" transform="translate(63.623047 0)"/>
       <use xlink:href="#DejaVuSans-30" transform="translate(127.246094 0)"/>
       <use xlink:href="#DejaVuSans-30" transform="translate(190.869141 0)"/>
      </g>
     </g>
    </g>
   </g>
   <g id="line2d_31">
    <path d="M 138.436364 307.741902 
L 140.622099 307.538559 
L 140.986388 307.364265 
L 142.443545 307.160922 
L 143.900702 306.841383 
L 144.62928 306.725187 
L 146.450726 306.550893 
L 147.179305 306.260403 
L 147.543594 305.737522 
L 147.907883 305.476081 
L 148.272172 304.604611 
L 148.636462 304.546513 
L 149.36504 304.081729 
L 150.093618 303.529798 
L 151.550775 302.425937 
L 151.915064 302.280692 
L 152.643643 301.815908 
L 153.736511 301.263977 
L 154.1008 300.624899 
L 154.829378 300.043919 
L 155.557957 299.811527 
L 156.650824 299.637233 
L 158.836559 299.288646 
L 159.200849 299.114352 
L 161.750873 298.88196 
L 163.20803 298.504323 
L 166.122344 298.068588 
L 166.486633 297.865245 
L 166.850922 297.807147 
L 167.579501 297.545706 
L 170.129525 297.080922 
L 170.858103 296.84853 
L 174.136706 296.26755 
L 174.865285 296.093256 
L 176.322442 295.889914 
L 177.05102 295.657522 
L 177.415309 295.105591 
L 178.508177 294.640807 
L 179.601045 294.321268 
L 179.965334 294.117925 
L 180.693912 293.97268 
L 182.515358 293.507896 
L 183.608226 293.246455 
L 185.065383 292.868818 
L 185.429672 292.839769 
L 186.15825 292.462133 
L 186.52254 292.404035 
L 186.886829 292.200692 
L 190.89401 291.503516 
L 192.351167 291.038732 
L 192.715456 290.777291 
L 194.536902 290.138213 
L 195.265481 289.586282 
L 196.358348 289.35389 
L 204.372711 286.855677 
L 204.737 286.826628 
L 205.829868 286.47804 
L 206.194157 286.47804 
L 206.558446 286.303746 
L 207.287025 286.216599 
L 207.651314 286.071354 
L 209.47276 285.984207 
L 209.837049 285.897061 
L 210.565628 285.490375 
L 211.658495 285.083689 
L 212.387074 284.677003 
L 213.479941 284.18317 
L 214.937098 283.427896 
L 215.301387 283.02121 
L 216.029966 281.801153 
L 217.122833 281.452565 
L 217.487123 281.162075 
L 218.57999 280.755389 
L 218.944279 280.377752 
L 220.037147 279.912968 
L 220.401436 279.709625 
L 222.587172 277.066167 
L 223.31575 276.717579 
L 224.772907 275.671816 
L 225.501485 275.148934 
L 225.865774 274.597003 
L 226.230064 273.696484 
L 226.594353 273.115504 
L 230.237245 269.77487 
L 230.965823 269.048646 
L 232.42298 268.06098 
L 232.787269 267.712392 
L 233.515848 267.48 
L 234.608716 266.811873 
L 235.701583 266.02755 
L 237.15874 264.60415 
L 237.887318 264.284611 
L 238.615897 263.761729 
L 238.980186 263.529337 
L 239.344475 263.471239 
L 240.437343 262.803112 
L 240.801632 262.367378 
L 242.623078 261.292565 
L 242.987367 261.14732 
L 244.080235 260.333948 
L 249.544573 258.242421 
L 250.273152 257.516196 
L 251.366019 256.935216 
L 252.094598 256.441383 
L 252.823176 256.208991 
L 253.187465 255.94755 
L 253.551755 255.831354 
L 254.644622 255.047032 
L 256.466068 254.611297 
L 257.558936 253.914121 
L 258.651803 253.65268 
L 259.016093 253.565533 
L 260.10896 252.752161 
L 261.566117 252.316427 
L 261.930406 252.025937 
L 264.116142 251.212565 
L 264.84472 251.06732 
L 265.573299 250.747781 
L 268.123323 249.760115 
L 268.851901 249.672968 
L 270.309058 249.091988 
L 274.31624 246.971412 
L 275.044818 246.622824 
L 275.773396 246.274236 
L 276.501975 246.128991 
L 277.230553 245.664207 
L 277.959132 245.460865 
L 279.051999 244.996081 
L 280.509156 244.792738 
L 281.237735 244.386052 
L 281.602024 244.037464 
L 281.966313 243.340288 
L 283.42347 242.904553 
L 284.880627 242.207378 
L 288.15923 240.667781 
L 288.887808 240.493487 
L 289.980676 239.912507 
L 290.344965 239.854409 
L 292.166411 238.895793 
L 292.894989 238.40196 
L 293.987857 238.169568 
L 297.26646 237.007608 
L 298.723617 236.36853 
L 299.087906 236.07804 
L 299.816484 235.671354 
L 300.545063 235.380865 
L 300.909352 235.293718 
L 302.366509 234.509395 
L 302.730798 234.102709 
L 303.095087 233.870317 
L 303.459377 233.78317 
L 304.187955 233.144092 
L 304.552244 233.085994 
L 304.916533 232.446916 
L 305.280823 232.301671 
L 305.645112 231.982133 
L 306.009401 231.924035 
L 306.737979 231.430202 
L 307.466558 231.168761 
L 307.830847 230.878271 
L 308.559425 230.471585 
L 310.016582 229.542017 
L 312.202318 228.525303 
L 312.566607 227.857176 
L 313.295185 227.276196 
L 313.659474 227.189049 
L 315.84521 226.085187 
L 316.573788 225.765648 
L 317.302367 225.213718 
L 318.030945 224.429395 
L 319.852391 223.005994 
L 320.580969 222.395965 
L 320.945259 222.221671 
L 321.673837 221.437349 
L 322.766705 220.914467 
L 323.495283 220.478732 
L 323.859572 220.362536 
L 324.223862 220.072046 
L 324.588151 220.013948 
L 327.866754 218.271009 
L 328.595332 218.067666 
L 330.052489 217.544784 
L 330.781067 217.050951 
L 332.238224 216.49902 
L 332.966803 216.005187 
L 333.695381 215.714697 
L 334.42396 215.162767 
L 335.152538 213.62317 
L 335.881116 212.7517 
L 336.973984 212.141671 
L 337.702562 211.822133 
L 338.066852 211.764035 
L 338.79543 211.415447 
L 340.616876 210.74732 
L 341.345455 210.253487 
L 342.438322 209.788703 
L 343.895479 208.888184 
L 344.259768 208.626744 
L 344.624057 208.191009 
L 345.716925 207.522882 
L 346.081214 207.377637 
L 346.809793 206.912853 
L 348.26695 206.070432 
L 348.631239 205.983285 
L 348.995528 205.692795 
L 351.545552 204.821326 
L 351.909842 204.559885 
L 352.63842 204.327493 
L 355.552734 202.875043 
L 356.281312 202.468357 
L 356.645601 202.294063 
L 357.37418 201.684035 
L 358.102758 201.480692 
L 358.467047 201.132104 
L 358.831337 201.074006 
L 359.559915 200.493026 
L 361.381361 199.360115 
L 362.10994 199.127723 
L 362.474229 198.895331 
L 362.838518 198.837233 
L 365.024253 197.878617 
L 369.395724 196.484265 
L 370.488591 195.699942 
L 371.21717 195.293256 
L 372.674327 194.567032 
L 373.767194 193.811758 
L 374.495773 193.637464 
L 375.58864 192.940288 
L 378.867243 191.778329 
L 379.595822 191.516888 
L 381.052979 191.197349 
L 381.781557 190.964957 
L 383.603003 190.325879 
L 384.695871 189.977291 
L 385.424449 189.802997 
L 387.610184 189.396311 
L 388.338763 189.251066 
L 389.43163 188.989625 
L 389.79592 188.815331 
L 390.524498 188.670086 
L 391.253077 188.466744 
L 391.981655 188.118156 
L 392.345944 187.972911 
L 392.710233 187.972911 
L 398.174572 186.171873 
L 398.538861 185.765187 
L 400.724596 184.806571 
L 402.181753 184.283689 
L 402.546042 184.051297 
L 403.63891 183.702709 
L 405.096067 183.150778 
L 405.460356 182.831239 
L 406.553223 182.598847 
L 407.281802 182.250259 
L 407.646091 181.785476 
L 411.653272 180.855908 
L 412.017562 180.855908 
L 412.74614 180.623516 
L 416.024743 179.781095 
L 416.753321 179.606801 
L 423.310527 177.428127 
L 423.674816 177.166686 
L 424.403395 176.934294 
L 427.317709 175.88853 
L 428.046287 175.830432 
L 429.503444 175.394697 
L 429.867733 175.162305 
L 430.596311 174.929914 
L 432.782047 174.000346 
L 437.153517 172.373602 
L 440.43212 171.29879 
L 441.889277 170.049683 
L 444.439301 168.916772 
L 446.989326 167.783862 
L 447.717904 167.580519 
L 450.996507 165.924726 
L 451.725086 165.488991 
L 455.003689 163.862248 
L 455.367978 163.571758 
L 457.189424 162.874582 
L 459.739448 161.915965 
L 460.468027 161.828818 
L 460.832316 161.567378 
L 462.289473 161.276888 
L 463.018051 160.957349 
L 464.839497 160.05683 
L 469.575257 157.878156 
L 470.668125 157.500519 
L 471.032414 157.239078 
L 471.760992 157.151931 
L 472.125282 156.89049 
L 472.85386 156.774294 
L 477.58962 155.002305 
L 478.682487 154.740865 
L 480.139644 154.101787 
L 480.868223 153.695101 
L 482.325379 152.910778 
L 483.053958 152.736484 
L 483.418247 152.504092 
L 483.782536 152.416945 
L 485.603982 151.487378 
L 490.339742 149.657291 
L 490.704031 149.599193 
L 492.161188 148.872968 
L 492.889767 148.727723 
L 493.618345 148.291988 
L 495.075502 147.565764 
L 501.632708 144.980403 
L 503.089865 143.702248 
L 504.182732 143.266513 
L 506.732757 141.988357 
L 507.097046 141.726916 
L 507.825624 141.523573 
L 508.554203 141.116888 
L 509.64707 140.855447 
L 515.475698 138.415331 
L 517.297144 137.660058 
L 519.11859 137.079078 
L 520.211457 136.352853 
L 520.575747 136.265706 
L 521.304325 135.888069 
L 522.032904 135.655677 
L 522.397193 135.307089 
L 523.49006 134.871354 
L 523.85435 134.813256 
L 525.311506 134.116081 
L 526.404374 133.767493 
L 527.497242 133.360807 
L 528.590109 133.041268 
L 528.954399 132.98317 
L 529.682977 132.576484 
L 530.047266 132.431239 
L 530.411555 132.140749 
L 531.504423 131.850259 
L 532.233001 131.559769 
L 532.96158 131.240231 
L 534.418737 130.630202 
L 536.968761 129.991124 
L 537.69734 129.700634 
L 539.154496 129.410144 
L 539.883075 129.264899 
L 540.975943 128.829164 
L 542.06881 128.596772 
L 544.254545 127.260519 
L 545.347413 126.592392 
L 547.533148 125.895216 
L 547.897438 125.604726 
L 550.811751 124.558963 
L 551.904619 124.210375 
L 552.633197 123.803689 
L 553.361776 123.600346 
L 553.726065 123.397003 
L 554.454643 123.251758 
L 556.276089 122.409337 
L 557.004668 122.118847 
L 558.461825 121.537867 
L 558.826114 121.18928 
L 559.190403 121.131182 
L 560.64756 120.521153 
L 562.104717 120.143516 
L 562.469006 120.114467 
L 562.833295 119.940173 
L 563.561874 119.794928 
L 566.840477 118.778213 
L 567.569055 118.197233 
L 569.026212 117.354813 
L 569.390501 117.267666 
L 569.75479 117.064323 
L 570.119079 117.006225 
L 573.397682 115.379481 
L 573.761972 115.059942 
L 575.583418 114.624207 
L 576.676285 114.130375 
L 577.404864 113.927032 
L 577.769153 113.752738 
L 578.133442 113.433199 
L 580.683467 112.503631 
L 581.776334 112.009798 
L 582.140623 111.980749 
L 582.869202 111.690259 
L 584.326359 111.051182 
L 586.512094 110.499251 
L 587.604962 110.005418 
L 590.883565 108.930605 
L 591.612143 108.523919 
L 603.997976 104.689452 
L 604.726555 104.48611 
L 605.819422 104.079424 
L 606.183711 104.079424 
L 607.276579 103.817983 
L 608.005157 103.672738 
L 608.733736 103.469395 
L 609.826604 102.888415 
L 610.919471 102.539827 
L 613.469496 101.668357 
L 614.926653 100.913084 
L 617.476677 100.041614 
L 617.840966 99.722075 
L 618.569545 99.489683 
L 618.933834 99.257291 
L 619.662412 99.170144 
L 622.212437 98.443919 
L 623.305304 98.211527 
L 626.219618 97.165764 
L 630.955378 95.335677 
L 631.683956 95.219481 
L 632.412535 95.074236 
L 632.776824 95.074236 
L 633.869692 94.725648 
L 634.962559 94.377061 
L 638.241162 93.447493 
L 638.605451 93.418444 
L 640.426897 92.808415 
L 641.884054 92.517925 
L 642.976922 91.995043 
L 644.069789 91.733602 
L 644.798368 91.414063 
L 646.984103 90.629741 
L 647.348392 90.571643 
L 648.076971 90.310202 
L 652.448441 89.177291 
L 654.634177 88.422017 
L 655.362755 88.363919 
L 657.54849 87.811988 
L 658.277069 87.49245 
L 658.641358 87.434352 
L 659.005647 87.260058 
L 659.734226 86.62098 
L 663.377118 85.284726 
L 665.562853 84.703746 
L 666.291431 84.297061 
L 666.655721 84.209914 
L 667.748588 83.599885 
L 668.112877 83.512738 
L 668.477167 83.222248 
L 669.570034 82.902709 
L 675.034372 80.375447 
L 676.855819 79.736369 
L 677.220108 79.41683 
L 677.584397 79.329683 
L 678.312975 78.864899 
L 679.405843 78.54536 
L 680.863 77.935331 
L 681.227289 77.906282 
L 683.048735 77.209107 
L 683.777314 77.063862 
L 684.505892 76.54098 
L 684.870181 76.54098 
L 686.327338 76.018098 
L 687.784495 75.727608 
L 689.241652 75.08853 
L 689.605941 75.08853 
L 690.698809 74.710893 
L 691.427387 74.594697 
L 692.520255 73.95562 
L 693.248833 73.577983 
L 696.163147 72.532219 
L 696.891725 72.299827 
L 698.713171 71.951239 
L 704.541799 70.179251 
L 704.906088 70.121153 
L 705.634666 69.830663 
L 707.091823 69.511124 
L 710.006137 68.436311 
L 710.734715 68.291066 
L 712.191872 68.029625 
L 712.92045 67.913429 
L 714.377607 67.33245 
L 715.106186 67.129107 
L 715.834764 67.012911 
L 717.291921 66.548127 
L 717.65621 66.548127 
L 718.020499 66.257637 
L 718.749078 66.025245 
L 719.113367 66.025245 
L 722.756259 64.747089 
L 723.849127 64.282305 
L 724.213416 64.224207 
L 724.941994 63.87562 
L 725.670573 63.556081 
L 726.399151 63.236542 
L 727.12773 62.946052 
L 727.492019 62.742709 
L 727.856308 62.684611 
L 728.584887 62.336023 
L 729.677754 61.871239 
L 731.4992 61.086916 
L 731.863489 60.854524 
L 732.227779 60.767378 
L 732.592068 60.534986 
L 732.956357 60.476888 
L 733.684936 60.012104 
L 735.870671 59.489222 
L 736.599249 59.082536 
L 736.963538 59.024438 
L 738.420695 58.443458 
L 743.885033 56.38098 
L 745.34219 56.032392 
L 747.163636 55.8 
L 747.163636 55.8 
" clip-path="url(#p41006a4033)" style="fill: none; stroke: #1f77b4; stroke-width: 1.5; stroke-linecap: square"/>
   </g>
   <g id="line2d_32">
    <path d="M 138.800653 307.8 
L 142.079256 307.712853 
L 144.993569 307.567608 
L 146.450726 307.567608 
L 147.179305 307.451412 
L 156.286535 306.812334 
L 158.836559 306.725187 
L 160.658006 306.667089 
L 165.393765 306.579942 
L 167.215211 306.521844 
L 170.493814 306.434697 
L 171.950971 306.405648 
L 175.593863 306.318501 
L 177.05102 306.173256 
L 178.508177 306.144207 
L 180.693912 306.057061 
L 182.151069 306.028012 
L 183.972515 305.969914 
L 185.429672 305.824669 
L 188.708275 305.737522 
L 189.436853 305.679424 
L 190.89401 305.592277 
L 193.079745 305.50513 
L 194.536902 305.417983 
L 201.094108 304.982248 
L 203.644133 304.895101 
L 204.737 304.778905 
L 206.558446 304.691758 
L 210.201338 304.488415 
L 213.84423 304.430317 
L 215.301387 304.256023 
L 217.122833 304.168876 
L 220.765725 303.791239 
L 222.951461 303.500749 
L 224.408618 303.442651 
L 227.322931 303.035965 
L 229.508667 302.977867 
L 230.601534 302.861671 
L 231.694402 302.774524 
L 250.637441 301.351124 
L 253.187465 301.263977 
L 254.644622 301.089683 
L 256.466068 301.002536 
L 258.651803 300.915389 
L 260.47325 300.828242 
L 261.930406 300.799193 
L 263.751852 300.741095 
L 264.480431 300.653948 
L 269.58048 300.566801 
L 270.309058 300.479654 
L 274.680529 300.392507 
L 277.959132 300.218213 
L 280.509156 300.131066 
L 281.966313 299.956772 
L 284.516338 299.869625 
L 285.244916 299.753429 
L 287.066362 299.695331 
L 290.709254 299.637233 
L 292.166411 299.491988 
L 293.623568 299.462939 
L 294.716435 299.375793 
L 296.173592 299.230548 
L 299.816484 299.027205 
L 303.459377 298.940058 
L 306.737979 298.765764 
L 307.830847 298.736715 
L 308.559425 298.620519 
L 310.380872 298.533372 
L 311.10945 298.475274 
L 312.930896 298.388127 
L 314.388053 298.359078 
L 316.938077 298.271931 
L 326.409597 297.603804 
L 328.595332 297.516657 
L 330.416778 297.458559 
L 335.516827 297.371412 
L 336.245406 297.284265 
L 341.345455 297.197118 
L 344.988347 296.993775 
L 345.716925 296.964726 
L 346.445504 296.877579 
L 348.26695 296.790432 
L 350.088396 296.732334 
L 351.909842 296.645187 
L 353.731288 296.587089 
L 357.009891 296.499942 
L 359.195626 296.412795 
L 364.295675 296.325648 
L 368.302856 296.093256 
L 369.760013 296.035159 
L 370.852881 295.948012 
L 375.95293 295.860865 
L 378.138665 295.773718 
L 384.695871 295.686571 
L 386.153028 295.657522 
L 390.524498 295.599424 
L 391.253077 295.541326 
L 396.353126 295.454179 
L 397.810282 295.42513 
L 407.281802 295.337983 
L 409.467537 295.250836 
L 424.767684 295.163689 
L 426.58913 295.105591 
L 437.153517 295.018444 
L 441.160699 294.786052 
L 443.346434 294.698905 
L 445.532169 294.611758 
L 449.175061 294.524611 
L 451.725086 294.408415 
L 454.639399 294.321268 
L 457.553713 294.176023 
L 464.475208 294.088876 
L 466.660943 294.001729 
L 470.668125 293.914582 
L 473.218149 293.798386 
L 475.768174 293.740288 
L 476.496752 293.68219 
L 485.239693 293.595043 
L 488.882585 293.3917 
L 491.43261 293.304553 
L 495.439791 293.072161 
L 499.811262 292.985014 
L 501.268418 292.955965 
L 501.996997 292.897867 
L 503.818443 292.694524 
L 507.461335 292.607378 
L 508.189913 292.520231 
L 511.832806 292.433084 
L 513.654252 292.374986 
L 517.661433 292.345937 
L 518.390011 292.25879 
L 522.397193 292.171643 
L 523.125771 292.113545 
L 531.140134 292.026398 
L 533.325869 291.939251 
L 538.790207 291.852104 
L 540.247364 291.823055 
L 543.525967 291.764957 
L 544.254545 291.67781 
L 548.990305 291.590663 
L 550.811751 291.532565 
L 557.368957 291.445418 
L 558.461825 291.358271 
L 559.554692 291.271124 
L 560.64756 291.183977 
L 566.111898 291.09683 
L 568.297633 291.009683 
L 578.862021 290.922536 
L 582.140623 290.748242 
L 587.240672 290.661095 
L 588.697829 290.632046 
L 593.0693 290.544899 
L 594.890746 290.486801 
L 603.269398 290.399654 
L 605.455133 290.312507 
L 611.64805 290.22536 
L 613.105206 290.196311 
L 616.748099 290.109164 
L 619.298123 289.992968 
L 623.305304 289.905821 
L 625.855329 289.789625 
L 629.133932 289.731527 
L 629.86251 289.673429 
L 637.876873 289.586282 
L 640.062608 289.499135 
L 642.612633 289.411988 
L 644.434079 289.35389 
L 654.998466 289.266744 
L 657.184201 289.179597 
L 663.377118 289.09245 
L 665.198564 289.034352 
L 669.934323 288.947205 
L 672.120059 288.860058 
L 675.034372 288.772911 
L 677.220108 288.685764 
L 691.791676 288.598617 
L 694.70599 288.453372 
L 703.084642 288.366225 
L 704.541799 288.337176 
L 713.28474 288.250029 
L 715.106186 288.191931 
L 726.763441 288.104784 
L 728.220597 288.075735 
L 739.149274 287.988588 
L 739.877852 287.93049 
L 747.163636 287.901441 
L 747.163636 287.901441 
" clip-path="url(#p41006a4033)" style="fill: none; stroke: #ff7f0e; stroke-width: 1.5; stroke-linecap: square"/>
   </g>
   <g id="patch_3">
    <path d="M 108 320.4 
L 108 43.2 
" style="fill: none; stroke: #a9a9a9; stroke-width: 0.8; stroke-linejoin: miter; stroke-linecap: square"/>
   </g>
   <g id="patch_4">
    <path d="M 777.6 320.4 
L 777.6 43.2 
" style="fill: none"/>
   </g>
   <g id="patch_5">
    <path d="M 108 320.4 
L 777.6 320.4 
" style="fill: none; stroke: #a9a9a9; stroke-width: 0.8; stroke-linejoin: miter; stroke-linecap: square"/>
   </g>
   <g id="patch_6">
    <path d="M 108 43.2 
L 777.6 43.2 
" style="fill: none"/>
   </g>
   <g id="text_16">
    <!-- get_subscribe history -->
    <g style="fill: #a9a9a9" transform="translate(378.6075 37.2) scale(0.12 -0.12)">
     <defs>
      <path id="DejaVuSans-67" d="M 2906 1791 
Q 2906 2416 2648 2759 
Q 2391 3103 1925 3103 
Q 1463 3103 1205 2759 
Q 947 2416 947 1791 
Q 947 1169 1205 825 
Q 1463 481 1925 481 
Q 2391 481 2648 825 
Q 2906 1169 2906 1791 
z
M 3481 434 
Q 3481 -459 3084 -895 
Q 2688 -1331 1869 -1331 
Q 1566 -1331 1297 -1286 
Q 1028 -1241 775 -1147 
L 775 -588 
Q 1028 -725 1275 -790 
Q 1522 -856 1778 -856 
Q 2344 -856 2625 -561 
Q 2906 -266 2906 331 
L 2906 616 
Q 2728 306 2450 153 
Q 2172 0 1784 0 
Q 1141 0 747 490 
Q 353 981 353 1791 
Q 353 2603 747 3093 
Q 1141 3584 1784 3584 
Q 2172 3584 2450 3431 
Q 2728 3278 2906 2969 
L 2906 3500 
L 3481 3500 
L 3481 434 
z
" transform="scale(0.015625)"/>
      <path id="DejaVuSans-65" d="M 3597 1894 
L 3597 1613 
L 953 1613 
Q 991 1019 1311 708 
Q 1631 397 2203 397 
Q 2534 397 2845 478 
Q 3156 559 3463 722 
L 3463 178 
Q 3153 47 2828 -22 
Q 2503 -91 2169 -91 
Q 1331 -91 842 396 
Q 353 884 353 1716 
Q 353 2575 817 3079 
Q 1281 3584 2069 3584 
Q 2775 3584 3186 3129 
Q 3597 2675 3597 1894 
z
M 3022 2063 
Q 3016 2534 2758 2815 
Q 2500 3097 2075 3097 
Q 1594 3097 1305 2825 
Q 1016 2553 972 2059 
L 3022 2063 
z
" transform="scale(0.015625)"/>
      <path id="DejaVuSans-74" d="M 1172 4494 
L 1172 3500 
L 2356 3500 
L 2356 3053 
L 1172 3053 
L 1172 1153 
Q 1172 725 1289 603 
Q 1406 481 1766 481 
L 2356 481 
L 2356 0 
L 1766 0 
Q 1100 0 847 248 
Q 594 497 594 1153 
L 594 3053 
L 172 3053 
L 172 3500 
L 594 3500 
L 594 4494 
L 1172 4494 
z
" transform="scale(0.015625)"/>
      <path id="DejaVuSans-5f" d="M 3263 -1063 
L 3263 -1509 
L -63 -1509 
L -63 -1063 
L 3263 -1063 
z
" transform="scale(0.015625)"/>
      <path id="DejaVuSans-73" d="M 2834 3397 
L 2834 2853 
Q 2591 2978 2328 3040 
Q 2066 3103 1784 3103 
Q 1356 3103 1142 2972 
Q 928 2841 928 2578 
Q 928 2378 1081 2264 
Q 1234 2150 1697 2047 
L 1894 2003 
Q 2506 1872 2764 1633 
Q 3022 1394 3022 966 
Q 3022 478 2636 193 
Q 2250 -91 1575 -91 
Q 1294 -91 989 -36 
Q 684 19 347 128 
L 347 722 
Q 666 556 975 473 
Q 1284 391 1588 391 
Q 1994 391 2212 530 
Q 2431 669 2431 922 
Q 2431 1156 2273 1281 
Q 2116 1406 1581 1522 
L 1381 1569 
Q 847 1681 609 1914 
Q 372 2147 372 2553 
Q 372 3047 722 3315 
Q 1072 3584 1716 3584 
Q 2034 3584 2315 3537 
Q 2597 3491 2834 3397 
z
" transform="scale(0.015625)"/>
      <path id="DejaVuSans-75" d="M 544 1381 
L 544 3500 
L 1119 3500 
L 1119 1403 
Q 1119 906 1312 657 
Q 1506 409 1894 409 
Q 2359 409 2629 706 
Q 2900 1003 2900 1516 
L 2900 3500 
L 3475 3500 
L 3475 0 
L 2900 0 
L 2900 538 
Q 2691 219 2414 64 
Q 2138 -91 1772 -91 
Q 1169 -91 856 284 
Q 544 659 544 1381 
z
M 1991 3584 
L 1991 3584 
z
" transform="scale(0.015625)"/>
      <path id="DejaVuSans-62" d="M 3116 1747 
Q 3116 2381 2855 2742 
Q 2594 3103 2138 3103 
Q 1681 3103 1420 2742 
Q 1159 2381 1159 1747 
Q 1159 1113 1420 752 
Q 1681 391 2138 391 
Q 2594 391 2855 752 
Q 3116 1113 3116 1747 
z
M 1159 2969 
Q 1341 3281 1617 3432 
Q 1894 3584 2278 3584 
Q 2916 3584 3314 3078 
Q 3713 2572 3713 1747 
Q 3713 922 3314 415 
Q 2916 -91 2278 -91 
Q 1894 -91 1617 61 
Q 1341 213 1159 525 
L 1159 0 
L 581 0 
L 581 4863 
L 1159 4863 
L 1159 2969 
z
" transform="scale(0.015625)"/>
      <path id="DejaVuSans-63" d="M 3122 3366 
L 3122 2828 
Q 2878 2963 2633 3030 
Q 2388 3097 2138 3097 
Q 1578 3097 1268 2742 
Q 959 2388 959 1747 
Q 959 1106 1268 751 
Q 1578 397 2138 397 
Q 2388 397 2633 464 
Q 2878 531 3122 666 
L 3122 134 
Q 2881 22 2623 -34 
Q 2366 -91 2075 -91 
Q 1284 -91 818 406 
Q 353 903 353 1747 
Q 353 2603 823 3093 
Q 1294 3584 2113 3584 
Q 2378 3584 2631 3529 
Q 2884 3475 3122 3366 
z
" transform="scale(0.015625)"/>
      <path id="DejaVuSans-72" d="M 2631 2963 
Q 2534 3019 2420 3045 
Q 2306 3072 2169 3072 
Q 1681 3072 1420 2755 
Q 1159 2438 1159 1844 
L 1159 0 
L 581 0 
L 581 3500 
L 1159 3500 
L 1159 2956 
Q 1341 3275 1631 3429 
Q 1922 3584 2338 3584 
Q 2397 3584 2469 3576 
Q 2541 3569 2628 3553 
L 2631 2963 
z
" transform="scale(0.015625)"/>
      <path id="DejaVuSans-69" d="M 603 3500 
L 1178 3500 
L 1178 0 
L 603 0 
L 603 3500 
z
M 603 4863 
L 1178 4863 
L 1178 4134 
L 603 4134 
L 603 4863 
z
" transform="scale(0.015625)"/>
      <path id="DejaVuSans-20" transform="scale(0.015625)"/>
      <path id="DejaVuSans-68" d="M 3513 2113 
L 3513 0 
L 2938 0 
L 2938 2094 
Q 2938 2591 2744 2837 
Q 2550 3084 2163 3084 
Q 1697 3084 1428 2787 
Q 1159 2491 1159 1978 
L 1159 0 
L 581 0 
L 581 4863 
L 1159 4863 
L 1159 2956 
Q 1366 3272 1645 3428 
Q 1925 3584 2291 3584 
Q 2894 3584 3203 3211 
Q 3513 2838 3513 2113 
z
" transform="scale(0.015625)"/>
      <path id="DejaVuSans-6f" d="M 1959 3097 
Q 1497 3097 1228 2736 
Q 959 2375 959 1747 
Q 959 1119 1226 758 
Q 1494 397 1959 397 
Q 2419 397 2687 759 
Q 2956 1122 2956 1747 
Q 2956 2369 2687 2733 
Q 2419 3097 1959 3097 
z
M 1959 3584 
Q 2709 3584 3137 3096 
Q 3566 2609 3566 1747 
Q 3566 888 3137 398 
Q 2709 -91 1959 -91 
Q 1206 -91 779 398 
Q 353 888 353 1747 
Q 353 2609 779 3096 
Q 1206 3584 1959 3584 
z
" transform="scale(0.015625)"/>
      <path id="DejaVuSans-79" d="M 2059 -325 
Q 1816 -950 1584 -1140 
Q 1353 -1331 966 -1331 
L 506 -1331 
L 506 -850 
L 844 -850 
Q 1081 -850 1212 -737 
Q 1344 -625 1503 -206 
L 1606 56 
L 191 3500 
L 800 3500 
L 1894 763 
L 2988 3500 
L 3597 3500 
L 2059 -325 
z
" transform="scale(0.015625)"/>
     </defs>
     <use xlink:href="#DejaVuSans-67"/>
     <use xlink:href="#DejaVuSans-65" transform="translate(63.476562 0)"/>
     <use xlink:href="#DejaVuSans-74" transform="translate(125 0)"/>
     <use xlink:href="#DejaVuSans-5f" transform="translate(164.208984 0)"/>
     <use xlink:href="#DejaVuSans-73" transform="translate(214.208984 0)"/>
     <use xlink:href="#DejaVuSans-75" transform="translate(266.308594 0)"/>
     <use xlink:href="#DejaVuSans-62" transform="translate(329.6875 0)"/>
     <use xlink:href="#DejaVuSans-73" transform="translate(393.164062 0)"/>
     <use xlink:href="#DejaVuSans-63" transform="translate(445.263672 0)"/>
     <use xlink:href="#DejaVuSans-72" transform="translate(500.244141 0)"/>
     <use xlink:href="#DejaVuSans-69" transform="translate(541.357422 0)"/>
     <use xlink:href="#DejaVuSans-62" transform="translate(569.140625 0)"/>
     <use xlink:href="#DejaVuSans-65" transform="translate(632.617188 0)"/>
     <use xlink:href="#DejaVuSans-20" transform="translate(694.140625 0)"/>
     <use xlink:href="#DejaVuSans-68" transform="translate(725.927734 0)"/>
     <use xlink:href="#DejaVuSans-69" transform="translate(789.306641 0)"/>
     <use xlink:href="#DejaVuSans-73" transform="translate(817.089844 0)"/>
     <use xlink:href="#DejaVuSans-74" transform="translate(869.189453 0)"/>
     <use xlink:href="#DejaVuSans-6f" transform="translate(908.398438 0)"/>
     <use xlink:href="#DejaVuSans-72" transform="translate(969.580078 0)"/>
     <use xlink:href="#DejaVuSans-79" transform="translate(1010.693359 0)"/>
    </g>
   </g>
   <g id="legend_1">
    <g id="line2d_33">
     <path d="M 815.08 328.498438 
L 825.08 328.498438 
L 835.08 328.498438 
" style="fill: none; stroke: #1f77b4; stroke-width: 1.5; stroke-linecap: square"/>
    </g>
    <g id="text_17">
     <!-- star -->
     <g style="fill: #a9a9a9" transform="translate(843.08 331.998438) scale(0.1 -0.1)">
      <defs>
       <path id="DejaVuSans-61" d="M 2194 1759 
Q 1497 1759 1228 1600 
Q 959 1441 959 1056 
Q 959 750 1161 570 
Q 1363 391 1709 391 
Q 2188 391 2477 730 
Q 2766 1069 2766 1631 
L 2766 1759 
L 2194 1759 
z
M 3341 1997 
L 3341 0 
L 2766 0 
L 2766 531 
Q 2569 213 2275 61 
Q 1981 -91 1556 -91 
Q 1019 -91 701 211 
Q 384 513 384 1019 
Q 384 1609 779 1909 
Q 1175 2209 1959 2209 
L 2766 2209 
L 2766 2266 
Q 2766 2663 2505 2880 
Q 2244 3097 1772 3097 
Q 1472 3097 1187 3025 
Q 903 2953 641 2809 
L 641 3341 
Q 956 3463 1253 3523 
Q 1550 3584 1831 3584 
Q 2591 3584 2966 3190 
Q 3341 2797 3341 1997 
z
" transform="scale(0.015625)"/>
      </defs>
      <use xlink:href="#DejaVuSans-73"/>
      <use xlink:href="#DejaVuSans-74" transform="translate(52.099609 0)"/>
      <use xlink:href="#DejaVuSans-61" transform="translate(91.308594 0)"/>
      <use xlink:href="#DejaVuSans-72" transform="translate(152.587891 0)"/>
     </g>
    </g>
    <g id="line2d_34">
     <path d="M 815.08 343.176562 
L 825.08 343.176562 
L 835.08 343.176562 
" style="fill: none; stroke: #ff7f0e; stroke-width: 1.5; stroke-linecap: square"/>
    </g>
    <g id="text_18">
     <!-- fork -->
     <g style="fill: #a9a9a9" transform="translate(843.08 346.676562) scale(0.1 -0.1)">
      <defs>
       <path id="DejaVuSans-66" d="M 2375 4863 
L 2375 4384 
L 1825 4384 
Q 1516 4384 1395 4259 
Q 1275 4134 1275 3809 
L 1275 3500 
L 2222 3500 
L 2222 3053 
L 1275 3053 
L 1275 0 
L 697 0 
L 697 3053 
L 147 3053 
L 147 3500 
L 697 3500 
L 697 3744 
Q 697 4328 969 4595 
Q 1241 4863 1831 4863 
L 2375 4863 
z
" transform="scale(0.015625)"/>
       <path id="DejaVuSans-6b" d="M 581 4863 
L 1159 4863 
L 1159 1991 
L 2875 3500 
L 3609 3500 
L 1753 1863 
L 3688 0 
L 2938 0 
L 1159 1709 
L 1159 0 
L 581 0 
L 581 4863 
z
" transform="scale(0.015625)"/>
      </defs>
      <use xlink:href="#DejaVuSans-66"/>
      <use xlink:href="#DejaVuSans-6f" transform="translate(35.205078 0)"/>
      <use xlink:href="#DejaVuSans-72" transform="translate(96.386719 0)"/>
      <use xlink:href="#DejaVuSans-6b" transform="translate(137.5 0)"/>
     </g>
    </g>
   </g>
  </g>
 </g>
 <defs>
  <clipPath id="p41006a4033">
   <rect x="108" y="43.2" width="669.6" height="277.2"/>
  </clipPath>
 </defs>
</svg>
