<?xml version="1.0" encoding="utf-8" standalone="no"?>
<!DOCTYPE svg PUBLIC "-//W3C//DTD SVG 1.1//EN"
  "http://www.w3.org/Graphics/SVG/1.1/DTD/svg11.dtd">
<svg xmlns:xlink="http://www.w3.org/1999/xlink" width="864pt" height="360pt" viewBox="0 0 864 360" xmlns="http://www.w3.org/2000/svg" version="1.1">
 <metadata>
  <rdf:RDF xmlns:dc="http://purl.org/dc/elements/1.1/" xmlns:cc="http://creativecommons.org/ns#" xmlns:rdf="http://www.w3.org/1999/02/22-rdf-syntax-ns#">
   <cc:Work>
    <dc:type rdf:resource="http://purl.org/dc/dcmitype/StillImage"/>
    <dc:date>2026-02-19T08:23:21.916467</dc:date>
    <dc:format>image/svg+xml</dc:format>
    <dc:creator>
     <cc:Agent>
      <dc:title>Matplotlib v3.10.8, https://matplotlib.org/</dc:title>
     </cc:Agent>
    </dc:creator>
   </cc:Work>
  </rdf:RDF>
 </metadata>
 <defs>
  <style type="text/css">*{stroke-linejoin: round; stroke-linecap: butt}</style>
 </defs>
 <g id="figure_1">
  <g id="patch_1">
   <path d="M 0 360 
L 864 360 
L 864 0 
L 0 0 
L 0 360 
z
" style="fill: none; opacity: 0"/>
  </g>
  <g id="axes_1">
   <g id="patch_2">
    <path d="M 108 320.4 
L 777.6 320.4 
L 777.6 43.2 
L 108 43.2 
L 108 320.4 
z
" style="fill: none; opacity: 0"/>
   </g>
   <g id="matplotlib.axis_1">
    <g id="xtick_1">
     <g id="line2d_1">
      <path d="M 197.086927 320.4 
L 197.086927 43.2 
" clip-path="url(#pb9235bd3ee)" style="fill: none; stroke-dasharray: 5.12,1.28,0.8,1.28; stroke-dashoffset: 0; stroke: #b0b0b0; stroke-width: 0.8"/>
     </g>
     <g id="line2d_2">
      <defs>
       <path id="m6cc6b79076" d="M 0 0 
L 0 3.5 
" style="stroke: #a9a9a9; stroke-width: 0.8"/>
      </defs>
      <g>
       <use xlink:href="#m6cc6b79076" x="197.086927" y="320.4" style="fill: #a9a9a9; stroke: #a9a9a9; stroke-width: 0.8"/>
      </g>
     </g>
     <g id="text_1">
      <!-- 2022 -->
      <g style="fill: #a9a9a9" transform="translate(184.361927 334.998438) scale(0.1 -0.1)">
       <defs>
        <path id="DejaVuSans-32" d="M 1228 531 
L 3431 531 
L 3431 0 
L 469 0 
L 469 531 
Q 828 903 1448 1529 
Q 2069 2156 2228 2338 
Q 2531 2678 2651 2914 
Q 2772 3150 2772 3378 
Q 2772 3750 2511 3984 
Q 2250 4219 1831 4219 
Q 1534 4219 1204 4116 
Q 875 4013 500 3803 
L 500 4441 
Q 881 4594 1212 4672 
Q 1544 4750 1819 4750 
Q 2544 4750 2975 4387 
Q 3406 4025 3406 3419 
Q 3406 3131 3298 2873 
Q 3191 2616 2906 2266 
Q 2828 2175 2409 1742 
Q 1991 1309 1228 531 
z
" transform="scale(0.015625)"/>
        <path id="DejaVuSans-30" d="M 2034 4250 
Q 1547 4250 1301 3770 
Q 1056 3291 1056 2328 
Q 1056 1369 1301 889 
Q 1547 409 2034 409 
Q 2525 409 2770 889 
Q 3016 1369 3016 2328 
Q 3016 3291 2770 3770 
Q 2525 4250 2034 4250 
z
M 2034 4750 
Q 2819 4750 3233 4129 
Q 3647 3509 3647 2328 
Q 3647 1150 3233 529 
Q 2819 -91 2034 -91 
Q 1250 -91 836 529 
Q 422 1150 422 2328 
Q 422 3509 836 4129 
Q 1250 4750 2034 4750 
z
" transform="scale(0.015625)"/>
       </defs>
       <use xlink:href="#DejaVuSans-32"/>
       <use xlink:href="#DejaVuSans-30" transform="translate(63.623047 0)"/>
       <use xlink:href="#DejaVuSans-32" transform="translate(127.246094 0)"/>
       <use xlink:href="#DejaVuSans-32" transform="translate(190.869141 0)"/>
      </g>
     </g>
    </g>
    <g id="xtick_2">
     <g id="line2d_3">
      <path d="M 330.052489 320.4 
L 330.052489 43.2 
" clip-path="url(#pb9235bd3ee)" style="fill: none; stroke-dasharray: 5.12,1.28,0.8,1.28; stroke-dashoffset: 0; stroke: #b0b0b0; stroke-width: 0.8"/>
     </g>
     <g id="line2d_4">
      <g>
       <use xlink:href="#m6cc6b79076" x="330.052489" y="320.4" style="fill: #a9a9a9; stroke: #a9a9a9; stroke-width: 0.8"/>
      </g>
     </g>
     <g id="text_2">
      <!-- 2023 -->
      <g style="fill: #a9a9a9" transform="translate(317.327489 334.998438) scale(0.1 -0.1)">
       <defs>
        <path id="DejaVuSans-33" d="M 2597 2516 
Q 3050 2419 3304 2112 
Q 3559 1806 3559 1356 
Q 3559 666 3084 287 
Q 2609 -91 1734 -91 
Q 1441 -91 1130 -33 
Q 819 25 488 141 
L 488 750 
Q 750 597 1062 519 
Q 1375 441 1716 441 
Q 2309 441 2620 675 
Q 2931 909 2931 1356 
Q 2931 1769 2642 2001 
Q 2353 2234 1838 2234 
L 1294 2234 
L 1294 2753 
L 1863 2753 
Q 2328 2753 2575 2939 
Q 2822 3125 2822 3475 
Q 2822 3834 2567 4026 
Q 2313 4219 1838 4219 
Q 1578 4219 1281 4162 
Q 984 4106 628 3988 
L 628 4550 
Q 988 4650 1302 4700 
Q 1616 4750 1894 4750 
Q 2613 4750 3031 4423 
Q 3450 4097 3450 3541 
Q 3450 3153 3228 2886 
Q 3006 2619 2597 2516 
z
" transform="scale(0.015625)"/>
       </defs>
       <use xlink:href="#DejaVuSans-32"/>
       <use xlink:href="#DejaVuSans-30" transform="translate(63.623047 0)"/>
       <use xlink:href="#DejaVuSans-32" transform="translate(127.246094 0)"/>
       <use xlink:href="#DejaVuSans-33" transform="translate(190.869141 0)"/>
      </g>
     </g>
    </g>
    <g id="xtick_3">
     <g id="line2d_5">
      <path d="M 463.018051 320.4 
L 463.018051 43.2 
" clip-path="url(#pb9235bd3ee)" style="fill: none; stroke-dasharray: 5.12,1.28,0.8,1.28; stroke-dashoffset: 0; stroke: #b0b0b0; stroke-width: 0.8"/>
     </g>
     <g id="line2d_6">
      <g>
       <use xlink:href="#m6cc6b79076" x="463.018051" y="320.4" style="fill: #a9a9a9; stroke: #a9a9a9; stroke-width: 0.8"/>
      </g>
     </g>
     <g id="text_3">
      <!-- 2024 -->
      <g style="fill: #a9a9a9" transform="translate(450.293051 334.998438) scale(0.1 -0.1)">
       <defs>
        <path id="DejaVuSans-34" d="M 2419 4116 
L 825 1625 
L 2419 1625 
L 2419 4116 
z
M 2253 4666 
L 3047 4666 
L 3047 1625 
L 3713 1625 
L 3713 1100 
L 3047 1100 
L 3047 0 
L 2419 0 
L 2419 1100 
L 313 1100 
L 313 1709 
L 2253 4666 
z
" transform="scale(0.015625)"/>
       </defs>
       <use xlink:href="#DejaVuSans-32"/>
       <use xlink:href="#DejaVuSans-30" transform="translate(63.623047 0)"/>
       <use xlink:href="#DejaVuSans-32" transform="translate(127.246094 0)"/>
       <use xlink:href="#DejaVuSans-34" transform="translate(190.869141 0)"/>
      </g>
     </g>
    </g>
    <g id="xtick_4">
     <g id="line2d_7">
      <path d="M 596.347903 320.4 
L 596.347903 43.2 
" clip-path="url(#pb9235bd3ee)" style="fill: none; stroke-dasharray: 5.12,1.28,0.8,1.28; stroke-dashoffset: 0; stroke: #b0b0b0; stroke-width: 0.8"/>
     </g>
     <g id="line2d_8">
      <g>
       <use xlink:href="#m6cc6b79076" x="596.347903" y="320.4" style="fill: #a9a9a9; stroke: #a9a9a9; stroke-width: 0.8"/>
      </g>
     </g>
     <g id="text_4">
      <!-- 2025 -->
      <g style="fill: #a9a9a9" transform="translate(583.622903 334.998438) scale(0.1 -0.1)">
       <defs>
        <path id="DejaVuSans-35" d="M 691 4666 
L 3169 4666 
L 3169 4134 
L 1269 4134 
L 1269 2991 
Q 1406 3038 1543 3061 
Q 1681 3084 1819 3084 
Q 2600 3084 3056 2656 
Q 3513 2228 3513 1497 
Q 3513 744 3044 326 
Q 2575 -91 1722 -91 
Q 1428 -91 1123 -41 
Q 819 9 494 109 
L 494 744 
Q 775 591 1075 516 
Q 1375 441 1709 441 
Q 2250 441 2565 725 
Q 2881 1009 2881 1497 
Q 2881 1984 2565 2268 
Q 2250 2553 1709 2553 
Q 1456 2553 1204 2497 
Q 953 2441 691 2322 
L 691 4666 
z
" transform="scale(0.015625)"/>
       </defs>
       <use xlink:href="#DejaVuSans-32"/>
       <use xlink:href="#DejaVuSans-30" transform="translate(63.623047 0)"/>
       <use xlink:href="#DejaVuSans-32" transform="translate(127.246094 0)"/>
       <use xlink:href="#DejaVuSans-35" transform="translate(190.869141 0)"/>
      </g>
     </g>
    </g>
    <g id="xtick_5">
     <g id="line2d_9">
      <path d="M 729.313465 320.4 
L 729.313465 43.2 
" clip-path="url(#pb9235bd3ee)" style="fill: none; stroke-dasharray: 5.12,1.28,0.8,1.28; stroke-dashoffset: 0; stroke: #b0b0b0; stroke-width: 0.8"/>
     </g>
     <g id="line2d_10">
      <g>
       <use xlink:href="#m6cc6b79076" x="729.313465" y="320.4" style="fill: #a9a9a9; stroke: #a9a9a9; stroke-width: 0.8"/>
      </g>
     </g>
     <g id="text_5">
      <!-- 2026 -->
      <g style="fill: #a9a9a9" transform="translate(716.588465 334.998438) scale(0.1 -0.1)">
       <defs>
        <path id="DejaVuSans-36" d="M 2113 2584 
Q 1688 2584 1439 2293 
Q 1191 2003 1191 1497 
Q 1191 994 1439 701 
Q 1688 409 2113 409 
Q 2538 409 2786 701 
Q 3034 994 3034 1497 
Q 3034 2003 2786 2293 
Q 2538 2584 2113 2584 
z
M 3366 4563 
L 3366 3988 
Q 3128 4100 2886 4159 
Q 2644 4219 2406 4219 
Q 1781 4219 1451 3797 
Q 1122 3375 1075 2522 
Q 1259 2794 1537 2939 
Q 1816 3084 2150 3084 
Q 2853 3084 3261 2657 
Q 3669 2231 3669 1497 
Q 3669 778 3244 343 
Q 2819 -91 2113 -91 
Q 1303 -91 875 529 
Q 447 1150 447 2328 
Q 447 3434 972 4092 
Q 1497 4750 2381 4750 
Q 2619 4750 2861 4703 
Q 3103 4656 3366 4563 
z
" transform="scale(0.015625)"/>
       </defs>
       <use xlink:href="#DejaVuSans-32"/>
       <use xlink:href="#DejaVuSans-30" transform="translate(63.623047 0)"/>
       <use xlink:href="#DejaVuSans-32" transform="translate(127.246094 0)"/>
       <use xlink:href="#DejaVuSans-36" transform="translate(190.869141 0)"/>
      </g>
     </g>
    </g>
   </g>
   <g id="matplotlib.axis_2">
    <g id="ytick_1">
     <g id="line2d_11">
      <path d="M 108 307.829056 
L 777.6 307.829056 
" clip-path="url(#pb9235bd3ee)" style="fill: none; stroke-dasharray: 5.12,1.28,0.8,1.28; stroke-dashoffset: 0; stroke: #b0b0b0; stroke-width: 0.8"/>
     </g>
     <g id="line2d_12">
      <defs>
       <path id="m7b135a2677" d="M 0 0 
L -3.5 0 
" style="stroke: #a9a9a9; stroke-width: 0.8"/>
      </defs>
      <g>
       <use xlink:href="#m7b135a2677" x="108" y="307.829056" style="fill: #a9a9a9; stroke: #a9a9a9; stroke-width: 0.8"/>
      </g>
     </g>
     <g id="text_6">
      <!-- 0 -->
      <g style="fill: #a9a9a9" transform="translate(94.6375 311.628274) scale(0.1 -0.1)">
       <use xlink:href="#DejaVuSans-30"/>
      </g>
     </g>
    </g>
    <g id="ytick_2">
     <g id="line2d_13">
      <path d="M 108 278.773366 
L 777.6 278.773366 
" clip-path="url(#pb9235bd3ee)" style="fill: none; stroke-dasharray: 5.12,1.28,0.8,1.28; stroke-dashoffset: 0; stroke: #b0b0b0; stroke-width: 0.8"/>
     </g>
     <g id="line2d_14">
      <g>
       <use xlink:href="#m7b135a2677" x="108" y="278.773366" style="fill: #a9a9a9; stroke: #a9a9a9; stroke-width: 0.8"/>
      </g>
     </g>
     <g id="text_7">
      <!-- 1000 -->
      <g style="fill: #a9a9a9" transform="translate(75.55 282.572584) scale(0.1 -0.1)">
       <defs>
        <path id="DejaVuSans-31" d="M 794 531 
L 1825 531 
L 1825 4091 
L 703 3866 
L 703 4441 
L 1819 4666 
L 2450 4666 
L 2450 531 
L 3481 531 
L 3481 0 
L 794 0 
L 794 531 
z
" transform="scale(0.015625)"/>
       </defs>
       <use xlink:href="#DejaVuSans-31"/>
       <use xlink:href="#DejaVuSans-30" transform="translate(63.623047 0)"/>
       <use xlink:href="#DejaVuSans-30" transform="translate(127.246094 0)"/>
       <use xlink:href="#DejaVuSans-30" transform="translate(190.869141 0)"/>
      </g>
     </g>
    </g>
    <g id="ytick_3">
     <g id="line2d_15">
      <path d="M 108 249.717676 
L 777.6 249.717676 
" clip-path="url(#pb9235bd3ee)" style="fill: none; stroke-dasharray: 5.12,1.28,0.8,1.28; stroke-dashoffset: 0; stroke: #b0b0b0; stroke-width: 0.8"/>
     </g>
     <g id="line2d_16">
      <g>
       <use xlink:href="#m7b135a2677" x="108" y="249.717676" style="fill: #a9a9a9; stroke: #a9a9a9; stroke-width: 0.8"/>
      </g>
     </g>
     <g id="text_8">
      <!-- 2000 -->
      <g style="fill: #a9a9a9" transform="translate(75.55 253.516894) scale(0.1 -0.1)">
       <use xlink:href="#DejaVuSans-32"/>
       <use xlink:href="#DejaVuSans-30" transform="translate(63.623047 0)"/>
       <use xlink:href="#DejaVuSans-30" transform="translate(127.246094 0)"/>
       <use xlink:href="#DejaVuSans-30" transform="translate(190.869141 0)"/>
      </g>
     </g>
    </g>
    <g id="ytick_4">
     <g id="line2d_17">
      <path d="M 108 220.661985 
L 777.6 220.661985 
" clip-path="url(#pb9235bd3ee)" style="fill: none; stroke-dasharray: 5.12,1.28,0.8,1.28; stroke-dashoffset: 0; stroke: #b0b0b0; stroke-width: 0.8"/>
     </g>
     <g id="line2d_18">
      <g>
       <use xlink:href="#m7b135a2677" x="108" y="220.661985" style="fill: #a9a9a9; stroke: #a9a9a9; stroke-width: 0.8"/>
      </g>
     </g>
     <g id="text_9">
      <!-- 3000 -->
      <g style="fill: #a9a9a9" transform="translate(75.55 224.461204) scale(0.1 -0.1)">
       <use xlink:href="#DejaVuSans-33"/>
       <use xlink:href="#DejaVuSans-30" transform="translate(63.623047 0)"/>
       <use xlink:href="#DejaVuSans-30" transform="translate(127.246094 0)"/>
       <use xlink:href="#DejaVuSans-30" transform="translate(190.869141 0)"/>
      </g>
     </g>
    </g>
    <g id="ytick_5">
     <g id="line2d_19">
      <path d="M 108 191.606295 
L 777.6 191.606295 
" clip-path="url(#pb9235bd3ee)" style="fill: none; stroke-dasharray: 5.12,1.28,0.8,1.28; stroke-dashoffset: 0; stroke: #b0b0b0; stroke-width: 0.8"/>
     </g>
     <g id="line2d_20">
      <g>
       <use xlink:href="#m7b135a2677" x="108" y="191.606295" style="fill: #a9a9a9; stroke: #a9a9a9; stroke-width: 0.8"/>
      </g>
     </g>
     <g id="text_10">
      <!-- 4000 -->
      <g style="fill: #a9a9a9" transform="translate(75.55 195.405514) scale(0.1 -0.1)">
       <use xlink:href="#DejaVuSans-34"/>
       <use xlink:href="#DejaVuSans-30" transform="translate(63.623047 0)"/>
       <use xlink:href="#DejaVuSans-30" transform="translate(127.246094 0)"/>
       <use xlink:href="#DejaVuSans-30" transform="translate(190.869141 0)"/>
      </g>
     </g>
    </g>
    <g id="ytick_6">
     <g id="line2d_21">
      <path d="M 108 162.550605 
L 777.6 162.550605 
" clip-path="url(#pb9235bd3ee)" style="fill: none; stroke-dasharray: 5.12,1.28,0.8,1.28; stroke-dashoffset: 0; stroke: #b0b0b0; stroke-width: 0.8"/>
     </g>
     <g id="line2d_22">
      <g>
       <use xlink:href="#m7b135a2677" x="108" y="162.550605" style="fill: #a9a9a9; stroke: #a9a9a9; stroke-width: 0.8"/>
      </g>
     </g>
     <g id="text_11">
      <!-- 5000 -->
      <g style="fill: #a9a9a9" transform="translate(75.55 166.349824) scale(0.1 -0.1)">
       <use xlink:href="#DejaVuSans-35"/>
       <use xlink:href="#DejaVuSans-30" transform="translate(63.623047 0)"/>
       <use xlink:href="#DejaVuSans-30" transform="translate(127.246094 0)"/>
       <use xlink:href="#DejaVuSans-30" transform="translate(190.869141 0)"/>
      </g>
     </g>
    </g>
    <g id="ytick_7">
     <g id="line2d_23">
      <path d="M 108 133.494915 
L 777.6 133.494915 
" clip-path="url(#pb9235bd3ee)" style="fill: none; stroke-dasharray: 5.12,1.28,0.8,1.28; stroke-dashoffset: 0; stroke: #b0b0b0; stroke-width: 0.8"/>
     </g>
     <g id="line2d_24">
      <g>
       <use xlink:href="#m7b135a2677" x="108" y="133.494915" style="fill: #a9a9a9; stroke: #a9a9a9; stroke-width: 0.8"/>
      </g>
     </g>
     <g id="text_12">
      <!-- 6000 -->
      <g style="fill: #a9a9a9" transform="translate(75.55 137.294134) scale(0.1 -0.1)">
       <use xlink:href="#DejaVuSans-36"/>
       <use xlink:href="#DejaVuSans-30" transform="translate(63.623047 0)"/>
       <use xlink:href="#DejaVuSans-30" transform="translate(127.246094 0)"/>
       <use xlink:href="#DejaVuSans-30" transform="translate(190.869141 0)"/>
      </g>
     </g>
    </g>
    <g id="ytick_8">
     <g id="line2d_25">
      <path d="M 108 104.439225 
L 777.6 104.439225 
" clip-path="url(#pb9235bd3ee)" style="fill: none; stroke-dasharray: 5.12,1.28,0.8,1.28; stroke-dashoffset: 0; stroke: #b0b0b0; stroke-width: 0.8"/>
     </g>
     <g id="line2d_26">
      <g>
       <use xlink:href="#m7b135a2677" x="108" y="104.439225" style="fill: #a9a9a9; stroke: #a9a9a9; stroke-width: 0.8"/>
      </g>
     </g>
     <g id="text_13">
      <!-- 7000 -->
      <g style="fill: #a9a9a9" transform="translate(75.55 108.238444) scale(0.1 -0.1)">
       <defs>
        <path id="DejaVuSans-37" d="M 525 4666 
L 3525 4666 
L 3525 4397 
L 1831 0 
L 1172 0 
L 2766 4134 
L 525 4134 
L 525 4666 
z
" transform="scale(0.015625)"/>
       </defs>
       <use xlink:href="#DejaVuSans-37"/>
       <use xlink:href="#DejaVuSans-30" transform="translate(63.623047 0)"/>
       <use xlink:href="#DejaVuSans-30" transform="translate(127.246094 0)"/>
       <use xlink:href="#DejaVuSans-30" transform="translate(190.869141 0)"/>
      </g>
     </g>
    </g>
    <g id="ytick_9">
     <g id="line2d_27">
      <path d="M 108 75.383535 
L 777.6 75.383535 
" clip-path="url(#pb9235bd3ee)" style="fill: none; stroke-dasharray: 5.12,1.28,0.8,1.28; stroke-dashoffset: 0; stroke: #b0b0b0; stroke-width: 0.8"/>
     </g>
     <g id="line2d_28">
      <g>
       <use xlink:href="#m7b135a2677" x="108" y="75.383535" style="fill: #a9a9a9; stroke: #a9a9a9; stroke-width: 0.8"/>
      </g>
     </g>
     <g id="text_14">
      <!-- 8000 -->
      <g style="fill: #a9a9a9" transform="translate(75.55 79.182754) scale(0.1 -0.1)">
       <defs>
        <path id="DejaVuSans-38" d="M 2034 2216 
Q 1584 2216 1326 1975 
Q 1069 1734 1069 1313 
Q 1069 891 1326 650 
Q 1584 409 2034 409 
Q 2484 409 2743 651 
Q 3003 894 3003 1313 
Q 3003 1734 2745 1975 
Q 2488 2216 2034 2216 
z
M 1403 2484 
Q 997 2584 770 2862 
Q 544 3141 544 3541 
Q 544 4100 942 4425 
Q 1341 4750 2034 4750 
Q 2731 4750 3128 4425 
Q 3525 4100 3525 3541 
Q 3525 3141 3298 2862 
Q 3072 2584 2669 2484 
Q 3125 2378 3379 2068 
Q 3634 1759 3634 1313 
Q 3634 634 3220 271 
Q 2806 -91 2034 -91 
Q 1263 -91 848 271 
Q 434 634 434 1313 
Q 434 1759 690 2068 
Q 947 2378 1403 2484 
z
M 1172 3481 
Q 1172 3119 1398 2916 
Q 1625 2713 2034 2713 
Q 2441 2713 2670 2916 
Q 2900 3119 2900 3481 
Q 2900 3844 2670 4047 
Q 2441 4250 2034 4250 
Q 1625 4250 1398 4047 
Q 1172 3844 1172 3481 
z
" transform="scale(0.015625)"/>
       </defs>
       <use xlink:href="#DejaVuSans-38"/>
       <use xlink:href="#DejaVuSans-30" transform="translate(63.623047 0)"/>
       <use xlink:href="#DejaVuSans-30" transform="translate(127.246094 0)"/>
       <use xlink:href="#DejaVuSans-30" transform="translate(190.869141 0)"/>
      </g>
     </g>
    </g>
    <g id="ytick_10">
     <g id="line2d_29">
      <path d="M 108 46.327845 
L 777.6 46.327845 
" clip-path="url(#pb9235bd3ee)" style="fill: none; stroke-dasharray: 5.12,1.28,0.8,1.28; stroke-dashoffset: 0; stroke: #b0b0b0; stroke-width: 0.8"/>
     </g>
     <g id="line2d_30">
      <g>
       <use xlink:href="#m7b135a2677" x="108" y="46.327845" style="fill: #a9a9a9; stroke: #a9a9a9; stroke-width: 0.8"/>
      </g>
     </g>
     <g id="text_15">
      <!-- 9000 -->
      <g style="fill: #a9a9a9" transform="translate(75.55 50.127064) scale(0.1 -0.1)">
       <defs>
        <path id="DejaVuSans-39" d="M 703 97 
L 703 672 
Q 941 559 1184 500 
Q 1428 441 1663 441 
Q 2288 441 2617 861 
Q 2947 1281 2994 2138 
Q 2813 1869 2534 1725 
Q 2256 1581 1919 1581 
Q 1219 1581 811 2004 
Q 403 2428 403 3163 
Q 403 3881 828 4315 
Q 1253 4750 1959 4750 
Q 2769 4750 3195 4129 
Q 3622 3509 3622 2328 
Q 3622 1225 3098 567 
Q 2575 -91 1691 -91 
Q 1453 -91 1209 -44 
Q 966 3 703 97 
z
M 1959 2075 
Q 2384 2075 2632 2365 
Q 2881 2656 2881 3163 
Q 2881 3666 2632 3958 
Q 2384 4250 1959 4250 
Q 1534 4250 1286 3958 
Q 1038 3666 1038 3163 
Q 1038 2656 1286 2365 
Q 1534 2075 1959 2075 
z
" transform="scale(0.015625)"/>
       </defs>
       <use xlink:href="#DejaVuSans-39"/>
       <use xlink:href="#DejaVuSans-30" transform="translate(63.623047 0)"/>
       <use xlink:href="#DejaVuSans-30" transform="translate(127.246094 0)"/>
       <use xlink:href="#DejaVuSans-30" transform="translate(190.869141 0)"/>
      </g>
     </g>
    </g>
   </g>
   <g id="line2d_31">
    <path d="M 138.436364 307.741889 
L 140.622099 307.538499 
L 140.986388 307.364165 
L 142.443545 307.160775 
L 143.900702 306.841162 
L 144.62928 306.724939 
L 146.450726 306.550605 
L 147.179305 306.260048 
L 147.543594 305.737046 
L 147.907883 305.475545 
L 148.272172 304.603874 
L 148.636462 304.545763 
L 149.36504 304.080872 
L 150.093618 303.528814 
L 151.550775 302.424697 
L 151.915064 302.279419 
L 152.643643 301.814528 
L 153.736511 301.26247 
L 154.1008 300.623245 
L 154.829378 300.042131 
L 155.557957 299.809685 
L 156.650824 299.635351 
L 158.836559 299.286683 
L 159.200849 299.112349 
L 161.750873 298.879903 
L 163.20803 298.502179 
L 166.122344 298.066344 
L 166.486633 297.862954 
L 166.850922 297.804843 
L 167.579501 297.543341 
L 170.129525 297.07845 
L 170.858103 296.846005 
L 174.136706 296.264891 
L 174.865285 296.090557 
L 176.322442 295.887167 
L 177.05102 295.654722 
L 177.415309 295.102663 
L 178.508177 294.637772 
L 179.601045 294.31816 
L 179.965334 294.11477 
L 180.693912 293.969492 
L 182.515358 293.5046 
L 183.608226 293.243099 
L 185.065383 292.865375 
L 185.429672 292.83632 
L 186.15825 292.458596 
L 186.52254 292.400484 
L 186.886829 292.197094 
L 190.89401 291.499758 
L 192.351167 291.034867 
L 192.715456 290.773366 
L 194.536902 290.13414 
L 195.265481 289.582082 
L 196.358348 289.349637 
L 204.372711 286.850847 
L 204.737 286.821792 
L 205.829868 286.473123 
L 206.194157 286.473123 
L 206.558446 286.298789 
L 207.287025 286.211622 
L 207.651314 286.066344 
L 209.47276 285.979177 
L 209.837049 285.89201 
L 210.565628 285.48523 
L 211.658495 285.07845 
L 212.387074 284.671671 
L 213.479941 284.177724 
L 214.937098 283.422276 
L 215.301387 283.015496 
L 216.029966 281.795157 
L 217.122833 281.446489 
L 217.487123 281.155932 
L 218.57999 280.749153 
L 218.944279 280.371429 
L 220.037147 279.906538 
L 220.401436 279.703148 
L 222.587172 277.05908 
L 223.31575 276.710412 
L 224.772907 275.664407 
L 225.501485 275.141404 
L 225.865774 274.589346 
L 226.230064 273.68862 
L 226.594353 273.107506 
L 230.237245 269.766102 
L 230.965823 269.039709 
L 232.42298 268.051816 
L 232.787269 267.703148 
L 233.515848 267.470702 
L 234.608716 266.802421 
L 235.701583 266.017918 
L 237.15874 264.594189 
L 237.887318 264.274576 
L 238.615897 263.751574 
L 238.980186 263.519128 
L 239.344475 263.461017 
L 240.437343 262.792736 
L 240.801632 262.356901 
L 242.623078 261.28184 
L 242.987367 261.136562 
L 244.080235 260.323002 
L 249.544573 258.230993 
L 250.273152 257.5046 
L 251.366019 256.923487 
L 252.094598 256.42954 
L 252.823176 256.197094 
L 253.187465 255.935593 
L 253.551755 255.81937 
L 254.644622 255.034867 
L 256.466068 254.599031 
L 257.558936 253.901695 
L 258.651803 253.640194 
L 259.016093 253.553027 
L 260.10896 252.739467 
L 261.566117 252.303632 
L 261.930406 252.013075 
L 264.116142 251.199516 
L 264.84472 251.054237 
L 265.573299 250.734625 
L 268.123323 249.746731 
L 268.851901 249.659564 
L 270.309058 249.07845 
L 274.31624 246.957385 
L 275.044818 246.608717 
L 275.773396 246.260048 
L 276.501975 246.11477 
L 277.230553 245.649879 
L 277.959132 245.446489 
L 279.051999 244.981598 
L 280.509156 244.778208 
L 281.237735 244.371429 
L 281.602024 244.02276 
L 281.966313 243.325424 
L 283.42347 242.889588 
L 284.880627 242.192252 
L 288.15923 240.6523 
L 288.887808 240.477966 
L 289.980676 239.896852 
L 290.344965 239.838741 
L 292.166411 238.879903 
L 292.894989 238.385956 
L 293.987857 238.153511 
L 297.26646 236.991283 
L 298.723617 236.352058 
L 299.087906 236.061501 
L 299.816484 235.654722 
L 300.545063 235.364165 
L 300.909352 235.276998 
L 302.366509 234.492494 
L 302.730798 234.085714 
L 303.095087 233.853269 
L 303.459377 233.766102 
L 304.187955 233.126877 
L 304.552244 233.068765 
L 304.916533 232.42954 
L 305.280823 232.284262 
L 305.645112 231.964649 
L 306.009401 231.906538 
L 306.737979 231.412591 
L 307.466558 231.15109 
L 307.830847 230.860533 
L 308.559425 230.453753 
L 310.016582 229.523971 
L 312.202318 228.507022 
L 312.566607 227.838741 
L 313.295185 227.257627 
L 313.659474 227.17046 
L 315.84521 226.066344 
L 316.573788 225.746731 
L 317.302367 225.194673 
L 318.030945 224.410169 
L 319.852391 222.986441 
L 320.580969 222.376271 
L 320.945259 222.201937 
L 321.673837 221.417433 
L 322.766705 220.894431 
L 323.495283 220.458596 
L 323.859572 220.342373 
L 324.223862 220.051816 
L 324.588151 219.993705 
L 327.866754 218.250363 
L 328.595332 218.046973 
L 330.052489 217.523971 
L 330.781067 217.030024 
L 332.238224 216.477966 
L 332.966803 215.984019 
L 333.695381 215.693462 
L 334.42396 215.141404 
L 335.152538 213.601453 
L 335.881116 212.729782 
L 336.973984 212.119613 
L 337.702562 211.8 
L 338.066852 211.741889 
L 338.79543 211.39322 
L 340.616876 210.724939 
L 341.345455 210.230993 
L 342.438322 209.766102 
L 343.895479 208.865375 
L 344.259768 208.603874 
L 344.624057 208.168039 
L 345.716925 207.499758 
L 346.081214 207.354479 
L 346.809793 206.889588 
L 348.26695 206.046973 
L 348.631239 205.959806 
L 348.995528 205.669249 
L 351.545552 204.797579 
L 351.909842 204.536077 
L 352.63842 204.303632 
L 355.552734 202.850847 
L 356.281312 202.444068 
L 356.645601 202.269734 
L 357.37418 201.659564 
L 358.102758 201.456174 
L 358.467047 201.107506 
L 358.831337 201.049395 
L 359.559915 200.468281 
L 361.381361 199.335109 
L 362.10994 199.102663 
L 362.474229 198.870218 
L 362.838518 198.812107 
L 365.024253 197.853269 
L 369.395724 196.458596 
L 370.488591 195.674092 
L 371.21717 195.267312 
L 372.674327 194.54092 
L 373.767194 193.785472 
L 374.495773 193.611138 
L 375.58864 192.913801 
L 378.867243 191.751574 
L 379.595822 191.490073 
L 381.052979 191.17046 
L 381.781557 190.938015 
L 383.603003 190.298789 
L 384.695871 189.950121 
L 385.424449 189.775787 
L 387.610184 189.369007 
L 388.338763 189.223729 
L 389.43163 188.962228 
L 389.79592 188.787893 
L 390.524498 188.642615 
L 391.253077 188.439225 
L 391.981655 188.090557 
L 392.345944 187.945278 
L 392.710233 187.945278 
L 398.174572 186.143826 
L 398.538861 185.737046 
L 400.724596 184.778208 
L 402.181753 184.255206 
L 402.546042 184.02276 
L 403.63891 183.674092 
L 405.096067 183.122034 
L 405.460356 182.802421 
L 406.553223 182.569976 
L 407.281802 182.221308 
L 407.646091 181.756416 
L 411.653272 180.826634 
L 412.017562 180.826634 
L 412.74614 180.594189 
L 416.024743 179.751574 
L 416.753321 179.57724 
L 423.310527 177.398063 
L 423.674816 177.136562 
L 424.403395 176.904116 
L 427.317709 175.858111 
L 428.046287 175.8 
L 429.503444 175.364165 
L 429.867733 175.131719 
L 430.596311 174.899274 
L 432.782047 173.969492 
L 437.153517 172.342373 
L 440.43212 171.267312 
L 441.889277 170.017918 
L 444.439301 168.884746 
L 446.989326 167.751574 
L 447.717904 167.548184 
L 450.996507 165.89201 
L 451.725086 165.456174 
L 455.003689 163.829056 
L 455.367978 163.538499 
L 457.189424 162.841162 
L 459.739448 161.882324 
L 460.468027 161.795157 
L 460.832316 161.533656 
L 462.289473 161.243099 
L 463.018051 160.923487 
L 464.839497 160.02276 
L 469.575257 157.843584 
L 470.668125 157.46586 
L 471.032414 157.204358 
L 471.760992 157.117191 
L 472.125282 156.85569 
L 472.85386 156.739467 
L 477.58962 154.96707 
L 478.682487 154.705569 
L 480.139644 154.066344 
L 480.868223 153.659564 
L 482.325379 152.875061 
L 483.053958 152.700726 
L 483.418247 152.468281 
L 483.782536 152.381114 
L 485.603982 151.451332 
L 490.339742 149.620823 
L 490.704031 149.562712 
L 492.161188 148.83632 
L 492.889767 148.691041 
L 493.618345 148.255206 
L 495.075502 147.528814 
L 501.632708 144.942857 
L 503.089865 143.664407 
L 504.182732 143.228571 
L 506.732757 141.950121 
L 507.097046 141.68862 
L 507.825624 141.48523 
L 508.554203 141.07845 
L 509.64707 140.816949 
L 515.475698 138.376271 
L 517.297144 137.620823 
L 519.11859 137.039709 
L 520.211457 136.313317 
L 520.575747 136.22615 
L 521.304325 135.848426 
L 522.032904 135.615981 
L 522.397193 135.267312 
L 523.49006 134.831477 
L 523.85435 134.773366 
L 525.311506 134.076029 
L 526.404374 133.727361 
L 527.497242 133.320581 
L 528.590109 133.000969 
L 528.954399 132.942857 
L 529.682977 132.536077 
L 530.047266 132.390799 
L 530.411555 132.100242 
L 531.504423 131.809685 
L 532.233001 131.519128 
L 532.96158 131.199516 
L 534.418737 130.589346 
L 536.968761 129.950121 
L 537.69734 129.659564 
L 539.154496 129.369007 
L 539.883075 129.223729 
L 540.975943 128.787893 
L 542.06881 128.555448 
L 544.254545 127.218886 
L 545.347413 126.550605 
L 547.533148 125.853269 
L 547.897438 125.562712 
L 550.811751 124.516707 
L 551.904619 124.168039 
L 552.633197 123.761259 
L 553.361776 123.557869 
L 553.726065 123.354479 
L 554.454643 123.209201 
L 556.276089 122.366586 
L 557.004668 122.076029 
L 558.461825 121.494915 
L 558.826114 121.146247 
L 559.190403 121.088136 
L 560.64756 120.477966 
L 562.104717 120.100242 
L 562.469006 120.071186 
L 562.833295 119.896852 
L 563.561874 119.751574 
L 566.840477 118.734625 
L 567.569055 118.153511 
L 569.026212 117.310896 
L 569.390501 117.223729 
L 569.75479 117.020339 
L 570.119079 116.962228 
L 573.397682 115.335109 
L 573.761972 115.015496 
L 575.583418 114.579661 
L 576.676285 114.085714 
L 577.404864 113.882324 
L 577.769153 113.70799 
L 578.133442 113.388378 
L 580.683467 112.458596 
L 581.776334 111.964649 
L 582.140623 111.935593 
L 582.869202 111.645036 
L 584.326359 111.005811 
L 586.512094 110.453753 
L 587.604962 109.959806 
L 590.883565 108.884746 
L 591.612143 108.477966 
L 603.997976 104.642615 
L 604.726555 104.439225 
L 605.819422 104.032446 
L 606.183711 104.032446 
L 607.276579 103.770944 
L 608.005157 103.625666 
L 608.733736 103.422276 
L 609.826604 102.841162 
L 610.919471 102.492494 
L 613.469496 101.620823 
L 614.926653 100.865375 
L 617.476677 99.993705 
L 617.840966 99.674092 
L 618.569545 99.441646 
L 618.933834 99.209201 
L 619.662412 99.122034 
L 622.212437 98.395642 
L 623.305304 98.163196 
L 626.219618 97.117191 
L 630.955378 95.286683 
L 631.683956 95.17046 
L 632.412535 95.025182 
L 632.776824 95.025182 
L 633.869692 94.676513 
L 634.962559 94.327845 
L 638.241162 93.398063 
L 638.605451 93.369007 
L 640.426897 92.758838 
L 641.884054 92.468281 
L 642.976922 91.945278 
L 644.069789 91.683777 
L 644.798368 91.364165 
L 646.984103 90.579661 
L 647.348392 90.52155 
L 648.076971 90.260048 
L 652.448441 89.126877 
L 654.634177 88.371429 
L 655.362755 88.313317 
L 657.54849 87.761259 
L 658.277069 87.441646 
L 658.641358 87.383535 
L 659.005647 87.209201 
L 659.734226 86.569976 
L 663.377118 85.233414 
L 665.562853 84.6523 
L 666.291431 84.245521 
L 666.655721 84.158354 
L 667.748588 83.548184 
L 668.112877 83.461017 
L 668.477167 83.17046 
L 669.570034 82.850847 
L 675.034372 80.323002 
L 676.855819 79.683777 
L 677.220108 79.364165 
L 677.584397 79.276998 
L 678.312975 78.812107 
L 679.405843 78.492494 
L 680.863 77.882324 
L 681.227289 77.853269 
L 683.048735 77.155932 
L 683.777314 77.010654 
L 684.505892 76.487651 
L 684.870181 76.487651 
L 686.327338 75.964649 
L 687.784495 75.674092 
L 689.241652 75.034867 
L 689.605941 75.034867 
L 690.698809 74.657143 
L 691.427387 74.54092 
L 692.520255 73.901695 
L 693.248833 73.523971 
L 696.163147 72.477966 
L 696.891725 72.245521 
L 698.713171 71.896852 
L 704.541799 70.124455 
L 704.906088 70.066344 
L 705.634666 69.775787 
L 707.091823 69.456174 
L 710.006137 68.381114 
L 710.734715 68.235835 
L 712.191872 67.974334 
L 712.92045 67.858111 
L 714.377607 67.276998 
L 715.106186 67.073608 
L 715.834764 66.957385 
L 717.291921 66.492494 
L 717.65621 66.492494 
L 718.020499 66.201937 
L 718.749078 65.969492 
L 719.113367 65.969492 
L 722.756259 64.691041 
L 723.849127 64.22615 
L 724.213416 64.168039 
L 724.941994 63.81937 
L 725.670573 63.499758 
L 726.399151 63.180145 
L 727.12773 62.889588 
L 727.492019 62.686199 
L 727.856308 62.628087 
L 728.584887 62.279419 
L 729.677754 61.814528 
L 731.4992 61.030024 
L 731.863489 60.797579 
L 732.227779 60.710412 
L 732.592068 60.477966 
L 732.956357 60.419855 
L 733.684936 59.954964 
L 735.870671 59.431961 
L 736.599249 59.025182 
L 736.963538 58.96707 
L 738.420695 58.385956 
L 743.885033 56.323002 
L 745.34219 55.974334 
L 747.163636 55.8 
L 747.163636 55.8 
" clip-path="url(#pb9235bd3ee)" style="fill: none; stroke: #1f77b4; stroke-width: 1.5; stroke-linecap: square"/>
   </g>
   <g id="line2d_32">
    <path d="M 138.800653 307.8 
L 142.079256 307.712833 
L 144.993569 307.567554 
L 146.450726 307.567554 
L 147.179305 307.451332 
L 156.286535 306.812107 
L 158.836559 306.724939 
L 160.658006 306.666828 
L 165.393765 306.579661 
L 167.215211 306.52155 
L 170.493814 306.434383 
L 171.950971 306.405327 
L 175.593863 306.31816 
L 177.05102 306.172881 
L 178.508177 306.143826 
L 180.693912 306.056659 
L 182.151069 306.027603 
L 183.972515 305.969492 
L 185.429672 305.824213 
L 188.708275 305.737046 
L 189.436853 305.678935 
L 190.89401 305.591768 
L 193.079745 305.5046 
L 194.536902 305.417433 
L 201.094108 304.981598 
L 203.644133 304.894431 
L 204.737 304.778208 
L 206.558446 304.691041 
L 210.201338 304.487651 
L 213.84423 304.42954 
L 215.301387 304.255206 
L 217.122833 304.168039 
L 220.765725 303.790315 
L 222.951461 303.499758 
L 224.408618 303.441646 
L 227.322931 303.034867 
L 229.508667 302.976755 
L 230.601534 302.860533 
L 231.694402 302.773366 
L 250.637441 301.349637 
L 253.187465 301.26247 
L 254.644622 301.088136 
L 256.466068 301.000969 
L 258.651803 300.913801 
L 260.47325 300.826634 
L 261.930406 300.797579 
L 263.751852 300.739467 
L 264.480431 300.6523 
L 269.58048 300.565133 
L 270.309058 300.477966 
L 274.680529 300.390799 
L 277.959132 300.216465 
L 280.509156 300.129298 
L 281.966313 299.954964 
L 284.516338 299.867797 
L 285.244916 299.751574 
L 287.066362 299.693462 
L 290.709254 299.635351 
L 292.166411 299.490073 
L 293.623568 299.461017 
L 294.716435 299.37385 
L 296.173592 299.228571 
L 299.816484 299.025182 
L 303.459377 298.938015 
L 306.737979 298.76368 
L 307.830847 298.734625 
L 308.559425 298.618402 
L 310.380872 298.531235 
L 311.10945 298.473123 
L 312.930896 298.385956 
L 314.388053 298.356901 
L 316.938077 298.269734 
L 326.409597 297.601453 
L 328.595332 297.514286 
L 330.416778 297.456174 
L 335.516827 297.369007 
L 336.245406 297.28184 
L 341.345455 297.194673 
L 344.988347 296.991283 
L 345.716925 296.962228 
L 346.445504 296.875061 
L 348.26695 296.787893 
L 350.088396 296.729782 
L 351.909842 296.642615 
L 353.731288 296.584504 
L 357.009891 296.497337 
L 359.195626 296.410169 
L 364.295675 296.323002 
L 368.302856 296.090557 
L 369.760013 296.032446 
L 370.852881 295.945278 
L 375.95293 295.858111 
L 378.138665 295.770944 
L 384.695871 295.683777 
L 386.153028 295.654722 
L 390.524498 295.59661 
L 391.253077 295.538499 
L 396.353126 295.451332 
L 397.810282 295.422276 
L 407.281802 295.335109 
L 409.467537 295.247942 
L 424.767684 295.160775 
L 426.58913 295.102663 
L 437.153517 295.015496 
L 441.160699 294.783051 
L 443.346434 294.695884 
L 445.532169 294.608717 
L 449.175061 294.52155 
L 451.725086 294.405327 
L 454.639399 294.31816 
L 457.553713 294.172881 
L 464.475208 294.085714 
L 466.660943 293.998547 
L 470.668125 293.91138 
L 473.218149 293.795157 
L 475.768174 293.737046 
L 476.496752 293.678935 
L 485.239693 293.591768 
L 488.882585 293.388378 
L 491.43261 293.301211 
L 495.439791 293.068765 
L 499.811262 292.981598 
L 501.268418 292.952542 
L 501.996997 292.894431 
L 503.818443 292.691041 
L 507.461335 292.603874 
L 508.189913 292.516707 
L 511.832806 292.42954 
L 513.654252 292.371429 
L 517.661433 292.342373 
L 518.390011 292.255206 
L 522.397193 292.168039 
L 523.125771 292.109927 
L 531.140134 292.02276 
L 533.325869 291.935593 
L 538.790207 291.848426 
L 540.247364 291.81937 
L 543.525967 291.761259 
L 544.254545 291.674092 
L 548.990305 291.586925 
L 550.811751 291.528814 
L 557.368957 291.441646 
L 558.461825 291.354479 
L 559.554692 291.267312 
L 560.64756 291.180145 
L 566.111898 291.092978 
L 568.297633 291.005811 
L 578.862021 290.918644 
L 582.140623 290.74431 
L 587.240672 290.657143 
L 588.697829 290.628087 
L 593.0693 290.54092 
L 594.890746 290.482809 
L 603.269398 290.395642 
L 605.455133 290.308475 
L 611.64805 290.221308 
L 613.105206 290.192252 
L 616.748099 290.105085 
L 619.298123 289.988862 
L 623.305304 289.901695 
L 625.855329 289.785472 
L 629.133932 289.727361 
L 629.86251 289.669249 
L 637.876873 289.582082 
L 640.062608 289.494915 
L 642.612633 289.407748 
L 644.434079 289.349637 
L 654.998466 289.26247 
L 657.184201 289.175303 
L 663.377118 289.088136 
L 665.198564 289.030024 
L 669.934323 288.942857 
L 672.120059 288.85569 
L 675.034372 288.768523 
L 677.220108 288.681356 
L 691.791676 288.594189 
L 694.70599 288.44891 
L 703.084642 288.361743 
L 704.541799 288.332688 
L 713.28474 288.245521 
L 715.106186 288.187409 
L 726.763441 288.100242 
L 728.220597 288.071186 
L 739.149274 287.984019 
L 739.877852 287.925908 
L 747.163636 287.896852 
L 747.163636 287.896852 
" clip-path="url(#pb9235bd3ee)" style="fill: none; stroke: #ff7f0e; stroke-width: 1.5; stroke-linecap: square"/>
   </g>
   <g id="patch_3">
    <path d="M 108 320.4 
L 108 43.2 
" style="fill: none; stroke: #a9a9a9; stroke-width: 0.8; stroke-linejoin: miter; stroke-linecap: square"/>
   </g>
   <g id="patch_4">
    <path d="M 777.6 320.4 
L 777.6 43.2 
" style="fill: none"/>
   </g>
   <g id="patch_5">
    <path d="M 108 320.4 
L 777.6 320.4 
" style="fill: none; stroke: #a9a9a9; stroke-width: 0.8; stroke-linejoin: miter; stroke-linecap: square"/>
   </g>
   <g id="patch_6">
    <path d="M 108 43.2 
L 777.6 43.2 
" style="fill: none"/>
   </g>
   <g id="text_16">
    <!-- get_subscribe history -->
    <g style="fill: #a9a9a9" transform="translate(378.6075 37.2) scale(0.12 -0.12)">
     <defs>
      <path id="DejaVuSans-67" d="M 2906 1791 
Q 2906 2416 2648 2759 
Q 2391 3103 1925 3103 
Q 1463 3103 1205 2759 
Q 947 2416 947 1791 
Q 947 1169 1205 825 
Q 1463 481 1925 481 
Q 2391 481 2648 825 
Q 2906 1169 2906 1791 
z
M 3481 434 
Q 3481 -459 3084 -895 
Q 2688 -1331 1869 -1331 
Q 1566 -1331 1297 -1286 
Q 1028 -1241 775 -1147 
L 775 -588 
Q 1028 -725 1275 -790 
Q 1522 -856 1778 -856 
Q 2344 -856 2625 -561 
Q 2906 -266 2906 331 
L 2906 616 
Q 2728 306 2450 153 
Q 2172 0 1784 0 
Q 1141 0 747 490 
Q 353 981 353 1791 
Q 353 2603 747 3093 
Q 1141 3584 1784 3584 
Q 2172 3584 2450 3431 
Q 2728 3278 2906 2969 
L 2906 3500 
L 3481 3500 
L 3481 434 
z
" transform="scale(0.015625)"/>
      <path id="DejaVuSans-65" d="M 3597 1894 
L 3597 1613 
L 953 1613 
Q 991 1019 1311 708 
Q 1631 397 2203 397 
Q 2534 397 2845 478 
Q 3156 559 3463 722 
L 3463 178 
Q 3153 47 2828 -22 
Q 2503 -91 2169 -91 
Q 1331 -91 842 396 
Q 353 884 353 1716 
Q 353 2575 817 3079 
Q 1281 3584 2069 3584 
Q 2775 3584 3186 3129 
Q 3597 2675 3597 1894 
z
M 3022 2063 
Q 3016 2534 2758 2815 
Q 2500 3097 2075 3097 
Q 1594 3097 1305 2825 
Q 1016 2553 972 2059 
L 3022 2063 
z
" transform="scale(0.015625)"/>
      <path id="DejaVuSans-74" d="M 1172 4494 
L 1172 3500 
L 2356 3500 
L 2356 3053 
L 1172 3053 
L 1172 1153 
Q 1172 725 1289 603 
Q 1406 481 1766 481 
L 2356 481 
L 2356 0 
L 1766 0 
Q 1100 0 847 248 
Q 594 497 594 1153 
L 594 3053 
L 172 3053 
L 172 3500 
L 594 3500 
L 594 4494 
L 1172 4494 
z
" transform="scale(0.015625)"/>
      <path id="DejaVuSans-5f" d="M 3263 -1063 
L 3263 -1509 
L -63 -1509 
L -63 -1063 
L 3263 -1063 
z
" transform="scale(0.015625)"/>
      <path id="DejaVuSans-73" d="M 2834 3397 
L 2834 2853 
Q 2591 2978 2328 3040 
Q 2066 3103 1784 3103 
Q 1356 3103 1142 2972 
Q 928 2841 928 2578 
Q 928 2378 1081 2264 
Q 1234 2150 1697 2047 
L 1894 2003 
Q 2506 1872 2764 1633 
Q 3022 1394 3022 966 
Q 3022 478 2636 193 
Q 2250 -91 1575 -91 
Q 1294 -91 989 -36 
Q 684 19 347 128 
L 347 722 
Q 666 556 975 473 
Q 1284 391 1588 391 
Q 1994 391 2212 530 
Q 2431 669 2431 922 
Q 2431 1156 2273 1281 
Q 2116 1406 1581 1522 
L 1381 1569 
Q 847 1681 609 1914 
Q 372 2147 372 2553 
Q 372 3047 722 3315 
Q 1072 3584 1716 3584 
Q 2034 3584 2315 3537 
Q 2597 3491 2834 3397 
z
" transform="scale(0.015625)"/>
      <path id="DejaVuSans-75" d="M 544 1381 
L 544 3500 
L 1119 3500 
L 1119 1403 
Q 1119 906 1312 657 
Q 1506 409 1894 409 
Q 2359 409 2629 706 
Q 2900 1003 2900 1516 
L 2900 3500 
L 3475 3500 
L 3475 0 
L 2900 0 
L 2900 538 
Q 2691 219 2414 64 
Q 2138 -91 1772 -91 
Q 1169 -91 856 284 
Q 544 659 544 1381 
z
M 1991 3584 
L 1991 3584 
z
" transform="scale(0.015625)"/>
      <path id="DejaVuSans-62" d="M 3116 1747 
Q 3116 2381 2855 2742 
Q 2594 3103 2138 3103 
Q 1681 3103 1420 2742 
Q 1159 2381 1159 1747 
Q 1159 1113 1420 752 
Q 1681 391 2138 391 
Q 2594 391 2855 752 
Q 3116 1113 3116 1747 
z
M 1159 2969 
Q 1341 3281 1617 3432 
Q 1894 3584 2278 3584 
Q 2916 3584 3314 3078 
Q 3713 2572 3713 1747 
Q 3713 922 3314 415 
Q 2916 -91 2278 -91 
Q 1894 -91 1617 61 
Q 1341 213 1159 525 
L 1159 0 
L 581 0 
L 581 4863 
L 1159 4863 
L 1159 2969 
z
" transform="scale(0.015625)"/>
      <path id="DejaVuSans-63" d="M 3122 3366 
L 3122 2828 
Q 2878 2963 2633 3030 
Q 2388 3097 2138 3097 
Q 1578 3097 1268 2742 
Q 959 2388 959 1747 
Q 959 1106 1268 751 
Q 1578 397 2138 397 
Q 2388 397 2633 464 
Q 2878 531 3122 666 
L 3122 134 
Q 2881 22 2623 -34 
Q 2366 -91 2075 -91 
Q 1284 -91 818 406 
Q 353 903 353 1747 
Q 353 2603 823 3093 
Q 1294 3584 2113 3584 
Q 2378 3584 2631 3529 
Q 2884 3475 3122 3366 
z
" transform="scale(0.015625)"/>
      <path id="DejaVuSans-72" d="M 2631 2963 
Q 2534 3019 2420 3045 
Q 2306 3072 2169 3072 
Q 1681 3072 1420 2755 
Q 1159 2438 1159 1844 
L 1159 0 
L 581 0 
L 581 3500 
L 1159 3500 
L 1159 2956 
Q 1341 3275 1631 3429 
Q 1922 3584 2338 3584 
Q 2397 3584 2469 3576 
Q 2541 3569 2628 3553 
L 2631 2963 
z
" transform="scale(0.015625)"/>
      <path id="DejaVuSans-69" d="M 603 3500 
L 1178 3500 
L 1178 0 
L 603 0 
L 603 3500 
z
M 603 4863 
L 1178 4863 
L 1178 4134 
L 603 4134 
L 603 4863 
z
" transform="scale(0.015625)"/>
      <path id="DejaVuSans-20" transform="scale(0.015625)"/>
      <path id="DejaVuSans-68" d="M 3513 2113 
L 3513 0 
L 2938 0 
L 2938 2094 
Q 2938 2591 2744 2837 
Q 2550 3084 2163 3084 
Q 1697 3084 1428 2787 
Q 1159 2491 1159 1978 
L 1159 0 
L 581 0 
L 581 4863 
L 1159 4863 
L 1159 2956 
Q 1366 3272 1645 3428 
Q 1925 3584 2291 3584 
Q 2894 3584 3203 3211 
Q 3513 2838 3513 2113 
z
" transform="scale(0.015625)"/>
      <path id="DejaVuSans-6f" d="M 1959 3097 
Q 1497 3097 1228 2736 
Q 959 2375 959 1747 
Q 959 1119 1226 758 
Q 1494 397 1959 397 
Q 2419 397 2687 759 
Q 2956 1122 2956 1747 
Q 2956 2369 2687 2733 
Q 2419 3097 1959 3097 
z
M 1959 3584 
Q 2709 3584 3137 3096 
Q 3566 2609 3566 1747 
Q 3566 888 3137 398 
Q 2709 -91 1959 -91 
Q 1206 -91 779 398 
Q 353 888 353 1747 
Q 353 2609 779 3096 
Q 1206 3584 1959 3584 
z
" transform="scale(0.015625)"/>
      <path id="DejaVuSans-79" d="M 2059 -325 
Q 1816 -950 1584 -1140 
Q 1353 -1331 966 -1331 
L 506 -1331 
L 506 -850 
L 844 -850 
Q 1081 -850 1212 -737 
Q 1344 -625 1503 -206 
L 1606 56 
L 191 3500 
L 800 3500 
L 1894 763 
L 2988 3500 
L 3597 3500 
L 2059 -325 
z
" transform="scale(0.015625)"/>
     </defs>
     <use xlink:href="#DejaVuSans-67"/>
     <use xlink:href="#DejaVuSans-65" transform="translate(63.476562 0)"/>
     <use xlink:href="#DejaVuSans-74" transform="translate(125 0)"/>
     <use xlink:href="#DejaVuSans-5f" transform="translate(164.208984 0)"/>
     <use xlink:href="#DejaVuSans-73" transform="translate(214.208984 0)"/>
     <use xlink:href="#DejaVuSans-75" transform="translate(266.308594 0)"/>
     <use xlink:href="#DejaVuSans-62" transform="translate(329.6875 0)"/>
     <use xlink:href="#DejaVuSans-73" transform="translate(393.164062 0)"/>
     <use xlink:href="#DejaVuSans-63" transform="translate(445.263672 0)"/>
     <use xlink:href="#DejaVuSans-72" transform="translate(500.244141 0)"/>
     <use xlink:href="#DejaVuSans-69" transform="translate(541.357422 0)"/>
     <use xlink:href="#DejaVuSans-62" transform="translate(569.140625 0)"/>
     <use xlink:href="#DejaVuSans-65" transform="translate(632.617188 0)"/>
     <use xlink:href="#DejaVuSans-20" transform="translate(694.140625 0)"/>
     <use xlink:href="#DejaVuSans-68" transform="translate(725.927734 0)"/>
     <use xlink:href="#DejaVuSans-69" transform="translate(789.306641 0)"/>
     <use xlink:href="#DejaVuSans-73" transform="translate(817.089844 0)"/>
     <use xlink:href="#DejaVuSans-74" transform="translate(869.189453 0)"/>
     <use xlink:href="#DejaVuSans-6f" transform="translate(908.398438 0)"/>
     <use xlink:href="#DejaVuSans-72" transform="translate(969.580078 0)"/>
     <use xlink:href="#DejaVuSans-79" transform="translate(1010.693359 0)"/>
    </g>
   </g>
   <g id="legend_1">
    <g id="line2d_33">
     <path d="M 815.08 328.498438 
L 825.08 328.498438 
L 835.08 328.498438 
" style="fill: none; stroke: #1f77b4; stroke-width: 1.5; stroke-linecap: square"/>
    </g>
    <g id="text_17">
     <!-- star -->
     <g style="fill: #a9a9a9" transform="translate(843.08 331.998438) scale(0.1 -0.1)">
      <defs>
       <path id="DejaVuSans-61" d="M 2194 1759 
Q 1497 1759 1228 1600 
Q 959 1441 959 1056 
Q 959 750 1161 570 
Q 1363 391 1709 391 
Q 2188 391 2477 730 
Q 2766 1069 2766 1631 
L 2766 1759 
L 2194 1759 
z
M 3341 1997 
L 3341 0 
L 2766 0 
L 2766 531 
Q 2569 213 2275 61 
Q 1981 -91 1556 -91 
Q 1019 -91 701 211 
Q 384 513 384 1019 
Q 384 1609 779 1909 
Q 1175 2209 1959 2209 
L 2766 2209 
L 2766 2266 
Q 2766 2663 2505 2880 
Q 2244 3097 1772 3097 
Q 1472 3097 1187 3025 
Q 903 2953 641 2809 
L 641 3341 
Q 956 3463 1253 3523 
Q 1550 3584 1831 3584 
Q 2591 3584 2966 3190 
Q 3341 2797 3341 1997 
z
" transform="scale(0.015625)"/>
      </defs>
      <use xlink:href="#DejaVuSans-73"/>
      <use xlink:href="#DejaVuSans-74" transform="translate(52.099609 0)"/>
      <use xlink:href="#DejaVuSans-61" transform="translate(91.308594 0)"/>
      <use xlink:href="#DejaVuSans-72" transform="translate(152.587891 0)"/>
     </g>
    </g>
    <g id="line2d_34">
     <path d="M 815.08 343.176562 
L 825.08 343.176562 
L 835.08 343.176562 
" style="fill: none; stroke: #ff7f0e; stroke-width: 1.5; stroke-linecap: square"/>
    </g>
    <g id="text_18">
     <!-- fork -->
     <g style="fill: #a9a9a9" transform="translate(843.08 346.676562) scale(0.1 -0.1)">
      <defs>
       <path id="DejaVuSans-66" d="M 2375 4863 
L 2375 4384 
L 1825 4384 
Q 1516 4384 1395 4259 
Q 1275 4134 1275 3809 
L 1275 3500 
L 2222 3500 
L 2222 3053 
L 1275 3053 
L 1275 0 
L 697 0 
L 697 3053 
L 147 3053 
L 147 3500 
L 697 3500 
L 697 3744 
Q 697 4328 969 4595 
Q 1241 4863 1831 4863 
L 2375 4863 
z
" transform="scale(0.015625)"/>
       <path id="DejaVuSans-6b" d="M 581 4863 
L 1159 4863 
L 1159 1991 
L 2875 3500 
L 3609 3500 
L 1753 1863 
L 3688 0 
L 2938 0 
L 1159 1709 
L 1159 0 
L 581 0 
L 581 4863 
z
" transform="scale(0.015625)"/>
      </defs>
      <use xlink:href="#DejaVuSans-66"/>
      <use xlink:href="#DejaVuSans-6f" transform="translate(35.205078 0)"/>
      <use xlink:href="#DejaVuSans-72" transform="translate(96.386719 0)"/>
      <use xlink:href="#DejaVuSans-6b" transform="translate(137.5 0)"/>
     </g>
    </g>
   </g>
  </g>
 </g>
 <defs>
  <clipPath id="pb9235bd3ee">
   <rect x="108" y="43.2" width="669.6" height="277.2"/>
  </clipPath>
 </defs>
</svg>
